<svg width="32" height="33" viewBox="0 0 32 33" fill="none" xmlns="http://www.w3.org/2000/svg">
<path d="M22.6664 3.33293C24.433 3.33821 26.1258 4.04233 27.375 5.29152C28.6242 6.54071 29.3283 8.23346 29.3336 10.0001V23.3329C29.3283 25.0995 28.6242 26.7923 27.375 28.0415C26.1258 29.2907 24.433 29.9948 22.6664 30.0001H9.33357C7.56696 29.9948 5.87421 29.2907 4.62502 28.0415C3.37583 26.7923 2.6717 25.0995 2.66643 23.3329V10.0001C2.6717 8.23346 3.37583 6.54071 4.62502 5.29152C5.87421 4.04233 7.56696 3.33821 9.33357 3.33293H22.6664ZM22.6664 0.666504H9.33357C4.2 0.666504 0 4.8665 0 10.0001V23.3329C0 28.4665 4.2 32.6665 9.33357 32.6665H22.6664C27.8 32.6665 32 28.4665 32 23.3329V10.0001C32 4.8665 27.8 0.666504 22.6664 0.666504Z" fill="#381FD2"/>
<path d="M24.6664 10C24.2709 10 23.8842 9.8827 23.5553 9.66294C23.2264 9.44317 22.97 9.13082 22.8187 8.76536C22.6673 8.39991 22.6277 7.99778 22.7048 7.60982C22.782 7.22186 22.9725 6.86549 23.2522 6.58579C23.5319 6.30608 23.8883 6.1156 24.2762 6.03843C24.6642 5.96126 25.0663 6.00087 25.4318 6.15224C25.7972 6.30362 26.1096 6.55996 26.3294 6.88886C26.5491 7.21776 26.6664 7.60444 26.6664 8C26.667 8.2628 26.6156 8.52313 26.5153 8.76603C26.415 9.00894 26.2677 9.22964 26.0819 9.41547C25.8961 9.6013 25.6754 9.7486 25.4325 9.84891C25.1895 9.94921 24.9292 10.0006 24.6664 10ZM16 11.3329C17.0549 11.3329 18.0861 11.6457 18.9632 12.2317C19.8403 12.8178 20.5239 13.6508 20.9276 14.6253C21.3313 15.5999 21.4369 16.6723 21.2311 17.7069C21.0253 18.7416 20.5173 19.6919 19.7714 20.4378C19.0255 21.1837 18.0751 21.6917 17.0405 21.8975C16.0059 22.1033 14.9335 21.9977 13.9589 21.594C12.9843 21.1903 12.1514 20.5067 11.5653 19.6296C10.9792 18.7525 10.6664 17.7213 10.6664 16.6664C10.6679 15.2523 11.2304 13.8966 12.2303 12.8967C13.2302 11.8968 14.5859 11.3344 16 11.3329ZM16 8.66643C14.4177 8.66643 12.871 9.13562 11.5554 10.0147C10.2398 10.8937 9.21447 12.1431 8.60897 13.605C8.00347 15.0668 7.84504 16.6753 8.15372 18.2271C8.4624 19.779 9.22433 21.2044 10.3431 22.3233C11.462 23.4421 12.8874 24.204 14.4393 24.5127C15.9911 24.8214 17.5997 24.6629 19.0615 24.0574C20.5233 23.4519 21.7727 22.4266 22.6517 21.111C23.5308 19.7954 24 18.2487 24 16.6664C24 14.5447 23.1571 12.5099 21.6568 11.0096C20.1566 9.50928 18.1217 8.66643 16 8.66643Z" fill="#381FD2"/>
</svg>
