<svg width="32" height="33" viewBox="0 0 32 33" fill="none" xmlns="http://www.w3.org/2000/svg">
<path d="M29.303 0.830566H2.87021C1.42588 0.830566 0.16394 1.86981 0.16394 3.29717V29.7886C0.16394 31.2238 1.42588 32.5027 2.87021 32.5027H29.2952C30.7473 32.5027 31.8361 31.2153 31.8361 29.7886V3.29717C31.8446 1.86981 30.7473 0.830566 29.303 0.830566ZM9.98159 27.2308H5.44428V13.1233H9.98159V27.2308ZM7.86988 10.9784H7.83736C6.38525 10.9784 5.44498 9.89742 5.44498 8.54429C5.44498 7.16641 6.41 6.1109 7.89463 6.1109C9.37926 6.1109 10.2877 7.15863 10.3202 8.54429C10.3195 9.89742 9.37926 10.9784 7.86988 10.9784ZM26.5642 27.2308H22.0269V19.5171C22.0269 17.6691 21.3666 16.4065 19.725 16.4065C18.4709 16.4065 17.7285 17.2548 17.3984 18.0813C17.2747 18.3782 17.2414 18.7826 17.2414 19.1955V27.2308H12.7041V13.1233H17.2414V15.0866C17.9017 14.1463 18.9332 12.7932 21.3334 12.7932C24.3118 12.7932 26.5649 14.7564 26.5649 18.989L26.5642 27.2308Z" fill="#381FD2"/>
</svg>
