<svg width="32" height="27" viewBox="0 0 32 27" fill="none" xmlns="http://www.w3.org/2000/svg">
<path d="M32 3.86635C30.7996 4.38792 29.5296 4.73154 28.23 4.88635C29.5958 4.08661 30.6229 2.81606 31.1187 1.31302C29.8274 2.06808 28.417 2.59787 26.948 2.87969C26.3294 2.23137 25.5854 1.71562 24.7613 1.36378C23.9372 1.01194 23.0501 0.831363 22.154 0.833019C18.526 0.833019 15.59 3.72635 15.59 7.29302C15.5874 7.78913 15.6443 8.28376 15.7593 8.76635C13.1578 8.64439 10.6104 7.98074 8.27999 6.81786C5.94963 5.65497 3.88766 4.01846 2.226 2.01302C1.64305 2.99577 1.33475 4.11705 1.33333 5.25969C1.33333 7.49969 2.502 9.47969 4.26667 10.6397C3.22115 10.6149 2.19706 10.3382 1.28133 9.83302V9.91302C1.28133 13.0464 3.548 15.653 6.548 16.2464C5.98386 16.3967 5.40251 16.4729 4.81867 16.473C4.40439 16.4737 3.99105 16.4335 3.58467 16.353C4.41867 18.9197 6.846 20.7864 9.72133 20.8397C7.38492 22.6403 4.51641 23.6135 1.56667 23.6064C1.04308 23.6056 0.519977 23.5744 0 23.513C3.00079 25.4292 6.48896 26.4427 10.0493 26.433C22.14 26.433 28.7453 16.5864 28.7453 8.04635C28.7453 7.76635 28.738 7.48635 28.7247 7.21302C30.0067 6.30106 31.1159 5.16776 32 3.86635Z" fill="#381FD2"/>
</svg>
