<svg width="138" height="160" viewBox="0 0 138 160" fill="none" xmlns="http://www.w3.org/2000/svg">
<path d="M66.7765 40.6561C66.7765 41.1689 66.2637 41.1689 66.2637 41.1689H65.7509C65.238 41.1689 65.238 40.6561 64.7252 40.1433C64.7252 40.1433 64.2124 39.6304 64.2124 39.1176C64.2124 38.6048 64.2124 38.6048 64.7252 38.6048L65.7509 39.1176C66.2637 39.6304 66.7765 40.1433 66.7765 40.6561ZM57.5457 35.5279C57.5457 32.9638 56.5201 31.4253 54.9816 31.4253C54.9816 31.4253 54.9816 31.9381 54.4688 31.9381V32.9638H56.0073C56.0073 33.9894 56.5201 34.5022 56.5201 35.5279H57.5457ZM75.4944 32.9638C76.5201 32.9638 77.0329 33.9894 77.5457 35.5279H78.5714C78.0585 35.0151 78.0585 34.5022 78.0585 33.9894C78.0585 33.4766 78.0585 32.9638 77.5457 32.451C77.0329 31.9381 76.5201 31.4253 76.0073 31.4253C76.0073 31.4253 75.4944 31.9381 74.9816 31.9381C74.9816 32.451 75.4944 32.451 75.4944 32.9638ZM60.1098 41.1689C59.597 41.1689 59.597 41.1689 59.597 40.6561C59.597 40.1433 59.597 39.6304 60.1098 39.1176C61.1355 39.1176 61.6483 38.6048 61.6483 38.6048C62.1611 38.6048 62.1611 39.1176 62.1611 39.1176C62.1611 39.6304 61.6483 40.1433 60.6226 41.1689H60.1098ZM54.4688 40.6561C52.4175 39.6304 51.9047 38.092 51.9047 35.5279C51.9047 33.9894 51.9047 32.9638 52.9303 31.9381C53.4432 30.9125 54.4688 30.3997 55.4944 30.3997C56.5201 30.3997 57.0329 30.9125 58.0585 31.9381C58.5714 33.4766 59.0842 35.0151 59.0842 36.5535V37.0663V37.5792H59.597V37.0663C60.1098 37.0663 60.1098 36.0407 60.1098 33.9894C60.1098 32.451 60.1098 30.9125 59.0842 29.374C58.0585 27.8356 57.0329 26.8099 54.9816 26.8099C53.4432 26.8099 51.9047 27.8356 51.3919 29.374C50.3662 31.4253 50.1611 32.9638 50.1611 35.5279C50.1611 37.5792 50.8791 39.6304 52.9303 41.6817C53.4432 41.1689 53.956 41.1689 54.4688 40.6561ZM118.571 112.964C119.084 112.964 119.084 112.759 119.084 112.297C119.084 111.169 118.571 109.836 117.033 108.348C115.494 106.81 112.93 105.836 109.853 105.425C109.341 105.374 108.828 105.374 108.828 105.374C108.315 105.271 108.315 105.271 107.802 105.271C107.289 105.22 106.264 105.118 105.751 105.015C107.289 100.246 107.802 96.0407 107.802 92.3484C107.802 87.2202 106.776 83.6304 104.725 80.5535C102.674 77.4766 100.623 75.9381 98.0585 75.4253C97.5457 75.9381 97.5457 75.9381 97.5457 76.451C100.11 77.4766 102.674 79.5279 104.212 82.6048C105.751 86.1945 106.264 89.2715 106.264 92.8612C106.264 95.733 105.751 99.9894 103.7 105.425C101.648 106.246 99.597 108.143 98.0585 111.118C98.0585 111.579 98.0585 111.836 98.5714 111.836C98.5714 111.836 99.0842 111.374 99.597 110.502C100.623 109.63 101.135 108.759 102.161 107.887C103.7 107.015 104.725 106.554 106.264 106.554C108.828 106.554 111.392 106.912 112.93 107.63C114.982 108.297 116.007 109.015 116.52 109.836C117.033 110.605 117.546 111.323 118.059 111.989C118.059 112.656 118.571 112.964 118.571 112.964ZM71.3919 38.6048C70.8791 38.092 70.8791 37.0663 70.8791 36.0407C70.8791 33.9894 70.8791 32.9638 71.9047 31.4253C72.9303 30.3997 73.956 29.8869 74.9816 29.8869C76.5201 29.8869 77.5457 30.9125 78.5714 31.9381C79.0842 33.4766 79.597 34.5022 79.597 36.0407C79.597 38.6048 78.5714 40.1433 76.5201 40.6561C76.5201 40.6561 77.0329 41.1689 77.5457 41.1689C78.5714 41.1689 79.0842 41.6817 80.1098 42.1945C80.6226 39.1176 81.1355 37.0663 81.1355 34.5022C81.1355 31.4253 80.6226 29.374 79.597 27.8356C78.0585 26.2971 76.5201 25.7843 74.4688 25.7843C72.9303 25.7843 71.3919 26.2971 69.8534 27.3228C68.8278 28.8612 68.315 29.8869 68.315 31.4253C68.315 33.9894 68.8278 36.0407 69.8534 38.092C70.3662 38.092 70.8791 38.6048 71.3919 38.6048ZM77.5457 46.8099C70.8791 51.4253 65.7509 53.4766 61.6483 53.4766C58.0585 53.4766 54.4688 51.9381 51.3919 49.374C51.9047 50.3997 52.4175 51.4253 52.9303 51.9381L56.0073 55.0151C58.0585 57.0663 60.6226 58.092 63.1867 58.092C66.7765 58.092 70.8791 56.0407 76.0073 52.451L80.6226 49.374C81.6483 48.3484 82.6739 47.3227 82.6739 45.7843C82.6739 45.2715 82.6739 44.7586 82.1611 44.7586C81.6483 43.733 79.0842 42.1945 73.956 40.6561C69.3406 38.6048 65.7509 37.5792 63.6996 37.5792C62.1611 37.5792 59.597 38.6048 56.0073 40.6561C52.9303 42.7074 50.8791 44.7586 50.8791 46.8099C50.8791 46.8099 51.3919 47.3227 51.9047 48.3484C54.9816 50.9125 58.0585 52.451 61.1355 52.451C65.238 52.451 70.3662 50.3997 77.0329 45.2715V46.2971C77.5457 46.2971 77.5457 46.8099 77.5457 46.8099ZM89.3406 150.4C91.3919 154.256 94.9816 156.195 99.0842 156.195C100.11 156.195 101.135 156.041 102.161 155.733C103.187 155.528 104.212 155.169 104.725 154.759C105.238 154.4 105.751 154.041 106.264 153.63C107.289 153.271 107.289 153.015 107.802 152.759L116.52 145.22C118.571 143.584 120.623 142.154 123.187 140.912C125.238 139.682 127.289 138.861 128.315 138.4C129.853 137.989 130.879 137.374 131.905 136.554C132.418 135.784 132.93 134.81 132.93 133.579C132.93 132.092 131.905 130.964 130.879 130.143C129.853 129.323 128.828 128.759 127.802 128.4C126.776 128.041 125.751 127.22 124.212 125.836C123.187 124.502 122.161 122.656 121.648 120.246L121.135 117.271C120.623 115.887 120.623 114.861 120.11 114.297C120.11 114.143 120.11 114.092 119.597 114.092C119.084 114.092 118.059 114.554 117.546 115.425C116.52 116.297 115.494 117.271 114.469 118.297C113.956 119.323 112.418 120.246 111.392 121.118C109.853 121.989 108.315 122.451 107.289 122.451C103.187 122.451 101.135 121.323 99.597 119.118C98.5714 117.477 98.0585 115.579 97.5457 113.425C96.5201 112.554 96.0073 112.092 94.9816 112.092C92.4175 112.092 91.3919 114.759 91.3919 120.143V121.836V127.784V132.348V134.554V136.092C91.3919 136.554 90.8791 137.579 90.8791 139.169C90.3662 140.759 90.3662 142.564 90.3662 144.605L89.3406 150.297V150.384V150.4ZM14.9816 147.671C19.7508 148.369 25.238 149.861 31.4432 152.138C37.6483 154.395 41.4432 155.574 42.8278 155.574C46.4175 155.574 49.3919 153.984 51.8534 150.912C52.3662 149.918 52.3662 148.748 52.3662 147.405C52.3662 142.559 49.4432 136.43 43.597 128.995L40.1098 124.328C39.3919 123.354 38.5201 121.866 37.3919 119.866C36.3149 117.866 35.3406 116.328 34.5714 115.251C33.9047 114.071 32.8278 112.892 31.4432 111.712C30.1098 110.533 28.5714 109.764 26.879 109.354C24.7252 109.764 23.238 110.482 22.5201 111.456C21.8021 112.43 21.3919 113.507 21.2893 114.636C21.1355 115.712 20.8278 116.43 20.3149 116.789C19.8021 117.097 18.9303 117.354 17.7508 117.61C17.4944 117.61 17.0329 117.61 16.3662 117.661H14.9816C12.2637 117.661 10.4175 117.969 9.44315 118.482C8.1611 119.969 7.49443 121.661 7.49443 123.456C7.49443 124.277 7.69956 125.661 8.10982 127.61C8.52007 129.507 8.7252 131.046 8.7252 132.123C8.7252 134.225 8.10982 136.328 6.82776 138.43C5.54571 140.636 4.87905 142.277 4.87905 143.446C5.39187 145.436 8.77648 146.836 14.9816 147.656V147.671ZM32.0585 101.041C32.0585 97.5022 32.9816 93.6048 34.8791 88.9894C36.7252 84.374 38.5714 81.2971 40.3662 79.2458C40.2637 78.733 40.0073 78.733 39.597 78.733L39.0842 78.2202C37.597 79.7586 35.8021 83.3484 33.6483 88.4766C31.4944 93.092 30.3662 97.3484 30.3662 100.477C30.3662 102.784 30.9303 104.784 31.956 106.528C33.0842 108.22 35.8021 110.682 40.1098 113.81L45.5457 117.348C51.3406 122.374 54.4175 125.861 54.4175 127.912C54.4175 128.989 53.9047 130.066 52.3662 131.246C51.3406 132.477 49.956 133.092 48.7765 133.092C48.6739 133.092 48.6226 133.195 48.6226 133.451C48.6226 133.502 49.1355 134.528 50.2124 136.528C52.3662 139.451 56.9816 140.887 63.1355 140.887C74.4175 140.887 83.1355 136.271 89.8021 127.041C89.8021 124.477 89.8021 122.887 89.2893 122.22V120.323C89.2893 116.989 89.8021 114.477 90.8278 112.836C91.8534 111.195 92.8791 110.425 94.4175 110.425C95.4432 110.425 96.4688 110.784 97.4944 111.554C98.0073 107.605 98.0073 104.169 98.0073 101.092C98.0073 96.4253 98.0073 92.5792 96.9816 88.9894C96.4688 85.9125 95.4432 83.3484 94.4175 81.2971C93.3919 79.7586 92.3662 78.2202 91.3406 76.6817C90.3149 75.1433 89.8021 73.6048 88.7765 72.0663C88.2637 70.0151 87.7508 68.4766 87.7508 65.9125C86.2124 63.3484 85.1867 60.7843 83.6483 58.2202C82.6226 55.6561 81.597 53.092 80.5714 51.0407L75.956 54.6304C70.8278 58.2202 66.7252 59.7586 63.1355 59.7586C60.0585 59.7586 57.4944 59.2458 55.956 57.1945L52.8791 54.6304C52.8791 56.1689 52.3662 58.2202 51.3406 60.2715L48.1098 66.4253C46.6739 70.0151 45.9047 72.0663 45.7508 73.6048C45.5457 74.6304 45.3919 75.6561 45.2893 75.6561L41.4432 83.3484C37.2893 91.0407 35.1867 98.1689 35.1867 104.066C35.1867 105.246 35.2893 106.477 35.4944 107.707C33.1867 106.118 32.0585 103.912 32.0585 101.041ZM68.7765 149.554C62.1098 149.554 56.9816 150.456 53.3919 152.246V152.092C50.8278 155.169 47.956 156.759 43.956 156.759C41.4432 156.759 37.4944 155.784 32.1611 153.836C26.7765 151.989 22.0073 150.574 17.8534 149.641C17.4431 149.523 16.5201 149.348 15.0329 149.112C13.597 148.882 12.2637 148.646 11.0842 148.41C10.0073 148.179 8.77648 147.83 7.44315 147.359C6.1611 146.954 5.13546 146.425 4.36623 145.784C3.65853 145.138 3.30981 144.41 3.30981 143.595C3.30981 142.774 3.48417 141.897 3.83289 140.964C4.1611 140.4 4.52007 139.836 4.87905 139.323C5.23802 138.759 5.54571 138.246 5.75084 137.733C6.05853 137.271 6.26366 136.81 6.46879 136.297C6.67392 135.836 6.87905 135.374 6.98161 134.81C7.08417 134.297 7.18674 133.784 7.18674 133.271C7.18674 132.759 6.98161 131.22 6.57135 128.502C6.1611 125.836 5.95597 124.143 5.95597 123.425C5.95597 121.169 6.46879 119.374 7.59699 118.092C8.7252 116.81 9.80212 116.143 10.9303 116.143H16.8278C17.2893 116.143 18.0073 115.887 19.0842 115.271C19.4432 114.451 19.7508 113.784 19.956 113.169C20.2124 112.554 20.3149 112.092 20.4175 111.887C20.5201 111.579 20.6226 111.271 20.7252 111.015C20.9303 110.656 21.1867 110.246 21.5457 109.836C21.1355 109.323 20.9303 108.656 20.9303 107.836C20.9303 107.271 20.9303 106.759 21.0329 106.451C21.0329 104.605 21.9047 101.989 23.7508 98.5535L25.5457 95.3227C27.0329 92.5535 28.1611 90.5022 28.9816 88.451C29.8534 86.3997 30.7765 83.3227 31.8021 79.2202C32.6226 75.6304 34.5714 72.0407 37.6483 68.451L41.4944 63.8356C44.1611 60.7586 45.9047 58.1945 46.8791 56.1433C47.8534 54.092 48.3662 51.5279 48.3662 49.4766C48.3662 48.451 48.1098 45.374 47.5457 40.2458C47.0329 35.1176 46.7765 29.9894 46.7765 25.374C46.7765 21.7843 47.0842 19.2202 47.7509 16.6561C48.4175 14.092 49.597 11.5279 51.3406 9.4766C52.8791 7.42532 54.9303 5.37404 58.0073 4.3484C61.0842 3.32276 64.6739 2.80994 68.7765 2.80994C70.3149 2.80994 71.8534 2.80994 73.3919 3.32276C74.9303 3.32276 76.9816 3.83558 79.5457 4.86122C81.597 5.88686 83.6483 6.9125 85.1867 8.45096C87.238 9.98942 88.7765 12.5535 90.3149 15.1176C91.3406 18.1945 92.3662 21.2715 92.8791 25.374C93.3919 27.9381 93.3919 30.5022 93.9047 34.092C93.9047 37.1689 94.4175 39.2202 94.4175 40.7586C94.9303 42.2971 94.9303 44.3484 95.4432 46.9125C95.956 48.9638 96.4688 51.0151 97.4944 52.5535C98.5201 54.6048 99.5457 56.6561 101.084 58.7074C102.623 61.2715 104.674 63.8356 106.725 66.9125C111.341 72.0407 114.93 77.6817 116.982 83.3227C119.546 88.451 121.084 95.1176 121.084 102.246C121.084 105.784 120.571 109.22 119.546 112.554C120.571 112.554 121.084 112.964 121.597 113.682C122.11 114.4 122.623 115.938 123.135 118.348L123.648 122.143C124.161 123.271 124.674 124.348 126.212 125.271C127.238 126.195 128.264 126.964 129.802 127.579C130.828 128.092 132.366 128.81 133.392 129.733C134.418 130.759 134.93 131.836 134.93 132.964C134.93 134.707 134.418 135.989 133.392 136.912C132.366 137.938 131.341 138.656 129.802 139.118C128.776 139.63 126.725 140.656 123.648 142.102C121.084 143.62 118.52 145.461 115.956 147.641L110.828 152.005C108.776 154.005 106.725 155.441 105.187 156.312C103.648 157.236 101.597 157.697 99.5457 157.697L95.956 157.287C91.8534 156.21 89.2893 154.159 87.7508 151.03C79.5457 150.036 72.8791 149.543 68.7765 149.543" fill="#381FD2"/>
</svg>
