<svg width="161" height="160" viewBox="0 0 161 160" fill="none" xmlns="http://www.w3.org/2000/svg">
<path d="M109.898 42.7688C97.2981 42.7688 91.9731 48.7813 83.1981 48.7813C74.2012 48.7813 67.3387 42.8125 56.42 42.8125C45.7325 42.8125 34.3356 49.3376 27.0981 60.4532C16.9356 76.1282 18.6606 105.65 35.12 130.8C41.0075 139.803 48.87 149.9 59.1825 150.009H59.37C68.3325 150.009 70.995 144.141 83.3294 144.072H83.5169C95.6669 144.072 98.1044 149.975 107.029 149.975H107.217C117.529 149.866 125.814 138.678 131.701 129.709C135.939 123.259 137.514 120.022 140.764 112.725C116.954 103.688 113.129 69.9344 136.676 56.9938C129.489 47.9938 119.389 42.7813 109.867 42.7813L109.898 42.7688Z" fill="#381FD2"/>
<path d="M107.123 10C99.623 10.5094 90.873 15.2844 85.748 21.5188C81.098 27.1688 77.273 35.55 78.773 43.6781H79.373C87.3605 43.6781 95.5355 38.8688 100.31 32.7063C104.91 26.8406 108.398 18.5281 107.123 10Z" fill="#381FD2"/>
</svg>
