<svg width="24" height="24" viewBox="0 0 24 24" fill="none" xmlns="http://www.w3.org/2000/svg">
<path d="M18.479 24.0002H6.08861C5.96242 24.0003 5.83744 23.9756 5.72084 23.9273C5.60423 23.8791 5.49829 23.8083 5.40906 23.7191C5.31982 23.6298 5.24906 23.5239 5.20082 23.4073C5.15257 23.2907 5.12779 23.1657 5.12789 23.0395V13.8718C5.12789 13.3408 5.55762 12.9073 6.08861 12.9073H7.25257V11.4269C7.25257 8.65347 9.51 6.39605 12.2834 6.39605C15.0568 6.39605 17.3143 8.65347 17.3143 11.4269V12.9073H18.4782C19.0092 12.9073 19.4389 13.3408 19.4389 13.8718V23.0395C19.439 23.1657 19.4143 23.2907 19.366 23.4073C19.3178 23.5239 19.247 23.6298 19.1578 23.7191C19.0685 23.8083 18.9626 23.8791 18.846 23.9273C18.7294 23.9756 18.6044 24.0003 18.4782 24.0002H18.479ZM12.9134 18.9304C14.0541 18.2862 13.5966 16.544 12.2842 16.544C10.9755 16.5477 10.5187 18.2824 11.6549 18.9304V20.1724C11.6549 21.0086 12.9126 21.0086 12.9126 20.1724L12.9134 18.9304ZM10.14 12.9066H14.4328V11.4261C14.4328 10.2427 13.4684 9.28195 12.2842 9.28195C11.0999 9.28195 10.14 10.2427 10.14 11.4261V12.9066ZM4.83165 11.5439H1.84374C1.35551 11.5439 0.964767 11.1494 0.964767 10.6649C0.964767 10.1804 1.35551 9.78594 1.84374 9.78594H4.83165C5.31613 9.78594 5.71062 10.1804 5.71062 10.6649C5.71062 11.1494 5.31613 11.5439 4.83165 11.5439ZM6.93683 6.84078C6.73356 6.84116 6.5368 6.76911 6.38185 6.63754L4.01492 4.6921C3.92592 4.61891 3.85226 4.52885 3.79818 4.42709C3.7441 4.32534 3.71066 4.21391 3.69979 4.09919C3.68892 3.98447 3.70083 3.86874 3.73483 3.75864C3.76883 3.64854 3.82426 3.54624 3.89793 3.45764C3.97085 3.36836 4.06071 3.29438 4.16232 3.23996C4.26394 3.18554 4.37532 3.15175 4.49004 3.14053C4.60477 3.1293 4.72058 3.14087 4.83082 3.17457C4.94106 3.20827 5.04355 3.26344 5.13239 3.33689L7.49931 5.28233C8.13604 5.80581 7.76105 6.84078 6.93683 6.83703V6.84078ZM12.2842 4.7701C12.0512 4.7697 11.8278 4.67697 11.6631 4.51221C11.4983 4.34746 11.4056 4.12412 11.4052 3.89112V0.879217C11.4052 0.394732 11.7997 0.000244141 12.2842 0.000244141C12.7686 0.000244141 13.1631 0.394732 13.1631 0.879217V3.89112C13.1631 4.37561 12.7686 4.7701 12.2842 4.7701ZM17.6315 6.84078C16.8035 6.84078 16.4323 5.80581 17.069 5.28233L19.4359 3.33689C20.3419 2.59441 21.4556 3.95037 20.5534 4.6966L18.1865 6.64204C18.0304 6.77112 17.8341 6.84168 17.6315 6.84153V6.84078ZM22.7253 11.5439H19.7097C19.2214 11.5439 18.8307 11.1494 18.8307 10.6649C18.8307 10.1804 19.2214 9.78594 19.7097 9.78594H22.7253C23.2136 9.78594 23.6043 10.1804 23.6043 10.6649C23.6043 11.1494 23.2136 11.5439 22.7253 11.5439Z" fill="#FD6F6B"/>
</svg>
