<svg width="27" height="24" viewBox="0 0 27 24" fill="none" xmlns="http://www.w3.org/2000/svg">
<path d="M24.9543 0.434072C24.7043 -0.123939 23.99 -0.146259 23.6909 0.380503C22.3071 2.78665 19.8295 4.28658 16.9993 4.28658H13.428C8.69605 4.28658 4.85693 8.1257 4.85693 12.8576C4.85693 13.1701 4.89264 13.4692 4.92389 13.7728C7.77198 11.7327 11.8834 10.0006 17.7135 10.0006C18.1063 10.0006 18.4278 10.322 18.4278 10.7149C18.4278 11.1077 18.1063 11.4291 17.7135 11.4291C6.49079 11.4291 1.73207 18.3083 0.678543 20.893C0.383913 21.6206 0.732112 22.451 1.45976 22.7501C2.19187 23.0536 3.02219 22.701 3.32575 21.9778C3.39271 21.8171 4.25874 19.8395 6.53543 17.9333C7.98179 19.893 10.7317 21.7635 14.3431 21.3796C21.3517 20.8707 26.2846 14.5852 26.2846 6.88915C26.2846 4.64817 25.8024 2.32685 24.9543 0.434072Z" fill="#99D7CC"/>
</svg>
