<svg width="22" height="24" viewBox="0 0 22 24" fill="none" xmlns="http://www.w3.org/2000/svg">
<path d="M21.2845 3.75098V6.00098C21.2845 8.07285 16.583 9.75098 10.7845 9.75098C4.98611 9.75098 0.284546 8.07285 0.284546 6.00098V3.75098C0.284546 1.68004 4.98611 0.000976562 10.7845 0.000976562C16.583 0.000976562 21.2845 1.68004 21.2845 3.75098ZM18.7158 10.065C19.6486 9.71816 20.5861 9.27285 21.2845 8.72441V13.501C21.2845 15.5729 16.583 17.251 10.7845 17.251C4.98611 17.251 0.284546 15.5729 0.284546 13.501V8.72441C0.98439 9.27285 1.87923 9.71816 2.85564 10.065C4.95611 10.815 7.76111 11.251 10.7845 11.251C13.808 11.251 16.6111 10.815 18.7158 10.065ZM2.85564 17.565C4.95611 18.315 7.76111 18.751 10.7845 18.751C13.808 18.751 16.6111 18.315 18.7158 17.565C19.6486 17.2182 20.5861 16.7729 21.2845 16.2244V20.251C21.2845 22.3229 16.583 24.001 10.7845 24.001C4.98611 24.001 0.284546 22.3229 0.284546 20.251V16.2244C0.98439 16.7729 1.87923 17.2182 2.85564 17.565Z" fill="#FEDB63"/>
</svg>
