<?xml version="1.0" encoding="UTF-8"?><svg xmlns="http://www.w3.org/2000/svg" viewBox="0 0 780.06 780.06"><defs><style>.h{fill:#f1ebe5;}</style></defs><g id="a"><g id="b"><path class="h" d="M659.16,120.9c111.47,111.47,139.35,274.9,83.62,412.35-18.58,45.81-46.45,88.75-83.62,125.91-24.47,24.47-51.45,44.92-80.1,61.34-10.95,6.27-22.15,11.95-33.54,17.04,4.68-14.06,7.04-28.48,7.05-43.02v-.11c.58-71.4-54.99-118.45-88.15-140.15-18.22-11.92-38.07-21.88-59.02-29.62l-.24-.1c-3.54-1.29-7.3-2.6-11.2-3.87l-1.9-.65c-2.39-.82-4.72-1.65-7.01-2.52-11.6-4.33-22.41-9.25-32.41-14.66-50.92-27.59-80.37-68.19-80.38-112.82,0-44.63,29.47-85.24,80.35-112.81-1.6-.67-3.16-1.33-4.72-2.01-1.99-.85-3.95-1.72-5.86-2.61-1.09-.48-2.17-.99-3.23-1.48-1.48-.69-2.93-1.37-4.35-2.08-1.49-.71-2.98-1.42-4.46-2.15-1.5-.73-2.97-1.48-4.44-2.25-1.48-.75-2.95-1.52-4.42-2.32-1.62-.87-3.22-1.75-4.81-2.65-1.29-.71-2.57-1.44-3.85-2.18-.04-.02-.08-.05-.12-.09-1.07-.63-2.16-1.26-3.22-1.9-.49-.28-.96-.56-1.44-.85-11.12,7.71-21.2,16.09-30.14,25.02-31.65,31.65-49.13,70.22-49.13,110.35,0,53.86,31.5,104.94,86.45,140.16,9.9,6.38,20.62,12.25,31.84,17.45l.25,.12c11.68,5.7,24.84,11.09,39.13,16.02l1.8,.65c2.99,1.11,5.34,2.02,7.5,2.88,.99,.4,1.99,.8,2.98,1.21,9.77,4.01,19,8.4,27.67,13.12,36.44,19.87,62.72,45.69,75.32,74.55,10.66,24.39,10.83,49.37,.52,74.3-3.14,7.57-1.77,16.21,3.48,22.37-9.48,3.02-19.06,5.64-28.72,7.88-56.9,13.23-116.25,13.23-173.14,0-9.65-2.25-19.23-4.88-28.72-7.88,5.23-6.14,6.61-14.77,3.46-22.34-10.34-24.91-10.18-49.9,.48-74.32,12.53-28.69,38.55-54.38,74.71-74.21-1.65-.67-3.29-1.36-4.91-2.07-1.41-.61-2.81-1.23-4.2-1.84-3.36-1.5-6.62-3.01-9.78-4.56-1.28-.59-2.55-1.19-3.82-1.81-.6-.28-1.19-.56-1.77-.86-1.2-.58-2.38-1.16-3.58-1.78-1.08-.54-2.14-1.08-3.2-1.64-2.15-1.11-4.26-2.24-6.34-3.4-1.28-.68-2.52-1.38-3.74-2.09-1.14-.64-2.27-1.29-3.38-1.96-.4-.22-.79-.46-1.18-.7-10.42,7.4-20.04,15.53-28.76,24.25-12.05,12.05-22.34,25.21-30.5,39.13-21.84,37.26-26.7,77.64-14.06,114.76-11.43-5.12-22.65-10.83-33.63-17.14h0c-28.49-16.38-55.32-36.74-79.66-61.08-148.63-148.63-148.63-389.63,0-538.27,24.46-24.46,51.41-44.88,80.05-61.29,10.95-6.28,22.14-11.97,33.54-17.06-4.66,14.03-7.02,28.41-7.02,42.92-.32,32.62,12.09,65.18,35.89,94.26,13.79,16.82,31.74,32.7,51.92,45.91,10.05,6.58,20.63,12.49,31.42,17.55l.19,.1c8.48,4.15,17.84,8.17,27.86,11.96l6.3,2.4,6.98,2.41c2.34,.8,4.67,1.64,6.97,2.49,11.6,4.35,22.42,9.25,32.41,14.66,50.92,27.57,80.36,68.17,80.36,112.81,0,44.54-29.34,85.09-80.08,112.67,1.07,.44,2.11,.87,3.15,1.32,2.8,1.21,5.57,2.43,8.33,3.71,.95,.43,1.89,.88,2.83,1.32,1.9,.89,3.76,1.8,5.62,2.73,.74,.35,1.44,.72,2.17,1.08,1.36,.69,2.73,1.4,4.06,2.1,.99,.5,1.97,1.04,2.97,1.57,1.32,.71,2.65,1.43,3.97,2.16,.19,.11,.38,.22,.58,.32,2.44,1.36,4.84,2.76,7.24,4.19,1.15,.68,2.29,1.36,3.44,2.06,22.64-15.57,40.87-33.41,54.24-53.15,9.45-13.94,16.36-28.74,20.61-44.01,4.24-15.26,5.83-31.01,4.64-46.76-2.64-35.04-18.56-68.95-46.02-98.08-11.59-12.31-25.17-23.6-40.37-33.58h0c-21.27-13.99-45.47-25.33-71.96-33.7l-1.03-.37c-2.81-1.03-5.27-1.96-7.55-2.89l-4.23-1.71c-9.29-3.87-18.07-8.06-26.33-12.57-36.42-19.86-62.7-45.65-75.32-74.48-10.69-24.39-10.88-49.36-.6-74.25,3.22-7.79,1.88-16.1-3.56-22.41,9.51-3.03,19.12-5.66,28.8-7.91,56.9-13.25,116.26-13.26,173.17-.03,9.65,2.24,19.23,4.86,28.72,7.87-5.21,6.16-6.58,14.76-3.45,22.31,10.34,24.88,10.18,49.89-.47,74.32-12.49,28.56-38.33,54.15-74.23,73.94,.45,.18,.89,.36,1.35,.55,1.57,.64,3.12,1.29,4.68,1.95,.32,.14,.65,.28,.97,.43,1.44,.61,2.88,1.24,4.31,1.9,3.69,1.65,7.32,3.36,10.9,5.14,1.18,.57,2.36,1.15,3.5,1.74l.76,.39c1.37,.71,2.73,1.42,4.09,2.15,.2,.1,.4,.21,.59,.31,1.52,.81,3.02,1.64,4.51,2.46,1.54,.85,3.06,1.73,4.58,2.61,0,0,.04,.02,.05,.03,1.53,.89,3.06,1.8,4.56,2.72,.26,.14,.51,.3,.76,.46,24.72-17.59,45.04-39.29,59.04-63.21,21.82-37.25,26.7-77.61,14.09-114.73,11.42,5.12,22.63,10.83,33.6,17.13,28.51,16.38,55.35,36.74,79.71,61.11Z"/></g></g><g id="c"/><g id="d"/><g id="e"/><g id="f"/><g id="g"/></svg>