<?xml version="1.0" encoding="UTF-8"?><svg xmlns="http://www.w3.org/2000/svg" viewBox="0 0 780.06 780.06"><defs><style>.h{fill:#1d1a2d;}</style></defs><g id="a"/><g id="b"/><g id="c"/><g id="d"/><g id="e"/><g id="f"><g id="g"><path class="h" d="M390.02,760.64c-28.36,0-56.72-3.25-84.29-9.66-5.63-1.32-11.25-2.76-16.8-4.33,1.66-6.5,1.21-13.5-1.48-19.99-9.26-22.29-9.12-44.65,.41-66.49,11.59-26.54,35.91-50.55,70.35-69.44l18.41-10.1-19.44-7.93c-1.58-.64-3.14-1.3-4.69-1.98-1.41-.61-2.78-1.21-4.13-1.81-3.53-1.57-6.61-3.01-9.42-4.4l-.22-.11c-1.21-.56-2.4-1.11-3.59-1.7l-.2-.1c-.5-.23-.99-.47-1.48-.72l-.2-.1c-1.11-.54-2.21-1.08-3.31-1.65l-.14-.07c-1-.5-1.98-1-2.96-1.52l-.11-.06c-2.07-1.07-4.1-2.15-6.03-3.23l-.17-.09c-1.11-.59-2.23-1.22-3.43-1.92l-.12-.07c-1.07-.6-2.12-1.21-3.17-1.83l-.24-.14c-.26-.15-.51-.3-.76-.45l-5.66-3.54-5.44,3.86c-10.78,7.66-20.89,16.19-30.04,25.33-12.73,12.73-23.51,26.57-32.05,41.14-19.05,32.52-26.02,67.85-20.34,101.51-4.37-2.27-8.68-4.62-12.92-7.04l-.83-.48c-28.22-16.21-54.32-36.22-77.57-59.47-35.38-35.38-62.77-76.63-81.41-122.59-18.01-44.4-27.14-91.33-27.14-139.47,0-48.14,9.13-95.06,27.14-139.47,18.64-45.97,46.03-87.22,81.42-122.6,23.35-23.35,49.58-43.43,77.95-59.68,4.5-2.58,9.06-5.07,13.68-7.46-1.42,8.16-2.13,16.39-2.14,24.63-.34,34.86,12.85,69.68,38.16,100.6,14.45,17.62,33.19,34.2,54.19,47.94,10.36,6.79,21.3,12.9,32.53,18.18l.08,.04c8.86,4.33,18.52,8.48,28.79,12.37l6.42,2.45,7.13,2.46c2.22,.76,4.48,1.57,6.74,2.41,11.04,4.14,21.53,8.88,31.15,14.08,24.1,13.05,42.9,28.87,55.9,47.03,12.75,17.81,19.22,36.99,19.22,56.98s-6.44,39.09-19.15,56.88c-12.95,18.14-31.69,33.95-55.7,47l-18.42,10.01,19.38,8.01c1.02,.42,2.02,.84,3.02,1.27,2.4,1.04,5.25,2.28,8.07,3.6,.77,.35,1.49,.69,2.2,1.03l.59,.28c1.6,.75,3.26,1.56,5.4,2.63l.16,.08c.39,.18,.76,.37,1.14,.56l.92,.46c1.22,.62,2.53,1.29,3.8,1.97l.21,.11c.6,.3,1.19,.62,1.79,.94l.95,.51c1.22,.66,2.48,1.34,3.75,2.04,.24,.14,.47,.27,.72,.4,2.25,1.26,4.56,2.6,6.88,3.99,1.14,.68,2.26,1.34,3.38,2.02l5.53,3.36,5.33-3.67c23.68-16.28,42.81-35.05,56.85-55.78,10.02-14.78,17.41-30.58,21.96-46.94,4.58-16.46,6.25-33.34,4.98-50.19-2.81-37.34-19.66-73.37-48.72-104.19-11.88-12.62-25.78-24.24-41.32-34.54l-.83-.55c-22-14.47-46.98-26.18-74.26-34.82l-.85-.3c-2.99-1.1-5.21-1.95-7.14-2.74l-4.21-1.7c-8.9-3.71-17.42-7.78-25.34-12.1-34.75-18.94-59.28-43.05-70.95-69.71-9.55-21.79-9.73-44.13-.52-66.42,2.74-6.63,3.2-13.6,1.5-20.08,5.53-1.56,11.13-3.01,16.76-4.32,27.61-6.43,56-9.69,84.39-9.69s56.69,3.25,84.24,9.65c5.62,1.3,11.24,2.75,16.82,4.32-1.65,6.49-1.21,13.47,1.47,19.94,9.26,22.29,9.13,44.66-.39,66.5-11.55,26.41-35.72,50.34-69.9,69.18l-18.65,10.29,19.83,7.78c.24,.09,1.26,.51,1.26,.51,1.46,.6,2.94,1.22,4.42,1.84,.17,.07,1.07,.47,1.07,.47,1.33,.56,2.68,1.16,4.01,1.77l.09,.04c3.67,1.64,7.21,3.31,10.53,4.97l.11,.06c1.11,.54,2.22,1.09,3.3,1.64l1.22,.63c1.15,.6,2.3,1.19,3.44,1.81l.61,.33c1.47,.79,2.92,1.59,4.38,2.39,1.2,.66,2.38,1.34,3.55,2.02l.89,.52c1.46,.85,2.92,1.71,4.35,2.59l.16,.1,.16,.09c.12,.07,.24,.15,.37,.23l5.66,3.54,5.44-3.87c25.84-18.38,47.24-41.31,61.88-66.31,19.04-32.5,26.01-67.83,20.36-101.48,4.63,2.4,9.21,4.91,13.72,7.5,28.26,16.24,54.38,36.26,77.62,59.51,52.51,52.51,87.7,118.65,101.76,191.27,13.72,70.88,6.69,143.59-20.34,210.26-18.64,45.96-46.03,87.21-81.42,122.59-23.37,23.37-49.62,43.47-78,59.73-4.49,2.57-9.05,5.06-13.68,7.45,1.43-8.19,2.15-16.46,2.15-24.75v-.12c.62-76.05-57.8-125.7-92.68-148.52-18.83-12.32-39.32-22.61-60.91-30.59l-.4-.15c-3.79-1.38-7.65-2.72-11.46-3.96l-1.84-.63c-2.35-.8-4.54-1.59-6.71-2.41-11.01-4.11-21.49-8.85-31.19-14.1-24.1-13.05-42.91-28.88-55.91-47.05-12.75-17.82-19.22-36.99-19.23-56.98,0-19.99,6.47-39.16,19.23-56.98,13-18.16,31.8-33.98,55.89-47.04l18.39-9.97-19.31-8.05c-1.55-.65-3.06-1.29-4.58-1.95-1.95-.83-3.83-1.67-5.66-2.52l-.16-.07c-.66-.29-1.32-.6-1.97-.9l-1.13-.52c-1.35-.63-2.73-1.28-4.1-1.95l-.15-.07c-1.45-.68-2.88-1.38-4.32-2.08-1.33-.65-2.7-1.34-4.23-2.14l-.13-.07c-1.21-.61-2.52-1.3-4.15-2.18-1.59-.85-3.13-1.7-4.65-2.56-.94-.52-1.83-1.02-2.71-1.53l-.02-.02-1.13-.66c-1.02-.6-2.06-1.2-3.07-1.81l-.2-.12c-.43-.25-.85-.5-1.28-.75l-5.53-3.32-5.3,3.67c-11.54,8-22.15,16.8-31.51,26.17-33.57,33.57-52.06,75.27-52.06,117.42,0,57.33,33.19,111.49,91.05,148.58,10.24,6.59,21.34,12.68,32.96,18.07l.18,.09c12.01,5.86,25.54,11.4,40.16,16.45l1.68,.6c2.75,1.02,5.05,1.91,7.25,2.78,.95,.38,1.9,.77,2.84,1.16,9.35,3.84,18.33,8.09,26.72,12.66,34.76,18.95,59.29,43.08,70.93,69.77,9.53,21.8,9.68,44.16,.45,66.47-2.7,6.5-3.14,13.5-1.47,20.02-5.54,1.57-11.16,3.01-16.79,4.32-27.58,6.41-55.95,9.66-84.32,9.67Z"/><path class="h" d="M390.04,29.42c27.59,0,55.17,3.16,81.99,9.4,2.7,.63,5.41,1.29,8.11,1.98-.04,5.51,1.01,11.07,3.21,16.38,8.29,19.95,8.18,39.14-.32,58.64-10.66,24.38-33.33,46.67-65.57,64.44l-25.26,13.93h-.01l-.04-.02h-.04l-4.13-1.68c-8.55-3.56-16.74-7.47-24.35-11.63-32.78-17.87-55.8-40.32-66.57-64.95-8.53-19.47-8.67-38.63-.44-58.58,2.21-5.35,3.27-10.96,3.2-16.5,2.68-.69,5.38-1.35,8.09-1.98,26.86-6.25,54.49-9.42,82.13-9.42m-182.43,49.45c-.09,2.16-.14,4.32-.14,6.49-.34,37.3,13.63,74.31,40.43,107.04,13.43,16.38,30.37,31.87,49.33,45.15l-.94,.65c-12.03,8.34-23.1,17.53-32.89,27.32-35.46,35.46-54.99,79.67-54.99,124.49,0,58.39,32.15,113.48,88.5,152.25l-.98,.69c-11.24,7.99-21.78,16.87-31.31,26.41-13.33,13.33-24.64,27.85-33.61,43.16-16.61,28.34-24.56,58.74-23.56,88.59-26.28-15.45-50.62-34.3-72.4-56.09-34.43-34.43-61.08-74.56-79.21-119.28-17.52-43.2-26.4-88.86-26.4-135.71,0-46.85,8.88-92.5,26.41-135.71,18.14-44.72,44.79-84.85,79.22-119.29,21.82-21.82,46.21-40.7,72.57-56.17m364.97,.06c26.31,15.47,50.67,34.34,72.44,56.11,51.1,51.1,85.34,115.45,99.02,186.1,6.6,34.07,8.26,68.88,4.95,103.47-3.33,34.82-11.66,68.85-24.75,101.13-18.14,44.72-44.79,84.85-79.22,119.28-21.84,21.84-46.25,40.74-72.61,56.21,.1-2.24,.15-4.48,.15-6.72v-.03c.58-75.78-53.2-126.39-90.06-152.14l.89-.61c24.71-16.99,44.72-36.64,59.47-58.41,10.63-15.68,18.48-32.46,23.32-49.87,4.88-17.57,6.67-35.61,5.32-53.62-2.99-39.65-20.76-77.79-51.4-110.29-10.82-11.49-23.22-22.17-36.93-31.82l1.15-.82c26.98-19.19,49.36-43.19,64.71-69.4,16.6-28.33,24.55-58.73,23.56-88.57m-185.14,202.13c.18,.07,.36,.14,.55,.2,10.63,3.98,20.69,8.53,29.91,13.52,22.75,12.32,40.43,27.14,52.53,44.06,11.51,16.08,17.35,33.3,17.35,51.16s-5.82,35.01-17.29,51.07c-12.06,16.89-29.67,31.7-52.34,44.03l-25.53,13.88c-.17-.06-.34-.13-.52-.19h-.04l-.04-.03c-10.55-3.94-20.6-8.48-29.88-13.51-22.75-12.33-40.43-27.16-52.54-44.08-11.52-16.09-17.36-33.3-17.36-51.16,0-17.86,5.84-35.07,17.36-51.16,12.11-16.91,29.78-31.74,52.52-44.07l25.31-13.72m.48,304.79c.92,.37,1.85,.74,2.76,1.12h.03l.03,.03c8.98,3.69,17.63,7.79,25.69,12.18,32.79,17.88,55.81,40.36,66.56,65,8.51,19.48,8.63,38.66,.38,58.62-2.22,5.34-3.27,10.93-3.22,16.47-2.68,.69-5.38,1.35-8.07,1.98-26.84,6.24-54.45,9.4-82.06,9.4s-55.2-3.16-82.01-9.39c-2.71-.63-5.41-1.3-8.11-1.99,.05-5.52-1.01-11.1-3.22-16.43-8.29-19.95-8.18-39.14,.34-58.65,10.69-24.5,33.51-46.86,65.99-64.68l24.9-13.66m2.12-576.43c-29.09,0-58.19,3.32-86.66,9.95-9.68,2.25-19.29,4.88-28.8,7.91,5.44,6.3,6.78,14.61,3.56,22.41-10.28,24.89-10.09,49.86,.6,74.25,12.61,28.83,38.89,54.63,75.32,74.48,8.27,4.51,17.05,8.71,26.33,12.57l4.23,1.71c2.28,.93,4.73,1.86,7.55,2.9l1.03,.37c26.49,8.37,50.7,19.71,71.96,33.7h0c15.2,9.99,28.78,21.28,40.37,33.59,27.47,29.13,43.38,63.05,46.02,98.08,1.19,15.75-.4,31.5-4.64,46.76-4.25,15.27-11.16,30.07-20.61,44.01-13.38,19.74-31.6,37.59-54.24,53.15-1.15-.7-2.29-1.38-3.44-2.06-2.4-1.44-4.8-2.83-7.24-4.19-.2-.1-.38-.21-.58-.32-1.32-.73-2.65-1.44-3.97-2.16-.99-.53-1.97-1.07-2.97-1.57-1.33-.71-2.69-1.41-4.06-2.1-.73-.36-1.44-.73-2.17-1.08-1.86-.93-3.72-1.84-5.62-2.73-.94-.44-1.88-.89-2.83-1.32-2.76-1.28-5.53-2.5-8.33-3.71-1.04-.45-2.08-.88-3.15-1.32,50.74-27.58,80.08-68.13,80.08-112.67s-29.44-85.24-80.36-112.81c-9.99-5.4-20.82-10.31-32.41-14.66-2.3-.86-4.63-1.69-6.97-2.49l-6.98-2.41-6.3-2.4c-10.02-3.79-19.38-7.82-27.86-11.96l-.19-.1c-10.79-5.06-21.37-10.96-31.42-17.55-20.18-13.21-38.13-29.09-51.92-45.91-23.8-29.08-36.21-61.64-35.89-94.26,0-14.51,2.37-28.89,7.02-42.92-11.4,5.09-22.59,10.79-33.54,17.06-28.64,16.41-55.6,36.83-80.05,61.29-148.64,148.64-148.64,389.63,0,538.27,24.35,24.35,51.17,44.71,79.66,61.07h0c10.98,6.32,22.2,12.03,33.63,17.15-12.65-37.12-7.78-77.5,14.06-114.76,8.16-13.91,18.44-27.07,30.5-39.13,8.72-8.72,18.34-16.85,28.76-24.25,.39,.24,.78,.47,1.18,.7,1.11,.67,2.25,1.32,3.38,1.96,1.23,.71,2.47,1.41,3.74,2.09,2.08,1.16,4.19,2.29,6.34,3.4,1.06,.56,2.12,1.11,3.2,1.64,1.19,.62,2.37,1.2,3.58,1.78,.59,.3,1.17,.58,1.77,.86,1.27,.63,2.53,1.22,3.82,1.81,3.16,1.56,6.42,3.06,9.78,4.56,1.39,.62,2.79,1.24,4.2,1.84,1.62,.71,3.26,1.4,4.91,2.07-36.16,19.83-62.18,45.52-74.71,74.21-10.66,24.42-10.83,49.41-.48,74.32,3.14,7.57,1.76,16.2-3.46,22.34,9.49,3.01,19.07,5.63,28.72,7.88,28.44,6.61,57.5,9.92,86.55,9.92s58.13-3.31,86.59-9.92c9.66-2.25,19.24-4.87,28.72-7.88-5.25-6.17-6.62-14.8-3.48-22.37,10.31-24.92,10.14-49.91-.52-74.3-12.6-28.86-38.88-54.67-75.32-74.55-8.67-4.72-17.9-9.11-27.67-13.12-.99-.41-1.98-.81-2.97-1.21-2.16-.86-4.51-1.76-7.5-2.88l-1.8-.65c-14.3-4.93-27.45-10.32-39.13-16.02l-.25-.12c-11.22-5.2-21.93-11.07-31.84-17.45-54.95-35.22-86.45-86.3-86.45-140.16,0-40.13,17.48-78.7,49.13-110.35,8.93-8.93,19.01-17.31,30.14-25.02,.48,.29,.95,.57,1.44,.85,1.06,.64,2.14,1.28,3.22,1.9,.04,.04,.08,.06,.12,.09,1.28,.74,2.56,1.47,3.85,2.18,1.59,.9,3.19,1.78,4.81,2.65,1.47,.79,2.94,1.57,4.42,2.32,1.48,.77,2.94,1.52,4.44,2.25,1.48,.73,2.97,1.44,4.46,2.15,1.43,.71,2.88,1.39,4.35,2.08,1.07,.49,2.14,1,3.23,1.48,1.91,.88,3.87,1.76,5.86,2.61,1.56,.68,3.13,1.35,4.72,2.01-50.88,27.58-80.35,68.18-80.35,112.81,0,44.63,29.45,85.24,80.38,112.82,10,5.41,20.82,10.33,32.41,14.66,2.29,.87,4.62,1.7,7.01,2.52l1.9,.65c3.91,1.28,7.67,2.58,11.2,3.87l.24,.1c20.95,7.74,40.8,17.71,59.02,29.62,33.17,21.7,88.73,68.75,88.15,140.15v.11c0,14.54-2.37,28.97-7.05,43.02,11.39-5.09,22.59-10.77,33.54-17.04,28.65-16.42,55.63-36.86,80.1-61.34,37.16-37.16,65.04-80.1,83.62-125.91,55.73-137.45,27.86-300.88-83.62-412.35-24.36-24.36-51.2-44.72-79.71-61.11-10.97-6.3-22.18-12.01-33.6-17.13,12.61,37.12,7.73,77.48-14.09,114.73-14.01,23.92-34.32,45.63-59.04,63.21-.26-.16-.51-.31-.76-.46-1.5-.92-3.03-1.83-4.56-2.72,0,0-.04-.02-.05-.03-1.52-.87-3.04-1.76-4.58-2.61-1.5-.83-3-1.65-4.51-2.46-.18-.1-.38-.21-.59-.31-1.36-.73-2.72-1.44-4.09-2.15l-.76-.39c-1.15-.59-2.33-1.17-3.5-1.74-3.58-1.78-7.21-3.49-10.9-5.14-1.43-.66-2.86-1.29-4.31-1.9-.32-.14-.65-.28-.97-.43-1.56-.66-3.1-1.31-4.68-1.95-.46-.18-.9-.37-1.35-.55,35.9-19.8,61.75-45.39,74.23-73.94,10.65-24.43,10.8-49.44,.47-74.32-3.13-7.55-1.76-16.15,3.45-22.31-9.49-3.01-19.07-5.63-28.72-7.87-28.43-6.61-57.46-9.91-86.5-9.91h0Z"/></g></g></svg>