<svg width="400" height="339" viewBox="0 0 400 339" fill="none" xmlns="http://www.w3.org/2000/svg">
<path fill-rule="evenodd" clip-rule="evenodd" d="M353.055 260.691C352.174 255.713 351.366 250.721 350.632 245.718C350.283 243.343 349.943 240.966 349.637 238.585C349.423 236.917 349.097 235.009 350.232 233.774C351.829 232.035 353.279 230.546 353.475 228.055C353.659 225.711 352.866 223.156 352.371 220.881C351.332 216.11 350.038 211.398 348.609 206.731C347.157 201.989 345.565 197.291 343.95 192.603C342.44 188.219 340.989 183.796 339.022 179.59C335.29 171.609 328.976 165.698 321.172 161.752C319.231 160.77 315.273 157.266 313.245 156.482C311.381 155.761 311.388 157.867 309.553 157.073C308.086 156.439 306.721 155.593 305.9 154.177C305.008 152.639 302.772 150.488 302.432 148.698C301.711 144.903 302.492 141.673 299.784 138.817C297.381 136.281 294.15 134.543 290.807 133.611C283.453 131.559 273.645 132.993 269.208 139.829C267.089 143.093 266.349 147.039 263.489 149.703C260.992 152.029 261.551 153.619 258.317 154.818C258.134 154.886 253.169 153.821 252.986 153.889C249.448 153.132 246.066 155.252 242.82 156.482C237.981 158.316 233.374 160.702 229.046 163.539C220.318 169.259 212.843 176.687 206.681 185.092C200.467 193.566 195.646 203.065 192.213 212.992C191.379 215.403 190.631 217.844 189.97 220.309C189.6 221.688 189.205 223.119 189.655 224.531C190.024 225.686 190.843 226.546 191.804 227.239C193.108 228.179 195.723 228.79 195.672 230.68C195.633 232.117 195.146 233.629 194.908 235.049C194.625 236.74 194.392 238.441 194.16 240.139C193.102 247.87 192.278 255.645 191.914 263.441C191.555 271.118 191.258 278.951 191.79 286.626C191.825 287.132 191.976 287.596 192.219 287.989C191.992 288.076 191.975 288.499 192.257 288.559C192.456 288.601 192.653 288.643 192.851 288.685C193.263 288.997 193.776 289.188 194.366 289.206C194.767 289.219 195.167 289.237 195.567 289.258C199.787 290.14 204.006 290.973 208.281 291.604C213.477 292.372 218.689 292.997 223.917 293.506C234.66 294.55 245.318 294.204 256.075 293.641C266.815 293.078 277.549 292.947 288.3 293.227C299.061 293.507 309.818 293.975 320.581 294.166C332.606 294.38 344.612 294.052 356.602 293.096C358.246 292.965 359.263 291.656 358.939 290.023C356.996 280.238 354.795 270.518 353.055 260.691Z" fill="#EDB98A"/>
<path fill-rule="evenodd" clip-rule="evenodd" d="M242.821 156.482L243.055 156.391C246.229 155.151 249.533 153.15 252.986 153.889C253.108 153.844 255.355 154.302 256.893 154.592L255.433 156.117L252.855 156.613C261.748 171.294 272.265 178.634 284.407 178.634C296.55 178.634 305.763 171.294 312.048 156.613L312.906 156.376C313.012 156.4 313.125 156.435 313.245 156.482C315.273 157.266 319.231 160.77 321.172 161.752C328.976 165.698 335.29 171.609 339.022 179.59C340.923 183.656 342.343 187.925 343.799 192.164L343.95 192.603C345.565 197.291 347.157 201.989 348.609 206.731C349.976 211.195 351.219 215.7 352.234 220.259L352.371 220.881C352.866 223.156 353.659 225.711 353.475 228.055C353.405 228.943 353.176 229.703 352.838 230.392L335.25 236.723L343.629 293.889C335.954 294.218 328.271 294.303 320.581 294.166C309.818 293.975 299.061 293.507 288.3 293.227C277.875 292.955 267.465 293.071 257.051 293.591L254.406 293.726C244.215 294.236 234.104 294.496 223.917 293.505L223.223 293.437V293.437L223.223 285.075L226.801 238.512L208.667 235.098L190.865 226.449C190.327 225.911 189.896 225.284 189.656 224.531C189.239 223.223 189.547 221.899 189.888 220.615L189.97 220.309C190.631 217.844 191.38 215.403 192.213 212.992C195.646 203.065 200.467 193.566 206.681 185.092C212.843 176.687 220.318 169.259 229.046 163.539C233.374 160.702 237.982 158.315 242.821 156.482Z" fill="white"/>
<path fill-rule="evenodd" clip-rule="evenodd" d="M249.631 153.648C250.743 153.6 251.876 153.78 252.986 153.889C253.082 153.898 253.119 154.048 253.01 154.07C251.025 154.485 249.061 155.053 247.111 155.629L246.277 155.876C244.078 156.527 241.943 157.198 239.815 158.066C235.572 159.795 231.543 162.13 227.835 164.812C213.555 175.139 203.221 190.774 196.699 206.962C194.928 211.358 193.427 215.864 192.211 220.446C191.916 221.56 191.637 222.679 191.374 223.802C191.296 224.131 190.959 224.974 191.144 225.311C191.308 225.608 191.943 225.792 192.239 225.947L193.236 226.464C195.181 227.467 198.421 229.115 198.746 229.276L199.253 229.526C207.542 233.59 216.398 237.037 225.725 237.275L225.798 236.479V236.479C226.214 232.074 226.76 227.646 227.951 223.376C228.015 223.147 228.307 223.224 228.333 223.428C228.997 228.482 228.785 233.576 228.553 238.654C228.143 247.647 227.599 256.635 227.115 265.625C226.873 270.122 226.56 274.616 226.277 279.111C225.994 283.614 225.902 288.226 225.256 292.693C225.112 293.688 223.946 294.23 223.063 294.125C222.086 294.008 221.335 293.148 221.33 292.161C221.318 289.559 221.645 286.926 221.827 284.331C222 281.865 222.185 279.4 222.374 276.935C223.068 267.94 223.866 258.956 224.604 249.964C224.865 246.775 225.148 243.589 225.438 240.403C215.558 240.084 206.327 236.424 197.521 232.146C197.393 235.041 197.085 237.931 196.787 240.814C195.955 248.859 195.222 256.901 194.673 264.971C194.396 269.046 194.194 273.127 194.018 277.209C193.932 279.215 193.861 281.221 193.807 283.228C193.789 283.897 193.773 284.566 193.758 285.235L193.728 286.768C193.704 287.739 193.605 288.638 192.788 289.345C191.958 290.063 190.838 290.101 190.017 289.345C188.917 288.333 189.112 286.953 189.144 285.593C189.171 284.446 189.204 283.299 189.242 282.153C189.318 279.859 189.414 277.566 189.532 275.275C189.945 267.263 190.769 259.282 191.845 251.334L192.266 248.266C193.051 242.563 193.912 236.729 195.667 231.235C194.984 230.895 194.303 230.553 193.624 230.209C192.42 229.599 191.176 229.027 190.005 228.354C189.077 227.82 188.276 227.088 188.018 226.008C187.73 224.804 188.17 223.487 188.463 222.313L188.489 222.209C188.776 221.027 189.085 219.849 189.411 218.677C190.734 213.922 192.369 209.261 194.284 204.713C198.116 195.608 203.063 186.959 209.106 179.138C214.546 172.098 220.971 165.714 228.502 160.926C232.184 158.585 236.108 156.663 240.257 155.304C242.197 154.669 244.307 154.116 246.338 153.889C247.433 153.766 248.53 153.696 249.631 153.648ZM269.333 139.221C270.654 137.802 273.279 139.27 272.645 141.15C271.153 145.572 268.776 149.605 265.067 152.511C261.581 155.242 257.423 157.016 252.946 156.637C252.912 156.634 252.882 156.626 252.855 156.613L253.241 157.137C256.27 161.235 259.466 165.277 263.317 168.627C271.165 175.453 281.849 179.134 292.167 176.516C300.284 174.455 307.436 168.035 309.539 159.852C309.238 159.987 308.879 160.033 308.486 159.948C306.803 159.582 305.137 157.812 304.052 156.542C302.878 155.169 301.961 153.687 301.289 152.01C300.059 148.943 299.664 144.994 301.344 142.022C301.551 141.656 302.029 141.861 302.07 142.219L302.134 142.777C302.457 145.562 302.861 148.255 304.173 150.794C304.816 152.036 305.586 153.249 306.523 154.289C307.025 154.846 307.568 155.377 308.155 155.844C308.727 156.299 309.42 156.628 309.932 157.149L310.026 157.25L310.029 157.232C310.159 156.129 310.932 155.643 311.688 155.674C312.42 155.703 313.279 156.025 313.612 156.18L313.644 156.195C318.749 158.646 323.452 161.842 327.877 165.387C337.028 172.718 343.884 182.303 347.207 193.589C348.837 199.129 349.773 204.836 350.76 210.517L351.368 213.998C352.29 219.243 353.32 224.591 355.401 229.47C355.939 230.732 355.524 231.915 354.204 232.412C352.556 233.031 350.902 233.631 349.245 234.224C350.059 237.715 350.555 241.327 351.165 244.835C352.46 252.293 354.048 259.702 355.409 267.15C356.105 270.958 356.733 274.779 357.428 278.587C357.763 280.421 358.112 282.252 358.452 284.085C358.635 285.074 358.801 286.065 358.976 287.055L359.006 287.22C359.106 287.742 359.232 288.282 359.088 288.804C358.924 289.4 358.459 289.821 358.044 290.249C357.702 290.601 357.209 290.603 356.79 290.411L356.652 290.347C355.904 289.997 355.319 289.648 355.053 288.804C354.885 288.27 354.825 287.668 354.715 287.118C354.504 286.063 354.305 285.006 354.116 283.947C353.739 281.827 353.371 279.705 353.012 277.582L352.676 275.594C351.524 268.743 350.43 261.849 349.876 254.925C349.631 251.854 349.371 248.785 349.108 245.715L348.911 243.413C348.662 240.499 348.358 237.511 348.314 234.557L347.324 234.909V234.909L342.49 236.618V236.618C341.291 237.042 339.765 237.91 338.475 237.752C337.844 237.675 337.362 237.476 336.99 237.115C337.436 243.399 338.038 249.672 338.841 255.912C339.572 261.591 340.382 267.262 341.339 272.907C341.812 275.703 342.299 278.495 342.828 281.281C343.093 282.674 343.365 284.065 343.647 285.454C343.787 286.147 343.954 286.841 344.063 287.54C344.188 288.341 343.968 288.833 343.52 289.492C343.153 290.033 342.419 290.31 341.824 289.937C341.035 289.442 340.624 289.013 340.392 288.112C340.181 287.294 340.053 286.439 339.89 285.61C339.589 284.079 339.298 282.547 339.017 281.013C338.43 277.804 337.888 274.588 337.404 271.361C335.7 259.996 334.619 248.535 334.073 237.056C333.803 231.393 333.72 225.724 333.768 220.055C333.792 217.149 333.887 214.234 334.092 211.335C334.301 208.401 334.734 205.525 335.12 202.619C335.134 202.517 335.278 202.511 335.284 202.619C335.467 205.878 335.754 209.132 335.894 212.399C336.029 215.516 336.088 218.638 336.194 221.756C336.334 225.855 336.529 229.956 336.786 234.054C337.252 233.544 337.954 233.25 338.657 233.365C339.675 233.152 340.771 232.617 341.741 232.293L345.4 231.071V231.071C347.323 230.428 349.246 229.79 351.177 229.171C349.451 223.364 348.269 217.47 347.259 211.491L346.809 208.801C345.918 203.508 344.957 198.212 343.343 193.086C341.647 187.697 339.107 182.687 335.739 178.149C332.418 173.678 328.379 169.74 324.219 166.058C320.658 162.905 316.849 160.058 313.217 156.992C313.255 157.195 313.263 157.419 313.23 157.665C312.458 163.318 309.509 168.583 305.401 172.499C297.146 180.365 284.927 181.997 274.362 178.308C264.143 174.74 255.107 166.289 251.915 155.832C251.86 155.653 252.1 155.582 252.196 155.713C252.373 155.956 252.551 156.199 252.729 156.442C252.717 156.345 252.767 156.24 252.886 156.194C256.611 154.756 260.268 152.716 263.06 149.829C264.421 148.423 265.609 146.829 266.546 145.11C266.995 144.286 267.399 143.434 267.721 142.552L267.802 142.325C268.192 141.221 268.518 140.095 269.333 139.221Z" fill="black"/>
<path fill-rule="evenodd" clip-rule="evenodd" d="M259.238 45.1651C272.986 44.4128 285.167 40.5408 294.844 49.2066C294.844 49.2066 310.499 37.4873 313.112 41.9508C314.862 44.9416 312.435 48.9566 313.085 52.6472C317.329 59.8993 317.089 72.1743 317.329 75.0509C317.934 82.3014 321.744 109.585 321.744 116.064C321.744 119.371 319.023 128.033 317.329 132.853C313.559 143.581 306.361 149.049 294.558 149.049C282.755 149.049 263.489 139.16 257.31 130.38C256.769 129.611 253.267 131.855 249.604 127.961C245.637 123.743 243.435 115.697 243.435 110.9C243.435 104.814 239.511 100.593 239.968 92.8019C240.987 75.4027 244.527 45.9701 259.238 45.1651Z" fill="#EDB98A"/>
<path fill-rule="evenodd" clip-rule="evenodd" d="M313.125 41.9086C314.876 44.8995 312.448 48.9145 313.099 52.6051C314.737 55.4036 315.707 58.9501 316.294 62.4159L313.085 64.1231L311.898 64.2977C292.644 67.1431 280.356 69.7039 275.033 71.98C269.656 74.2794 263.13 82.3552 255.455 96.2075L255.222 96.6291L253.701 106.967L246.73 109.111L243.448 110.67C243.368 104.684 239.53 100.47 239.981 92.7598C241.001 75.3606 244.541 45.928 259.252 45.123C273 44.3707 285.18 40.4987 294.858 49.1645C305.295 41.3516 311.384 38.933 313.125 41.9086Z" fill="white"/>
<path fill-rule="evenodd" clip-rule="evenodd" d="M257.702 24.9362C257.881 24.9253 258.062 24.934 258.243 24.9517C258.442 24.9605 258.64 24.98 258.839 25.0195C259.849 25.214 260.75 25.7498 261.448 26.5043C261.468 26.5239 261.483 26.546 261.5 26.5655C261.828 26.8126 262.131 27.0928 262.404 27.39C262.452 27.3441 262.498 27.2984 262.548 27.2524C262.692 27.1254 262.842 27.0051 262.999 26.8916C263.657 26.3266 264.428 25.9158 265.257 25.6821L265.371 25.6514C265.393 25.6448 265.414 25.6404 265.436 25.636C266.025 25.4394 266.645 25.3388 267.269 25.3408C268.015 25.3167 268.763 25.4394 269.462 25.7279C270.288 26.0715 271.008 26.6136 271.613 27.2655C272.01 27.5892 272.357 27.9455 272.723 28.3372C273.48 29.1483 274.078 30.0974 274.456 31.143C274.508 31.2896 274.554 31.4402 274.595 31.5911C275.518 31.4842 276.445 31.4077 277.373 31.3703C278.413 31.3071 279.454 31.285 280.497 31.3202C283.37 31.414 286.18 31.9216 288.901 32.8511C289.446 33.0127 289.976 33.2182 290.487 33.4719C291.288 33.7912 292.045 34.198 292.758 34.6901L293.366 35.0514C293.671 35.2332 293.976 35.4175 294.272 35.6064C294.977 36.0593 295.645 36.5665 296.277 37.1132C296.945 37.6536 297.575 38.2419 298.175 38.8584C298.338 39.0253 298.496 39.1943 298.651 39.3645C300.034 40.1126 301.262 41.0705 302.408 42.213C303.317 41.689 304.258 41.214 305.229 40.7917C306.23 40.3565 307.502 39.9082 308.552 39.6131C309.494 39.3485 310.426 39.167 311.371 39.0334C311.8 38.959 312.232 38.9 312.667 38.8497L312.649 38.8565V38.8565C312.955 38.8234 313.258 38.795 313.565 38.7688L313.557 38.7666V38.7666C313.688 38.7559 313.821 38.7447 313.952 38.736L314.27 38.7099V38.7099C314.366 38.7012 314.506 38.9262 314.514 39.0049L314.525 39.0859V39.0859C314.597 39.167 314.663 39.2567 314.709 39.3113C314.765 39.3067 314.822 39.3026 314.879 39.3002C315.049 39.2851 315.245 39.5889 315.346 39.7048L315.436 39.8116C315.54 39.9362 315.643 40.0798 315.66 40.2362C315.771 41.144 315.876 42.0536 315.972 42.9634C316.009 43.6522 315.972 44.3346 315.858 45.0104C315.773 45.6664 315.686 46.3225 315.599 46.9764C315.459 47.4359 315.322 47.8952 315.184 48.3542C315.13 48.5294 315.069 48.7019 315.01 48.8747C314.661 50.0286 314.252 51.1518 313.765 52.2402C314.12 52.6343 314.451 53.0428 314.76 53.4647C314.833 53.5406 314.908 53.616 314.977 53.6948C314.997 53.6644 315.025 53.636 315.056 53.6204C315.16 53.5745 315.237 53.6292 315.302 53.7191C315.989 54.3771 316.489 55.145 316.799 56.0217L316.992 56.479C317.024 56.5554 317.055 56.6319 317.087 56.7084C317.333 57.3735 317.523 58.0558 317.68 58.7467C317.821 59.2903 317.921 59.8415 317.986 60.3985C318.458 61.9847 318.83 63.6074 319.182 65.2083C319.237 65.4602 319.211 65.685 319.131 65.8766L319.336 66.0774V66.0774L319.687 66.4279C320.277 67.0175 320.879 67.6372 321.317 68.3387C321.771 69.0669 322.105 69.8455 322.476 70.6177L322.556 70.7817V70.7817L322.719 71.1107C322.895 71.4698 322.98 71.6683 323.137 72.1025C323.396 72.8266 323.536 73.5546 323.601 74.3224C323.697 75.4398 323.684 76.6579 323.196 77.6967C323.193 77.7055 323.189 77.7122 323.185 77.7186C322.962 78.7226 322.412 79.654 321.577 80.2489C321.398 80.4175 321.206 80.5684 321.001 80.6885C320.509 80.9782 320.057 81.0041 319.519 80.8701L319.452 80.8525C319.384 80.835 319.323 80.8197 319.264 80.8066C319.351 80.8787 319.395 80.9642 319.264 81.0253C319.138 81.0865 319.024 81.1215 318.917 81.1346C318.963 81.1937 318.967 81.2571 318.871 81.3096C318.662 81.4211 318.492 81.4563 318.317 81.4255L318.354 81.7295C318.64 84.0302 318.896 84.4852 319.12 86.9565C319.268 89.4866 319.504 92.0104 319.829 94.5234L319.941 95.4365C320.3 98.3307 320.704 101.246 321.321 104.093C321.633 105.338 321.902 106.591 322.129 107.853C322.449 108.813 322.674 109.795 322.799 110.796C322.98 111.816 323.104 112.843 323.176 113.88C323.427 114.543 323.549 115.216 323.542 115.903C323.575 116.826 323.545 117.747 323.446 118.663C323.392 119.616 323.261 120.561 323.054 121.497C322.868 122.781 322.53 124.021 322.046 125.224C321.657 126.567 321.182 127.883 320.641 129.171C319.801 131.166 318.786 133.018 317.632 134.844C316.55 136.557 315.389 138.206 314.063 139.739C312.348 141.72 310.393 143.535 308.251 145.066C307.029 145.972 305.74 146.785 304.391 147.481C302.742 148.333 301.066 149.101 299.279 149.619C298.165 149.943 297.03 150.166 295.882 150.337C293.629 150.671 291.294 150.621 289.027 150.23C287.566 150.033 286.128 149.692 284.769 149.204C283.652 148.802 282.587 148.34 281.522 147.82C280.975 147.555 280.447 147.249 279.94 146.905C279.09 146.352 278.293 145.727 277.551 145.035C277.309 144.828 277.074 144.616 276.842 144.393C276.731 144.294 276.792 144.148 276.921 144.113L276.96 144.108V144.108C276.91 144.062 276.858 144.016 276.808 143.968C276.797 143.96 276.788 143.949 276.779 143.938C276.755 143.916 276.729 143.894 276.707 143.872C276.622 143.798 276.707 143.631 276.781 143.592C276.81 143.577 276.847 143.575 276.888 143.579C276.88 143.57 276.873 143.564 276.864 143.557C276.856 143.551 276.853 143.533 276.856 143.516L276.823 143.49V143.49C276.712 143.391 276.768 143.247 276.899 143.209C276.963 143.19 277.069 143.2 277.178 143.224L277.22 143.233L277.146 143.163C277.015 143.05 277.056 142.923 277.218 142.884C277.338 142.891 277.457 142.907 277.575 142.936L277.663 142.96C277.706 142.971 277.748 142.984 277.791 142.997C277.717 142.929 277.643 142.864 277.571 142.796C277.499 142.733 277.575 142.551 277.641 142.514C277.73 142.464 277.905 142.534 277.986 142.593C278.184 142.615 278.446 142.702 278.542 142.785C278.806 143.039 279.079 143.282 279.356 143.518C279.524 143.57 279.683 143.64 279.805 143.745C280.119 144.047 280.447 144.332 280.78 144.607L281.034 144.782C281.077 144.811 281.119 144.839 281.162 144.867C281.642 145.149 282.122 145.429 282.6 145.711C284.352 146.306 286.104 146.901 287.854 147.494L288.085 147.564V147.564L289.784 147.774V147.774C290.902 147.892 292.021 147.885 293.138 147.756C293.976 147.767 294.807 147.684 295.625 147.513C297.015 147.277 298.378 146.93 299.705 146.444C301.232 145.886 302.687 145.152 304.108 144.36C304.618 144.073 305.12 143.769 305.613 143.448C305.772 143.334 305.932 143.218 306.091 143.1C307.14 142.311 308.144 141.469 309.11 140.578C309.564 140.161 310 139.726 310.422 139.275C310.483 139.209 310.542 139.146 310.6 139.08C311.004 138.639 311.395 138.182 311.768 137.709L312.123 137.307V137.307C313.559 135.516 314.835 133.589 315.983 131.605C317.122 129.639 318.06 127.57 318.806 125.429C319.046 124.666 319.255 123.892 319.43 123.109C319.753 122.169 319.964 121.204 320.063 120.22C320.095 120.028 320.122 119.835 320.148 119.643L320.163 119.339C320.165 119.289 320.167 119.238 320.167 119.188C320.211 118.882 320.248 118.575 320.276 118.269C320.294 117.961 320.305 117.653 320.307 117.344L320.283 115.452V115.452C320.276 115.393 320.27 115.332 320.266 115.271L320.218 114.853C320.113 113.992 320.032 113.128 319.927 112.266C319.927 112.262 319.927 112.255 319.925 112.249C319.886 111.927 319.844 111.603 319.796 111.28C319.772 111.087 319.742 110.895 319.714 110.702L319.659 110.366V110.366C319.558 109.78 319.435 109.2 319.286 108.624L319.22 108.378L318.841 106.464L318.413 104.581C318.136 103.319 317.905 102.049 317.722 100.767C317.39 98.7246 317.106 96.6796 316.86 94.626C316.847 94.5276 316.834 94.427 316.823 94.3286C316.572 92.4239 316.391 90.5123 316.273 88.5943C316.114 86.705 316.022 84.8109 315.998 82.915C315.996 82.8295 316.053 82.7597 316.12 82.7202L316.114 82.3556C316.106 82.0331 316.1 82.42 316.098 82.0524L316.093 81.0412C316.094 80.9569 316.094 80.8982 316.096 80.894C314.93 80.9748 314.147 80.9086 313.021 80.8492L312.83 80.8394C311.798 80.7915 310.773 80.6778 309.754 80.507C309.75 80.5597 309.715 80.5966 309.656 80.6076C309.551 80.6119 309.453 80.6119 309.352 80.6143L309.39 80.7563V80.7563C309.392 80.8287 309.359 80.8744 309.289 80.894L308.998 80.9072C308.61 80.9235 308.22 80.9312 307.834 80.8787C307.487 80.833 307.149 80.7519 306.813 80.6557C306.606 80.6207 306.394 80.5728 306.178 80.5113C305.624 80.3517 305.074 80.1374 304.518 79.967C303.95 79.8465 303.375 79.8073 302.772 79.9515C302.135 80.1024 301.596 80.3757 300.929 80.2095C300.796 80.1769 300.667 80.1266 300.538 80.0739L300.419 80.0656C300.399 80.0638 300.378 80.0616 300.357 80.0586C299.661 79.9582 299.042 79.5165 298.378 79.2801C298.147 79.2235 297.917 79.2378 297.693 79.3317L297.637 79.3568L297.416 79.5209C297.327 79.6257 297.24 79.7316 297.153 79.8378L297.023 79.9974C296.786 80.2926 296.533 80.5573 296.225 80.7497C295.854 81.0931 295.413 81.2943 294.888 81.3074C294.589 81.3161 294.292 81.2527 294.004 81.1611C292.917 81.4979 291.755 81.5657 290.67 81.2376C290.24 81.1718 289.819 81.0561 289.416 80.8744C289.226 80.7891 289.036 80.6885 288.853 80.5769C288.087 80.9008 287.363 81.3314 286.623 81.7034L286.457 81.7873C285.701 82.1646 284.865 82.5326 284.009 82.4776C282.932 82.4074 281.873 82.2633 280.818 82.0816C280.809 82.0816 280.798 82.0794 280.789 82.0772L280.644 82.0529V82.0529L280.116 81.96V81.96L279.69 81.8806V81.8806L279.472 81.9642C277.723 82.6274 275.807 83.1448 274.05 82.6808C273.284 82.587 272.566 82.3287 271.918 81.8891C271.896 81.8738 271.875 81.8585 271.853 81.841C271.75 81.7885 271.654 81.7297 271.569 81.6663L271.551 81.6519V81.6519L271.534 81.6376L271.526 81.6332C270.568 81.1917 270.018 80.2511 270.114 79.1972C270.055 78.8624 270.057 78.5343 270.123 78.1846C269.811 78.554 269.492 78.9194 269.169 79.2823C267.988 80.7078 266.832 82.1619 265.76 83.6756L265.515 84.026C264.926 84.859 264.378 85.7209 263.872 86.6086C263.359 87.4856 262.833 88.354 262.29 89.2113C261.584 89.9938 260.901 90.795 260.243 91.6158L259.962 91.9688L259.015 93.2176C258.346 94.0139 257.789 94.8843 257.351 95.8288C256.991 96.5004 256.659 97.185 256.36 97.887C256.264 98.0989 256.173 98.3132 256.083 98.5275C255.776 99.3651 255.516 100.218 255.313 101.099C255.15 101.737 255.033 102.384 254.964 103.039L254.942 103.258C254.916 103.516 254.896 103.774 254.885 104.032C254.949 104.07 255.001 104.106 255.04 104.144L255.2 104.201V104.201L255.328 104.239C255.529 104.301 255.876 104.431 255.793 104.59L255.372 105.395V105.395C255.416 105.441 255.435 105.489 255.407 105.541C255.125 106.081 254.842 106.621 254.558 107.162C254.549 107.182 254.534 107.197 254.519 107.208C254.761 107.319 254.997 107.442 255.221 107.575C255.66 107.838 255.983 108.141 256.282 108.496C256.596 108.684 256.893 108.89 257.172 109.126C257.517 109.489 257.818 109.887 258.073 110.317C258.309 110.724 258.501 111.148 258.649 111.592C258.714 111.826 258.745 112.069 258.743 112.316C258.479 114.184 256.347 112.905 256.306 112.741C256.013 111.612 255.677 110.899 254.923 110.06L254.903 110.046V110.046C254.467 109.854 254.035 109.664 253.583 109.515C253.515 109.528 253.445 109.537 253.376 109.548C253.454 109.659 253.415 109.769 253.256 109.788C252.568 109.924 251.875 109.961 251.176 109.902L250.116 109.751V109.751C249.676 109.92 249.256 110.137 248.86 110.396L248.729 110.484L248.705 110.501C247.681 111.326 246.892 112.421 246.35 113.615C246.302 113.722 246.256 113.829 246.212 113.938L246.148 114.101L246.143 114.11C245.436 116.894 246.067 119.951 247.358 122.477C248.063 123.608 248.798 124.716 249.566 125.803L250.313 126.781V126.781C250.753 127.197 251.185 127.623 251.606 128.06C251.672 128.126 251.742 128.192 251.811 128.255C252.034 128.401 252.261 128.531 252.492 128.64C252.582 128.67 252.673 128.699 252.765 128.723C253.21 128.937 253.677 129.051 254.168 129.064C254.816 129.107 255.445 129.031 256.053 128.838L256.175 128.797L256.264 128.764C256.596 128.552 256.904 128.288 257.196 127.977C257.261 127.909 257.384 127.909 257.523 127.947C257.6 127.868 257.676 127.785 257.748 127.695C257.798 127.64 257.877 127.638 257.938 127.68C258.145 127.656 258.706 127.975 258.559 128.143C258.535 128.183 258.505 128.218 258.479 128.255C258.577 128.305 258.675 128.362 258.762 128.421C259.221 128.549 259.897 129.007 259.842 129.145L259.836 129.156C259.73 129.357 259.592 129.526 259.422 129.659L259.365 129.703L259.236 129.792C259.417 129.906 259.57 130.037 259.493 130.129C259.458 130.197 259.421 130.263 259.378 130.322C259.749 130.781 260.117 131.245 260.484 131.708C260.85 132.504 261.304 133.248 261.845 133.937C262.297 134.685 262.84 135.356 263.475 135.955C263.527 136.008 263.582 136.058 263.634 136.109C264.102 136.455 264.591 136.779 265.101 137.091L265.321 137.224C265.436 137.294 265.63 137.381 265.539 137.55C265.528 137.571 265.515 137.589 265.5 137.602C265.82 137.812 266.152 138.011 266.494 138.195L266.527 138.215C266.656 138.298 266.832 138.448 266.647 138.571C266.49 138.676 266.073 138.392 265.877 138.26C265.84 138.26 265.796 138.25 265.753 138.236C265.818 138.271 265.883 138.309 265.948 138.346L266.047 138.4C266.124 138.446 266.499 138.695 266.237 138.801C266.108 138.811 265.99 138.779 265.881 138.704C265.753 138.641 265.626 138.573 265.502 138.503C265.545 138.571 265.545 138.639 265.436 138.683C265.399 138.685 265.362 138.683 265.325 138.678C265.582 138.842 265.846 138.995 266.119 139.139L266.163 139.167C266.279 139.242 266.462 139.384 266.329 139.507C266.178 139.642 265.764 139.354 265.657 139.288L265.338 139.098V139.098C265.314 139.109 265.288 139.113 265.26 139.116C265.356 139.175 265.445 139.238 265.543 139.295L265.677 139.368C265.844 139.46 266.08 139.613 265.995 139.765C265.909 139.916 265.655 139.792 265.49 139.694L265.314 139.584C265.306 139.579 265.298 139.575 265.29 139.57L265.283 139.597C265.282 139.601 265.28 139.605 265.277 139.61C265.195 139.752 264.989 139.659 264.848 139.577L264.734 139.507C264.54 139.39 264.349 139.275 264.159 139.158L263.874 138.982H263.87C262.886 138.389 261.976 137.799 261.119 137.038C260.606 136.583 260.128 136.102 259.674 135.588C258.762 134.558 258.084 133.379 257.429 132.176C257.418 132.156 257.434 132.106 257.46 132.051C257.388 131.903 257.318 131.752 257.248 131.597C256.576 131.785 255.826 131.84 255.134 131.794C254.763 131.769 254.397 131.704 254.032 131.605C252.87 131.444 251.748 130.912 250.779 130.276C250.718 130.236 250.664 130.193 250.607 130.153C250.208 129.928 249.828 129.666 249.468 129.366C248.766 128.784 248.096 128.137 247.487 127.461C247.046 126.936 246.63 126.392 246.239 125.827C245.842 125.27 245.441 124.712 245.039 124.154C243.924 122.405 243.211 120.391 242.934 118.333C242.799 117.574 242.729 116.806 242.744 116.041C242.755 115.487 242.816 114.928 242.923 114.37C242.86 114.309 242.796 114.248 242.733 114.184C242.698 114.245 242.663 114.289 242.642 114.267L242.141 113.765C241.787 113.407 241.549 113.143 241.14 112.563C240.49 111.638 240.006 110.621 239.646 109.55C239.386 108.785 239.214 107.914 239.146 107.072C239.125 106.932 239.103 106.79 239.085 106.646C238.946 105.506 239.074 104.415 239.247 103.291C239.258 103.217 239.295 103.171 239.345 103.146C239.358 103.057 239.373 102.966 239.387 102.875C237.942 101.341 236.902 99.4931 236.987 97.2611C237.014 96.5577 237.158 95.8645 237.433 95.2171L237.466 95.1441V95.1441C236.26 94.9582 235.303 94.1088 234.584 93.056C234.52 93.0054 234.458 92.9545 234.399 92.9038C233.114 91.8033 232.222 90.2451 231.612 88.5992C231.175 87.6435 230.886 86.6221 230.763 85.5628C230.754 85.4871 230.749 85.4121 230.742 85.3369C230.444 83.6619 230.368 81.97 230.506 80.3033C230.206 79.2718 229.962 78.222 229.795 77.1478C229.717 76.6362 229.662 76.1243 229.621 75.6125L229.617 75.5843L229.61 75.4922L229.592 75.2627C229.589 75.2247 229.586 75.1868 229.584 75.1489C229.215 70.4644 230.26 65.8543 231.988 61.5154C232.139 61.1252 232.294 60.7359 232.454 60.3498L232.625 59.9464V59.9464C234.359 57.1428 236.964 54.8751 239.17 52.4801C239.931 51.6539 238.7 50.4135 237.936 51.243C236.47 52.8342 234.897 54.3583 233.478 55.9939C233.227 56.0123 232.976 56.0191 232.726 56.0066C232.289 55.9845 231.866 55.9148 231.456 55.803C230.433 55.6521 229.501 55.2388 228.654 54.6308C227.522 54.1018 226.556 53.1043 226.46 51.8031C226.449 51.6718 226.451 51.5428 226.46 51.414C226.355 50.7774 226.449 50.1106 226.715 49.4958C226.761 49.3274 226.82 49.1612 226.894 48.9972C227.11 48.5095 227.465 48.0417 227.9 47.7244C227.91 47.7178 227.919 47.7137 227.928 47.7069C227.974 47.659 228.017 47.6106 228.068 47.5671C228.142 47.4991 228.22 47.4359 228.303 47.3769C228.009 46.8911 227.742 46.3927 227.516 45.8611C227.269 45.2837 227.142 44.6978 227.073 44.0787C227.044 43.8338 227.033 43.591 227.029 43.3485C227.016 43.2367 227.007 43.123 226.998 43.0093C226.944 42.1432 227.044 41.2446 227.367 40.4352C227.391 40.3742 227.422 40.3128 227.45 40.2493C227.511 40.0656 227.579 39.8821 227.662 39.7026C227.985 39.0137 228.443 38.4298 229.008 37.9508C229.313 37.6425 229.656 37.3691 230.029 37.1373C230.249 36.9995 230.5 36.877 230.764 36.7764C231.235 36.5271 231.84 36.2997 232.331 36.2824C232.39 36.28 232.442 36.2868 232.499 36.2868C232.544 35.0312 232.706 33.6644 233.201 32.5272C233.489 31.7029 233.921 30.9703 234.571 30.443C234.948 30.0485 235.413 29.7281 235.993 29.5187L236.096 29.4829L236.136 29.472C236.657 29.2183 237.22 29.1177 237.798 29.1201C238.472 29.0849 239.159 29.2119 239.746 29.5223C239.869 29.5879 239.999 29.6688 240.124 29.7563C240.218 29.5682 240.322 29.3779 240.442 29.1879C240.863 28.5119 241.372 27.9236 241.961 27.3878C242.031 27.3244 242.107 27.2675 242.181 27.2065C242.467 26.9463 242.77 26.7057 243.084 26.487C243.763 26.0144 244.507 25.6625 245.288 25.4348C246.19 25.1008 247.141 24.9458 248.093 24.9784L248.29 24.9867V24.9867C248.334 24.9909 248.377 24.9931 248.419 24.9953C249.363 25.0567 250.295 25.2885 251.185 25.6382C252.108 26.0037 252.889 26.5568 253.616 27.191C253.786 26.955 253.98 26.7317 254.218 26.5218C254.285 26.4629 254.357 26.4102 254.425 26.3556C254.477 26.3031 254.532 26.2528 254.589 26.2025C254.848 25.9728 255.123 25.7738 255.424 25.5967C255.762 25.3979 256.127 25.2601 256.504 25.1748C256.888 25.0434 257.292 24.9625 257.702 24.9362ZM253.219 115.094C253.257 115.092 255.278 115.851 256.285 116.342L256.334 116.367C257.495 116.944 258.053 117.36 259.096 118.101C259.166 118.151 259.238 118.228 259.238 118.302C259.238 119.382 258.976 120.702 258.071 120.117C257.94 120.033 257.808 119.95 257.675 119.869L257.475 119.748L257.469 119.75C257.471 119.75 257.473 119.748 257.475 119.746C255.503 118.54 253.419 117.596 251.22 116.92C251.07 116.865 252.184 115.177 252.492 115.271C252.315 115.201 253.189 115.095 253.219 115.094ZM273.941 67.3994C272.63 67.54 271.318 67.6784 270.007 67.8138C269.171 67.91 268.334 67.9953 267.496 68.0675C266.237 68.1618 264.978 68.1769 263.724 68.0041C263.279 67.9431 262.842 67.8554 262.41 67.7482C262.116 67.9647 261.81 68.1681 261.498 68.363L258.034 71.0199V71.0199C255.71 72.8506 253.437 74.7902 251.39 76.9313C247.816 80.6719 244.905 85.048 243.075 89.8954C242.909 89.9936 242.781 90.1648 242.738 90.4275C242.414 92.4143 241.469 94.2265 241.127 96.2052C240.791 98.1542 241.238 99.8111 242.46 101.356C242.72 101.686 243.254 101.668 243.582 101.446C243.658 101.596 243.988 101.589 244.104 100.927C244.647 100.337 245.111 99.7195 245.426 98.9545C245.658 98.3911 245.268 98.0005 244.796 97.9237C244.992 97.2152 245.214 96.5129 245.463 95.8181C246.2 93.7534 247.138 91.781 248.318 89.9308C249.357 88.3035 250.559 86.8863 251.851 85.4648C251.866 85.4451 251.892 85.4388 251.92 85.4344L252.189 85.1368V85.1368C252.226 85.0952 252.302 85.0996 252.387 85.1215C252.468 85.0362 252.547 84.9487 252.63 84.8634C252.71 84.7759 252.8 84.8022 252.85 84.8721C252.987 84.8415 253.238 84.9902 253.315 85.0386C253.445 85.1258 253.487 85.2242 253.376 85.3489C253.356 85.371 253.336 85.3929 253.317 85.4123C253.467 85.476 253.616 85.561 253.731 85.6444C254.135 85.7338 254.702 86.11 254.604 86.2217C254.397 86.438 254.196 86.6591 253.997 86.8842C254.172 87.0068 254.285 87.1269 254.24 87.1796C253.389 88.0782 252.603 89.0298 251.883 90.0378C251.336 90.7901 250.84 91.573 250.398 92.3887C249.739 93.5435 249.18 94.731 248.685 95.9513C248.615 96.1374 248.547 96.3231 248.482 96.509C247.758 98.5407 247.217 100.649 246.988 102.797L246.978 102.941C246.935 103.715 246.919 105.786 246.839 106.28C247.321 106.519 247.823 106.722 248.345 106.889C248.443 106.917 248.543 106.943 248.643 106.967C248.7 106.943 248.759 106.923 248.818 106.906C249.298 106.711 249.8 106.571 250.313 106.503C250.658 106.458 251.002 106.442 251.346 106.452L251.493 106.457C251.646 106.462 251.796 106.473 251.949 106.488C251.94 106.401 251.936 106.316 251.929 106.228C251.886 106.199 251.853 106.16 251.851 106.108C251.748 105.123 251.746 104.139 251.844 103.155C251.91 102.641 251.986 102.129 252.069 101.618C252.154 101.198 252.252 100.785 252.359 100.371C252.643 99.2123 253.02 98.0814 253.478 96.975C254.783 93.819 256.653 90.9738 258.533 88.1438C259.906 86.0774 261.204 83.9646 262.624 81.9329C263.833 80.203 265.102 78.4993 266.457 76.881C267.81 75.265 269.239 73.7099 270.782 72.2711C271.03 72.0412 271.281 71.8182 271.536 71.5975C272.998 70.2853 274.587 69.2069 276.24 68.1486C276.304 68.1071 276.417 68.153 276.511 68.2315L276.778 68.0671C276.822 68.0398 276.867 68.0128 276.912 67.9866C276.954 67.9606 277 68.0041 277.024 68.0413C277.137 67.9822 277.25 67.9256 277.364 67.8685C277.447 67.8016 277.532 67.7381 277.615 67.6721C276.389 67.6102 275.164 67.5184 273.941 67.3994ZM289.322 52.82C288.331 52.6212 287.337 52.5926 286.337 52.7413C285.919 52.8027 285.502 52.8766 285.089 52.9661C286.027 53.7862 286.782 54.8357 287.272 56.0436C287.801 57.3492 285.69 57.9119 285.168 56.6251C284.664 55.3838 283.712 54.4316 282.561 53.8608C282.312 54.0001 282.071 54.151 281.841 54.3181C281.54 54.563 281.256 54.8276 280.99 55.1185C280.41 55.7508 279.877 56.5947 279.528 57.4301C279.393 57.885 279.293 58.353 279.229 58.8342C279.216 58.9435 279.203 59.055 279.192 59.1666C278.977 61.4299 279.623 63.6319 280.733 65.5805L280.777 65.5812V65.5812C281.768 65.0423 282.806 64.5883 283.874 64.2185C284.729 63.6413 285.617 63.1075 286.532 62.6242C288.475 61.5964 290.527 60.8042 292.643 60.2624L292.887 60.201C293.385 60.0734 293.888 59.961 294.393 59.8627L294.696 59.8054H294.7L294.667 59.4793V59.4793C294.497 58.1999 293.997 57.0124 293.352 55.9148C292.867 55.0859 292.136 54.2374 291.325 53.5594L291.32 53.557C290.952 53.3471 290.565 53.1734 290.166 53.0299L290.016 52.9775L289.322 52.82ZM262.727 50.876C260.667 50.6811 258.607 50.7008 256.548 50.8692C255.202 51.0029 253.864 51.1885 252.534 51.4247C251.632 51.58 250.749 51.7987 249.881 52.0701L250.377 53.0769C251.207 54.7536 252.058 56.4194 253.059 58.0031C253.576 58.8188 254.137 59.5954 254.748 60.341C255.16 60.8746 255.614 61.3691 256.112 61.8237C256.242 61.9836 256.382 62.1345 256.524 62.2808C256.978 62.6701 257.466 63.0113 258.001 63.2934C258.43 63.6064 258.877 63.8798 259.344 64.1194L259.519 64.2077L261.156 64.8374C261.243 64.8622 261.331 64.8869 261.42 64.9105L261.553 64.9447L261.802 64.997L261.988 64.8954C262.019 64.8787 262.051 64.8622 262.083 64.8461C262.135 64.8179 262.172 64.8726 262.183 64.9117C262.188 64.9273 262.181 64.9489 262.17 64.9708L262.409 64.8415V64.8415C262.819 65.0084 263.254 65.1418 263.72 65.2297C263.932 65.2693 264.143 65.2997 264.355 65.3257L264.383 65.3447C264.388 65.348 264.393 65.3517 264.398 65.3559H264.629V65.3559C266.261 65.5136 267.915 65.3052 269.543 65.0119C271.848 64.7796 274.151 64.5235 276.454 64.2841C276.498 64.2799 276.515 64.2994 276.515 64.3302L276.657 64.3171V64.3171C276.862 64.295 277.102 64.6384 276.947 64.7632C277.072 64.8374 277.191 64.9447 277.281 65.0279L277.333 65.0233C277.017 64.4022 276.773 63.7526 276.598 63.0771L276.376 61.944V61.944C276.314 61.5219 276.28 61.0716 276.273 60.6275C276.258 60.4241 276.247 60.234 276.247 60.0676C276.247 59.9101 276.249 59.7527 276.256 59.5954C275.821 59.4159 275.381 59.2586 274.931 59.125C273.655 58.9678 272.381 58.8101 271.104 58.6548C270.339 58.6833 269.573 58.7379 268.809 58.8232C267.943 58.8998 267.079 58.9982 266.217 59.1163C266.137 59.125 265.993 59.0157 265.905 58.8888L265.537 58.9393V58.9393C265.345 58.9634 265.144 58.5783 265.397 58.4995C265.489 58.4631 265.58 58.4286 265.672 58.3954L265.809 58.3465L265.731 58.3552C265.705 58.3576 265.672 58.3508 265.635 58.3379C265.432 58.364 265.229 58.3902 265.028 58.4143C264.774 58.4461 264.832 58.1097 265.01 58.0305L265.096 57.9987C264.945 57.9045 264.812 57.6465 264.999 57.5622L265.024 57.5526C265.111 57.5178 265.196 57.4892 265.284 57.4564C265.277 57.4282 265.277 57.4017 265.286 57.3779L264.926 57.4236V57.4236C264.893 57.4279 265.049 57.1976 265.124 57.1521L265.137 57.1458L265.31 57.0933C265.336 57.019 265.476 56.8549 265.524 56.8399C266.156 56.6406 266.745 56.4615 267.361 56.3235C267.391 56.2863 267.426 56.2579 267.465 56.2492C267.849 56.1573 268.238 56.0851 268.626 56.0241C268.652 55.9845 268.678 55.9563 268.709 55.9539C269.671 55.8314 270.635 55.803 271.604 55.8688C271.79 55.8861 271.975 55.906 272.16 55.9299C272.516 55.9694 272.872 56.0197 273.225 56.0875C274.11 56.2398 274.975 56.4714 275.817 56.7836L276.011 56.8571C276.223 56.9361 276.432 57.019 276.64 57.1089C276.744 56.7349 276.875 56.3673 277.03 56.0066C277.054 55.9364 277.08 55.8688 277.109 55.8011L276.897 55.674V55.674C276.851 55.7615 276.757 55.8293 276.696 55.7923C275.18 54.7666 273.576 53.9113 271.886 53.229C270.939 52.8091 269.97 52.4528 268.977 52.1552C268.482 51.9957 267.982 51.8514 267.481 51.7136C267.23 51.6609 266.979 51.6084 266.724 51.5647C265.412 51.2104 264.079 50.981 262.727 50.876ZM312.691 54.3474C312.507 54.6662 312.315 54.982 312.112 55.2935C311.126 56.8066 309.943 58.2266 308.603 59.4647C308.952 59.4638 309.301 59.4771 309.646 59.5095C310.24 59.5657 310.822 59.6645 311.389 59.803C311.435 59.766 311.486 59.7474 311.528 59.7767L311.676 59.8793V59.8793C312.892 60.2084 314.035 60.7259 315.069 61.4191L315.051 61.2822C315.048 61.2594 315.044 61.2366 315.04 61.2138C315.058 60.9448 315.062 60.6756 315.053 60.4088C314.84 58.832 314.305 57.3798 313.694 55.9104C313.683 55.882 313.691 55.845 313.709 55.8074C313.4 55.3026 313.063 54.8145 312.691 54.3474ZM312.972 41.9508C312.516 42.0339 312.064 42.1411 311.615 42.2745C310.771 42.4015 309.952 42.6246 309.163 42.9415C308.074 43.3286 307.018 43.7791 305.966 44.2561C303.924 45.1831 302.009 46.3556 300.266 47.7683C300.154 47.8534 300.047 47.9411 299.94 48.0286C299.55 48.3673 299.17 48.7216 298.81 49.0956C298.433 49.5067 298.053 49.9181 297.676 50.3312C297.213 50.817 296.681 51.2563 296.262 51.7812C296.177 51.8884 296.103 52.0064 296.035 52.1248L296.282 52.2098V52.2098C296.489 52.2798 296.454 52.6691 296.249 52.6122C296.179 52.5926 296.114 52.5685 296.048 52.5425C296.077 52.5797 296.096 52.6168 296.101 52.6494C296.114 52.7544 296.033 52.8989 295.904 52.8618C295.845 52.8462 295.786 52.8244 295.728 52.8003C295.71 52.8681 295.697 52.9359 295.697 53.0015C295.708 53.0059 295.719 53.0103 295.732 53.0127C295.876 53.063 296.146 53.288 296.186 53.4413C296.216 53.5594 296.116 53.686 295.987 53.651C295.891 53.6248 295.797 53.5854 295.706 53.5417C295.767 53.601 295.815 53.6644 295.819 53.7191C295.828 53.8197 295.741 53.9616 295.621 53.929C295.398 53.8676 295.219 53.7737 295.071 53.6556C295.032 53.7079 294.975 53.7495 294.929 53.7366L294.844 53.7103V53.7103C294.867 53.732 294.889 53.7549 294.909 53.7774L294.94 53.8107C295.542 54.4624 296.068 55.1841 296.489 55.9607C296.509 55.9386 296.533 55.9189 296.563 55.8949C296.759 55.7287 296.962 55.5668 297.165 55.4096L297.227 55.3558V55.3558L297.29 55.3022L296.834 55.4531L296.844 55.4413C296.876 55.3999 296.976 55.262 297.023 55.2161L297.034 55.206C297.661 54.6441 298.343 54.1672 299.081 53.7781C299.559 53.4673 300.06 53.2049 300.586 52.9884C301.841 52.4045 303.119 51.9607 304.433 51.5496C304.629 51.4862 304.825 51.4184 305.022 51.3569C305.078 51.3372 305.089 51.3613 305.081 51.4007L305.183 51.37V51.37C305.366 51.311 305.678 51.6347 305.554 51.7856C305.629 51.8468 305.703 51.915 305.767 51.9791L305.814 52.0261L305.866 52.0108C306.022 51.9626 306.285 52.2062 306.452 52.3787L306.575 52.5095C306.669 52.6101 306.852 52.8178 306.627 52.8989L306.346 52.995V52.995C306.355 53.0518 306.331 53.0999 306.243 53.1327C306.145 53.1655 306.049 53.2005 305.953 53.2357C306.011 53.2866 306.069 53.3395 306.125 53.3932L306.209 53.4739C306.307 53.575 306.542 53.7978 306.335 53.8961L306.309 53.9069L306.041 54.0031C306.075 54.0819 306.067 54.1565 305.949 54.2C304.382 54.7336 302.853 55.3593 301.359 56.07C300.239 56.6909 299.057 57.1548 297.811 57.4586C297.709 57.4916 297.486 57.3363 297.394 57.181L297.208 57.2359C297.177 57.245 297.146 57.2537 297.115 57.2617L297.085 57.2685V57.2685C297.318 57.8918 297.49 58.5673 297.586 59.2212C297.597 59.2803 297.606 59.3417 297.613 59.4008C297.857 59.3809 298.099 59.3634 298.343 59.3505C300.034 59.2606 301.745 59.3153 303.44 59.5165C304.125 59.1075 304.784 58.6592 305.414 58.1739C305.606 58.025 305.796 57.8719 305.984 57.7166C307.11 56.7369 308.129 55.637 309.032 54.4493C309.867 53.3492 310.594 52.1683 311.205 50.9307C311.746 49.7692 312.193 48.562 312.531 47.3154C312.841 46.176 312.948 45.0672 313.027 43.8884C313.053 43.696 313.07 43.5038 313.085 43.3111L313.084 43.2286V43.2286L313.081 43.1886C313.059 42.7755 313.018 42.3619 312.972 41.9508ZM296.986 56.5969C296.936 56.6144 296.884 56.6319 296.831 56.6472C296.862 56.715 296.89 56.7808 296.919 56.8484L296.922 56.847V56.847L297.128 56.6844V56.6844C297.085 56.6647 297.034 56.6343 296.986 56.5969ZM312.667 38.8497C313.059 38.7032 313.356 38.6748 313.557 38.7666C313.26 38.7885 312.963 38.8169 312.667 38.8497Z" fill="black"/>
<path fill-rule="evenodd" clip-rule="evenodd" d="M305.122 132.565C303.511 133.031 301.782 133.073 300.14 132.591C298.651 132.154 297.122 131.192 296.026 129.919C295.053 128.788 294.422 127.414 294.447 125.947C294.45 125.78 294.51 125.64 294.602 125.532C294.701 125.415 294.84 125.334 294.988 125.3C295.141 125.264 295.302 125.277 295.439 125.339C295.564 125.395 295.67 125.491 295.737 125.632C295.905 125.853 296.073 126.071 296.241 126.283C297.596 127.956 298.907 129.206 300.944 129.654C302.048 129.897 303.152 129.789 304.164 129.418C305.248 129.021 306.228 128.322 306.996 127.428C307.343 127.024 307.752 126.859 308.153 126.856C308.607 126.853 309.055 127.064 309.393 127.401C309.725 127.733 309.948 128.183 309.968 128.654C309.986 129.068 309.851 129.5 309.492 129.885C308.31 131.155 306.779 132.085 305.122 132.565ZM305.072 111.615C306.723 112.619 309.238 114.96 307.462 117.449C305.372 119.643 302.362 117.127 300.878 115.989C299.503 115.107 297.958 117.375 299.234 118.405C309.952 126.343 314.302 111.878 305.907 110.435C304.983 110.276 304.639 111.305 305.072 111.615ZM289.628 107.198C289.097 106.859 288.473 106.742 287.781 107.057C287.24 107.303 286.292 108.123 285.632 109.201C285.181 109.938 284.861 110.803 284.927 111.704C284.943 111.913 284.866 112.067 284.744 112.181C284.647 112.271 284.508 112.338 284.345 112.358C284.206 112.376 284.051 112.36 283.925 112.321C283.685 112.246 283.558 112.09 283.51 111.963C283.048 110.735 283.247 109.366 283.765 108.13C284.463 106.462 285.732 105.066 286.564 104.615C287.987 103.844 289.665 103.809 291.09 104.594C292.303 105.263 293.061 106.342 293.816 107.442C293.976 107.676 294.135 107.908 294.3 108.136C294.629 108.593 294.662 109.046 294.534 109.435C294.393 109.865 294.032 110.229 293.581 110.419C293.165 110.594 292.681 110.619 292.253 110.439C291.891 110.286 291.56 109.989 291.35 109.484C290.996 108.634 290.407 107.697 289.628 107.198V107.198ZM316.578 109.089C316.214 109.278 315.93 109.335 315.527 109.215C315.304 109.148 315.084 109.019 314.911 108.847C314.74 108.676 314.617 108.463 314.569 108.227C314.451 107.645 314.133 107.1 313.679 106.745C313.291 106.441 312.801 106.28 312.258 106.371C311.672 106.469 311.114 106.845 310.729 107.288C310.601 107.436 310.5 107.605 310.399 107.772C310.209 108.085 310.025 108.376 309.764 108.605C309.665 108.693 309.515 108.753 309.371 108.753C309.312 108.753 309.252 108.744 309.196 108.726C308.612 108.14 308.5 107.696 308.519 107.256C308.539 106.794 308.721 106.326 309.015 105.889C309.705 104.865 311.016 104.026 311.901 103.836C313.112 103.575 314.315 103.888 315.28 104.565C316.272 105.261 317.007 106.342 317.237 107.56C317.292 107.854 317.268 108.171 317.157 108.445C317.048 108.713 316.857 108.943 316.578 109.089ZM292.299 96.2816C291.572 96.9901 290.712 97.0998 289.841 97.1974C289.358 97.2522 288.972 97.2963 288.592 97.3821C287.547 97.6179 286.515 97.973 285.573 98.4844C284.589 99.0191 283.516 99.6639 282.744 100.49C282.561 100.687 282.388 100.893 282.215 101.099C282.057 101.288 281.904 101.469 281.744 101.644C281.56 101.845 281.385 102.056 281.211 102.266C281.103 102.443 281.082 102.487 281.061 102.532C281.028 102.601 280.99 102.677 280.947 102.759C280.887 102.871 280.818 102.994 280.745 103.105C280.624 103.308 280.559 103.364 280.503 103.389C280.41 103.431 280.321 103.451 280.236 103.44C280.155 103.43 280.08 103.391 280.005 103.328C279.632 103.013 279.522 102.495 279.533 101.946C279.55 101.112 279.858 100.189 280.141 99.621C280.8 98.3023 281.714 96.9315 282.813 95.9473C284.067 94.8239 285.439 93.9734 287.015 93.3873C287.994 93.023 289.128 92.6886 290.195 92.7308C290.963 92.7612 291.696 92.9896 292.302 93.5598C292.674 93.9099 292.852 94.4078 292.852 94.9054C292.852 95.4129 292.667 95.9234 292.299 96.2816ZM318.056 102.769C318.01 102.845 317.946 102.897 317.875 102.929C317.8 102.962 317.717 102.971 317.637 102.958C317.557 102.944 317.482 102.908 317.422 102.853C317.364 102.8 317.32 102.73 317.301 102.644C316.818 100.524 315.881 98.946 313.881 97.9286C312.897 97.4282 311.765 97.1102 310.694 96.8567C310.383 96.783 310.054 96.7353 309.723 96.6869C308.685 96.5353 307.639 96.3617 306.962 95.5224C306.555 95.0168 306.384 94.3702 306.48 93.7789C306.571 93.2222 306.897 92.7117 307.488 92.4057C308.96 91.6445 310.789 92.3915 312.276 93.0278C312.386 93.075 312.494 93.1214 312.6 93.1661C314.054 93.7798 315.379 94.59 316.469 95.7486C317.334 96.6677 318.135 98.0265 318.458 99.4244C318.726 100.587 318.663 101.775 318.056 102.769Z" fill="black"/>
<path fill-rule="evenodd" clip-rule="evenodd" d="M320.414 115.339C317.132 116.92 312.555 114.589 310.348 112.146C309.545 111.257 308.926 108.713 309.235 107.1C310.071 102.73 313.215 100.107 316.534 99.2117C321.135 97.9699 325.766 101.116 325.226 104.828C324.714 108.346 323.939 113.449 320.414 115.339M298.08 106.945C297.817 111.708 293.994 115.876 289.424 117.111C282.062 119.166 278.423 113.989 276.775 108.412C276.612 107.858 276.227 106.166 277.26 104.715C281.322 99.0085 291.208 99.9813 296.145 101.548C297.59 102.93 298.181 104.926 298.08 106.945M323.979 98.7319C323.977 98.7347 323.974 98.7371 323.972 98.74C323.955 98.7297 323.938 98.7192 323.921 98.7091C323.94 98.717 323.96 98.7238 323.979 98.7319M330.139 99.2823C329.711 94.4338 314.502 96.2903 312.724 96.6877C307.871 98.1154 303.68 101.999 298.254 100.292C292.632 94.0235 273.701 95.8212 269.732 99.0144C268.981 98.7196 268.067 98.8777 267.1 99.1559C262.129 98.9764 239.438 100.69 244.08 107.036C244.784 107.525 245.488 107.027 245.507 106.02C269.702 97.2841 267.357 105.467 270.226 104.511C270.664 104.638 271.121 104.717 271.521 104.801C273.742 105.516 274.496 105.295 274.789 107.789C276.799 127.045 302.435 120.399 300.332 104.604C302.414 104.489 304.235 103.589 306.436 104.468C307.965 119.348 319.935 119.948 323.538 114.79C326.254 111.21 325.177 105.808 328.911 102.991C330.385 104.225 330.48 100.061 330.139 99.2823" fill="black"/>
<path fill-rule="evenodd" clip-rule="evenodd" d="M252.89 187.601C249.731 187.911 246.572 188.221 243.413 188.531C228.283 189.686 213.159 192.099 198.145 193.547C197.771 192.939 197.039 193.039 196.595 193.462C195.097 193.33 193.418 192.186 192.061 193.376C192.017 193.37 191.973 193.363 191.928 193.359C189.512 188.724 187.841 183.78 186.22 178.83C185.186 175.786 183.794 172.84 181.221 170.797C176.831 167.751 166.772 161.575 161.617 161.834C161.531 160.912 161.101 159.961 160.395 159.347C161.952 156.694 155.726 154.963 155.287 155.27C155.568 146.407 151.396 138.709 142.197 136.944C133.956 135.228 122.235 134.939 117.802 143.547C117.315 143.492 112.335 143.466 111.853 143.52C111.104 142.572 102.876 151.558 106.248 154.686C76.1 168.015 58.9577 166.425 50.6131 203.895C49.485 207.415 49.4028 211.267 48.2116 214.708C43.9736 224.599 40.5361 235.13 39.6806 245.892C37.6144 246.421 37.3768 250.062 39.7701 250.588C40.6842 250.79 41.4487 251.065 42.1153 251.586C41.5942 260.405 43.7284 280.551 45.0731 280.489C47.815 289.21 60.0452 291.671 68.7038 288.607C67.2112 291.413 68.7038 293.178 68.7038 294.677C99.8597 295.855 133.925 295.177 165.073 296.792C169.057 296.736 173.248 297.77 177.177 297.175C179.574 296.601 179.578 292.835 177.147 292.369L187.769 290.063C187.532 289.974 192.148 286.905 195.636 281.171C198.884 274.757 196.673 267.015 198.145 260.037C209.637 259.098 221.319 258.697 232.685 256.751C234.235 261.386 240.943 255.843 243.076 253.614C243.073 253.61 243.07 253.607 243.068 253.604C244.1 253.321 244.927 252.355 244.955 251.21C245.679 250.177 245.831 248.72 245.137 247.722C248.318 229.377 253.167 210.647 254.92 192.13C255.54 191.993 256.123 191.721 256.618 191.303L256.578 191.263C257.416 190.329 257.579 188.717 256.182 187.923C255.054 187.282 254.113 187.481 252.89 187.601Z" fill="#FFDBB4"/>
<path fill-rule="evenodd" clip-rule="evenodd" d="M132.741 256.261L135.175 257.808L155.086 264.22L167.254 265.768L177.209 264.22V281.245L179.2 297.165C178.315 298.786 169.909 298.786 153.98 297.165C143.825 296.131 106.714 295.63 98.2647 295.409L97.7859 295.396C87.857 295.11 78.0489 295.11 68.3616 295.396V289.426L96.016 275.718L120.794 261.788L132.741 256.261ZM118.633 142.155L120.461 143.52L116.469 150.076L135.918 165.799V178.357L142.076 184.178L145.595 178.357L150.555 171.766L154.079 161.081L152.879 154.042L155.292 153.815C155.304 154.296 155.302 154.781 155.287 155.27C155.726 154.963 161.952 156.694 160.395 159.347C161.101 159.961 161.531 160.912 161.617 161.834C166.772 161.575 176.831 167.751 181.221 170.797C183.794 172.84 185.186 175.786 186.22 178.83L186.464 179.572L186.715 180.334L186.969 181.096C188.369 185.283 189.881 189.431 191.928 193.359C191.973 193.363 192.017 193.37 192.061 193.376C193.418 192.186 195.097 193.33 196.595 193.462C197.029 193.049 197.737 192.944 198.118 193.506L198.145 193.547L179.479 197.222L167.165 240.391L156.441 231.692L150.685 232.547L135.484 238.026L117.805 242.616L77.4445 253.737H72.3048L42.3973 246.519L39.702 245.629C40.592 234.959 44.008 224.518 48.2116 214.708C49.4028 211.267 49.485 207.415 50.6131 203.895C58.9577 166.425 76.1 168.015 106.248 154.686C102.876 151.558 111.104 142.572 111.853 143.52L111.9 143.516L112.002 143.511L112.134 143.506C113.31 143.472 117.365 143.498 117.802 143.547C118.056 143.054 118.333 142.591 118.633 142.155Z" fill="white"/>
<path fill-rule="evenodd" clip-rule="evenodd" d="M255.873 188.912L255.317 192.009C255.185 192.052 255.051 192.089 254.914 192.119C254.74 193.965 254.534 195.813 254.303 197.662L250.856 216.863C250.261 220.26 249.697 223.664 249.136 227.069L248.394 230.727L247.934 233C246.942 237.924 245.977 242.831 245.131 247.711C245.259 247.894 245.358 248.094 245.43 248.303L245.365 248.578L245.32 248.761L245.273 248.943C244.606 251.508 243.444 253.995 240.706 254.75C238.641 255.319 236.375 255.37 234.243 255.595L234.007 255.621L196.693 259.814C192.185 260.321 187.678 260.843 183.172 261.37L179.266 261.828C173.821 262.458 168.345 262.954 162.981 264.095C162.784 264.137 162.62 264.215 162.487 264.319C163.568 260.232 164.602 256.151 165.539 252.023C166.594 247.377 167.595 242.722 168.723 238.092C170.996 228.766 173.544 219.501 176.333 210.316C176.919 208.388 177.517 206.464 178.129 204.544L178.559 203.203L178.889 202.133C179.401 200.503 180.034 198.827 181.534 197.928C183.289 196.876 185.682 196.701 187.673 196.337L189.021 196.084C191.038 195.708 193.057 195.346 195.079 194.999C204.76 193.335 214.495 192 224.266 190.997C234.433 189.954 244.636 189.276 254.852 188.944L255.873 188.912ZM163.26 252.932L163.356 252.939L161.962 264.075C161.739 263.919 161.456 263.823 161.111 263.824C156.539 263.837 152.157 262.377 147.918 260.772L147.272 260.526L145.472 259.835C143.643 259.134 141.804 258.449 139.931 257.881L139.173 257.653L138.788 257.539C137.37 257.125 135.878 256.749 134.402 256.655L134.201 256.644L134.631 256.419C134.694 256.386 134.749 256.349 134.798 256.309C135.61 256.369 136.424 256.353 137.28 256.199C138.891 255.909 140.458 255.349 141.896 254.569L142.539 254.221L142.802 254.082L142.975 253.992L143.148 253.904C144.384 253.289 145.565 252.903 147.125 253.231C148.896 253.604 150.448 254.557 152.044 255.363L152.327 255.504L152.518 255.596L152.712 255.688L152.908 255.777C155.067 256.748 158.502 257.796 159.33 254.863C159.663 253.684 159.402 252.581 158.825 251.613C159.9 251.52 161.821 252.787 163.26 252.932ZM216.993 216.244L217.019 216.378C217.325 218.02 216.559 219.591 215.401 220.736C214.451 221.675 212.769 222.197 212.293 223.549C212.022 224.317 212.31 225.046 212.867 225.555L212.739 225.618L212.613 225.682L212.491 225.747L212.371 225.812L212.255 225.878C210.363 226.964 208.822 228.731 210.528 230.866C212.465 233.287 216.51 233.365 219.361 233.176L219.553 233.163C222.317 232.955 225.591 232.028 227.09 229.477C227.777 228.307 227.701 226.892 226.743 225.89C226.165 225.286 225.134 224.666 224.188 224.593C224.23 224.06 224.166 223.546 223.979 223.112C223.574 222.174 222.495 221.542 221.455 221.519C221.539 219.527 219.942 217.561 218.767 215.968L218.647 215.805L218.53 215.644C217.991 214.894 216.837 215.314 216.993 216.244ZM218.571 218.364L219.642 222.374L219.623 222.407C219.246 223.123 220.235 223.936 220.822 223.334L220.881 223.27C221.577 222.552 222.645 223.518 222.659 224.283C222.678 225.359 221.976 226.192 221.141 226.741L221.082 226.779L220.928 226.875C220.243 227.328 220.762 228.275 221.516 228.16C222.448 228.017 223.213 227.278 223.684 226.355C224.187 226.499 224.76 226.481 225.291 226.778C226.627 227.525 225.858 228.831 224.988 229.621L224.953 229.653L224.882 229.714C223.286 231.075 221.112 231.548 219.063 231.649L218.945 231.654C216.875 231.743 214.179 231.772 212.405 230.556C211.301 229.799 210.981 228.725 211.916 227.708C212.444 227.134 212.977 226.554 213.527 225.994C214.348 226.386 215.083 226.227 215.923 225.856C216.031 225.808 215.971 225.643 215.865 225.643C215.402 225.643 213.7 224.782 213.618 224.233C213.541 223.724 214.482 223.295 214.94 223.049L215.006 223.013L215.064 222.98C215.543 222.69 215.993 222.352 216.405 221.973C217.451 221.011 218.21 219.805 218.542 218.485L218.571 218.364Z" fill="white"/>
<path fill-rule="evenodd" clip-rule="evenodd" d="M118.377 141.548C119.315 139.19 122.489 140.107 122.135 142.583C121.923 144.067 121.11 145.634 120.38 146.934C119.785 147.993 119.107 149.026 118.187 149.819C119.824 151.346 121.523 152.816 123.266 154.213C125.167 155.737 127.167 157.141 129.233 158.432C131.045 159.564 132.939 160.567 134.647 161.859C136.236 163.059 137.683 164.504 138.419 166.389C139.203 168.397 138.862 170.47 138.285 172.476L138.218 172.703C137.628 174.691 136.607 177.087 138.023 178.96C138.744 179.913 139.792 180.589 140.698 181.351C141.502 182.028 142.257 182.765 142.949 183.556C144.459 185.281 145.687 187.222 146.462 189.385L146.532 189.582C147.196 191.496 147.681 193.842 146.784 195.722C146.526 196.26 145.696 196.085 145.552 195.561C145.226 194.372 145.243 193.127 144.969 191.922C144.685 190.668 144.211 189.478 143.593 188.352C142.396 186.174 140.776 184.314 138.862 182.741L138.289 182.275C136.795 181.05 135.423 179.751 135.12 177.724C134.796 175.555 135.665 173.489 136.224 171.436C136.614 170.006 136.741 168.634 136.32 167.341C135.806 168.181 135.104 168.977 134.549 169.687C133.443 171.103 132.328 172.509 131.214 173.919C130.073 175.364 128.96 176.832 127.9 178.338C127.426 179.011 126.957 179.689 126.49 180.367C126.138 180.877 125.648 181.387 125.265 181.907C125.358 182.185 125.351 182.506 125.182 182.733C123.15 185.477 120.259 179.752 119.505 178.305C117.97 175.36 116.827 172.23 115.287 169.285C113.69 166.232 111.873 163.26 109.847 160.473C108.622 158.787 107.248 157.204 106.127 155.464C103.486 157.857 100.011 159.462 96.8191 160.917C93.312 162.515 89.6684 163.821 86.0726 165.207L85.0104 165.619C78.8148 168.036 72.4678 170.691 67.318 174.983C61.2666 180.027 57.6865 187.057 55.0213 194.338C51.9532 202.719 49.415 211.326 47.0489 219.927C45.8381 224.328 44.6892 228.749 43.6091 233.185C42.6574 237.092 41.8685 241.038 40.7667 244.905C43.0012 244.826 45.5496 245.691 47.4573 245.941C56.1516 247.078 64.7289 248.891 72.9374 252.03C73.9513 252.418 74.2447 253.43 74.0239 254.25C74.6086 254.085 75.1929 253.918 75.7776 253.754C75.137 252.773 75.4427 251.019 75.4931 249.932L75.4962 249.857C75.548 248.408 75.7053 246.958 75.8073 245.511C76.0015 242.754 76.2543 240.018 76.5905 237.277L76.6763 236.591C77.0572 233.609 77.3389 230.609 77.7546 227.632L77.8037 227.291C77.6043 226.53 77.3723 225.777 77.1287 225.028C76.4796 223.033 75.5634 221.154 74.7606 219.222C74.6659 218.994 74.9902 218.863 75.1418 219C76.5015 220.222 77.5816 221.773 78.4492 223.395C78.4643 223.319 78.4776 223.242 78.4933 223.165L78.5923 222.678C78.8364 221.491 79.1334 220.241 79.8625 219.277C79.9401 219.175 80.0937 219.154 80.1671 219.277C80.8649 220.458 80.943 221.952 81.0503 223.295C81.1718 224.814 81.187 226.352 81.1656 227.875C81.1238 230.852 80.9138 233.837 80.7465 236.809C80.5825 239.729 80.2602 242.613 79.845 245.504L79.766 246.047C79.563 247.423 79.3968 248.817 79.1291 250.184L79.0534 250.556C78.9103 251.234 78.8222 252.189 78.5373 252.983C85.8686 250.94 93.2112 248.943 100.568 246.981C105.885 245.563 111.207 244.166 116.527 242.76C116.808 242.254 117.158 241.782 117.594 241.36C119.031 239.969 120.936 239.348 122.683 240.419C122.825 240.506 122.837 240.729 122.683 240.813C122.348 240.996 122.013 241.183 121.684 241.379L124.878 240.514C127.266 239.867 129.682 239.059 132.126 238.608C136.628 236.388 141.469 234.781 146.211 233.193L146.77 233.004C149.198 232.177 151.71 231.251 154.218 230.792C156.055 230.456 158.21 230.861 158.949 232.742C159.884 233.357 160.763 234.081 161.612 234.793C162.226 235.307 162.814 235.854 163.412 236.386L163.523 236.483C164.012 236.907 164.399 237.191 164.519 237.866C164.581 238.215 164.359 238.686 163.929 238.64C162.613 238.499 161.542 236.974 160.649 236.063C159.959 235.359 159.264 234.631 158.634 233.858C158.267 234.057 157.764 234.022 157.531 233.579C156.319 231.287 153 232.875 151.164 233.419L148.534 234.197C147.219 234.587 145.904 234.978 144.591 235.377C140.984 236.472 137.395 237.697 133.755 238.702C134.081 239.06 134.036 239.696 133.418 239.938C130.568 241.055 127.443 241.633 124.483 242.4C122.614 242.884 120.747 243.372 118.88 243.862C118.559 244.38 118.329 244.966 118.232 245.649C117.876 248.159 118.563 251.054 119.232 253.481L119.333 253.844C119.883 255.795 120.693 258.187 122.378 259.42C122.789 259.72 123.313 259.929 123.84 259.977C127.138 258.28 130.436 256.584 133.736 254.891C134.347 254.577 134.912 255.002 135.049 255.507C136.213 255.316 137.373 255.015 138.431 254.657C140.207 254.054 141.594 252.904 143.26 252.108C146.482 250.57 149.773 252.46 152.658 253.896L153.323 254.223C154.617 254.85 157.309 256.056 157.93 254.34C158.53 252.68 156.632 250.905 155.406 250.158C153.944 249.268 152.243 248.791 150.591 248.394C149.648 248.167 148.693 247.982 147.733 247.847C146.643 247.693 145.518 247.716 144.469 247.363C143.948 247.188 143.868 246.361 144.469 246.224C146.084 245.857 148.011 246.258 149.696 246.667L150.577 246.884C152.274 247.3 153.988 247.823 155.534 248.653C156.659 249.257 157.845 250.175 158.62 251.298C159.294 250.673 160.131 250.694 161.004 250.926L161.478 251.057C162.26 251.274 162.894 251.423 163.656 251.273C163.757 250.72 163.86 250.166 163.971 249.612C165.055 244.17 166.245 238.749 167.558 233.356C169.822 224.055 172.442 214.855 175.395 205.75L175.692 204.84C176.373 202.758 176.921 200.489 178.019 198.575C179.058 196.766 180.722 195.724 182.699 195.172C184.943 194.546 187.301 194.219 189.59 193.796C190.1 193.701 190.612 193.612 191.123 193.519C190.691 192.74 190.369 191.855 190.079 191.176L190.028 191.059C189.404 189.637 188.843 188.19 188.302 186.736L187.898 185.642C186.92 183.008 185.912 180.418 184.538 177.955C183.092 175.363 181.174 173.243 178.782 171.489C173.907 167.913 168.03 166.088 163.301 162.266C163.108 162.11 163.356 161.842 163.553 161.941C166.746 163.544 170.193 164.635 173.514 165.94L174.169 166.198C176.794 167.238 179.46 168.371 181.732 170.054C184.265 171.932 186.26 174.264 187.76 177.037C189.238 179.77 190.183 182.829 191.226 185.749L191.505 186.527C191.925 187.693 192.36 188.856 192.857 189.991C193.253 190.893 193.99 191.922 194.325 192.951C195.242 192.792 196.159 192.633 197.077 192.479C216.959 189.162 237.062 187.213 257.211 186.642C257.999 186.62 258.407 187.372 258.291 188.059C256.357 199.486 254.639 210.952 252.754 222.388C251.931 227.379 251.091 232.366 250.232 237.351C249.797 239.876 249.294 242.392 248.882 244.921C248.549 246.964 248.307 249.022 247.736 251.017C247.224 252.806 246.438 254.531 245.146 255.896C243.754 257.367 241.811 258.08 239.856 258.416C234.891 259.27 229.798 259.619 224.793 260.188L198.146 263.217C198.536 266.755 198.565 270.237 198.386 273.816L198.284 275.769C198.201 277.341 198.102 278.914 197.876 280.469C197.593 282.42 196.7 284.072 195.384 285.529C194.177 286.867 192.709 288.009 191.282 289.103C189.801 290.239 188.27 291.336 186.528 292.038L186.302 292.128C184.774 292.724 181.908 293.647 179.819 293.31C180.092 294.677 180.62 296.147 180.152 297.5C179.935 298.128 179.113 298.441 178.609 297.907C177.612 296.847 177.534 295.448 177.298 294.066C177.052 292.628 176.84 291.185 176.652 289.738C176.288 286.941 176.004 284.118 175.918 281.297C175.829 278.401 175.863 275.5 176.019 272.606C176.1 271.12 176.199 269.635 176.388 268.158C176.468 267.528 176.551 266.898 176.645 266.27C176.679 266.041 176.717 265.813 176.758 265.586L174.366 265.855C170.699 266.264 167.03 266.634 163.336 266.691C162.899 266.698 162.563 266.499 162.343 266.209C162.108 266.59 161.7 266.863 161.116 266.861C155.959 266.842 151.156 265.156 146.464 263.17C144.1 262.168 141.772 261.084 139.404 260.091C137.194 259.164 134.831 258.503 132.674 257.459L127.005 260.43C126.964 260.576 126.911 260.714 126.854 260.83C126.485 261.583 125.757 261.991 125.014 262.299C124.301 262.595 123.562 262.687 122.842 262.612C118.544 264.863 114.244 267.112 109.942 269.356L105.638 271.598C97.064 276.06 88.5236 280.595 79.8955 284.952L79.2602 285.271C76.28 286.765 73.0799 288.279 69.7726 289.408C69.7138 290.245 69.7509 291.059 69.8211 291.944L69.838 292.137C69.9366 293.183 70.148 294.495 69.308 295.24C68.8711 295.627 68.0906 295.629 67.7935 295.044C67.2543 293.985 67.7384 292.315 67.9092 291.164C67.9698 290.755 68.0437 290.334 68.153 289.926C64.3614 291.054 60.4551 291.601 56.5967 290.968C52.8402 290.351 49.9307 287.986 47.5852 285.093C45.1098 282.041 43.3507 278.483 42.4069 274.669C41.3328 270.329 41.2627 265.847 41.2879 261.402C41.3147 256.668 41.4899 251.911 42.066 247.209C41.4348 247.061 40.7348 246.933 40.097 246.977C39.7811 247.482 39.1683 247.695 38.6145 247.629C37.4103 248.957 40.4647 250.313 41.4408 250.653C41.7797 250.771 41.7435 251.321 41.3525 251.304L41.1063 251.293C39.5981 251.212 38.0398 250.955 37.1531 249.554C36.4424 248.432 36.6559 247.101 37.503 246.186C38.0626 240.899 39.4001 235.75 40.645 230.593C41.8667 225.531 43.2253 220.501 44.6653 215.497L45.3109 213.257C47.5782 205.41 49.948 197.5 53.0756 189.965C54.6373 186.203 56.4363 182.51 58.875 179.229C61.1482 176.171 63.832 173.554 66.9169 171.319C72.6679 167.153 79.4161 164.635 86.0466 162.236L86.3434 162.129C89.7794 160.887 93.207 159.63 96.6038 158.284C99.6079 157.094 102.486 155.584 105.476 154.376C105.379 154.2 105.285 154.022 105.195 153.842L105.14 153.888C105.13 153.896 105.12 153.903 105.11 153.91C104.81 154.118 104.367 154.016 104.119 153.782C103.42 153.122 103.656 152.39 104.123 151.706L104.184 151.618C104.755 150.819 105.265 149.973 105.792 149.145L106.122 148.626C107.007 147.242 107.937 145.848 109.117 144.704C109.664 144.174 110.262 143.777 110.896 143.481C110.841 143.367 111.317 143.133 111.451 143.251C113.459 142.516 115.77 142.67 117.959 142.872M196.857 263.364L194.065 263.681C190.993 264.03 187.92 264.368 184.847 264.703L178.172 265.428C178.155 265.808 178.109 266.18 178.1 266.467C178.057 267.948 178.024 269.429 177.994 270.91C177.932 273.879 178 276.851 178.195 279.814C178.385 282.686 178.634 285.558 179.022 288.409L179.102 288.98L179.148 289.279C179.464 289.31 179.775 289.46 180.034 289.769C180.599 290.443 182.643 289.788 183.441 289.504C184.754 289.037 185.991 288.248 187.132 287.457C188.246 286.685 189.249 285.784 190.213 284.835L191.002 284.055C191.787 283.276 192.572 282.446 193.053 281.465C193.705 280.136 193.79 278.504 193.981 277.057C194.216 275.276 194.496 273.495 194.793 271.723M115.806 244.671L115.517 244.747C104.997 247.541 94.4925 250.417 83.9403 253.087C78.7183 254.409 73.4714 255.635 68.243 256.931L67.3965 257.143C63.2718 258.184 59.0976 259.438 55.939 262.428C55.8224 262.538 55.6532 262.369 55.7629 262.252C59.1671 258.631 64.0086 257.097 68.6571 255.768C69.5164 255.523 70.3768 255.283 71.2363 255.039C64.9143 252.786 58.4925 250.826 51.9225 249.429C50.2307 249.069 48.5192 248.805 46.8288 248.443C45.6498 248.191 44.4985 247.827 43.332 247.525L42.4145 247.294L42.4023 250.192C42.387 254.297 42.3943 258.398 42.6038 262.503L42.6435 263.263C42.888 267.83 43.2696 272.493 44.8914 276.799C46.2093 280.299 48.3099 283.596 51.057 286.145C52.447 287.435 53.9415 288.439 55.7888 288.934C57.504 289.394 59.3011 289.448 61.0644 289.326C69.522 288.736 77.0506 284.144 84.3974 280.343C96.4142 274.125 108.432 267.909 120.461 261.715C120.136 261.493 119.83 261.237 119.551 260.949C117.938 259.284 117.088 257.005 116.529 254.798C115.934 252.449 115.578 249.93 115.537 247.505M131.112 264.116C131.218 264.059 131.341 264.13 131.346 264.25C131.383 265.168 130.876 266.074 130.496 266.901L130.456 266.989C129.995 268.014 129.491 269.025 128.969 270.02C127.926 272.007 126.842 273.974 125.71 275.913C123.435 279.814 120.907 283.55 117.918 286.946C117.243 287.713 116.133 286.73 116.566 285.903C118.655 281.921 121.089 278.162 123.596 274.434C124.85 272.568 126.104 270.7 127.371 268.843C127.9 268.067 128.435 267.295 128.985 266.534L129.316 266.079M255.879 188.923C245.322 189.242 234.778 189.93 224.271 191.008C214.5 192.011 204.765 193.346 195.085 195.01C193.063 195.357 191.043 195.719 189.026 196.095L187.817 196.322C185.799 196.704 183.335 196.862 181.539 197.939C179.645 199.074 179.134 201.447 178.504 203.404C177.763 205.705 177.041 208.013 176.339 210.327C173.549 219.512 171.001 228.777 168.728 238.103C167.6 242.733 166.599 247.388 165.544 252.034C164.607 256.162 163.573 260.243 162.493 264.33C162.626 264.226 162.789 264.148 162.986 264.106C168.351 262.965 173.827 262.469 179.271 261.839L179.798 261.778C185.431 261.116 191.063 260.459 196.699 259.825L234.012 255.632C236.213 255.384 238.57 255.351 240.712 254.761C244.353 253.757 245.206 249.689 245.817 246.449L245.836 246.351C247.677 236.562 249.143 226.688 250.861 216.874M163.361 252.95C161.912 252.855 159.93 251.529 158.831 251.624C159.408 252.592 159.668 253.695 159.335 254.874C158.41 258.153 154.225 256.456 152.209 255.454C150.556 254.633 148.96 253.627 147.13 253.242C145.057 252.807 143.653 253.63 141.902 254.58C140.463 255.36 138.897 255.92 137.286 256.21C136.429 256.364 135.615 256.38 134.803 256.32C134.754 256.36 134.699 256.397 134.636 256.43L134.207 256.655C136.149 256.744 138.128 257.343 139.936 257.892C141.809 258.46 143.649 259.145 145.478 259.846L147.278 260.537C151.717 262.236 156.312 263.849 161.116 263.835C161.461 263.834 161.744 263.93 161.967 264.086M155.256 242.675C156.687 242.5 158.008 242.687 159.152 243.618C160.531 244.741 161.457 246.603 163.44 246.726C164.018 246.761 164.152 247.574 163.578 247.743C162.102 248.18 160.907 247.382 159.902 246.346L159.226 245.64C158.232 244.612 157.315 243.817 155.629 243.878C153.824 243.944 152.015 244.361 150.221 244.573C148.189 244.813 146.157 245.018 144.118 245.195C144.023 245.203 144.007 245.054 144.096 245.032L146.379 244.464M153.874 236.827L154.11 236.804C156.189 236.602 158.089 236.594 159.945 237.712L160.301 237.927C161.975 238.943 163.796 240.141 164.843 241.787C165.014 242.056 164.731 242.373 164.444 242.304C162.433 241.822 160.963 240.347 159.271 239.243C157.373 238.005 155.412 238.209 153.248 238.401C151.153 238.588 149.058 238.844 146.983 239.193C145.033 239.521 143.077 240.038 141.108 240.203L141.109 240.199C140.884 240.199 140.755 239.861 140.985 239.746C142.983 238.749 145.298 238.277 147.472 237.821M217.007 216.299C216.806 215.339 217.988 214.893 218.536 215.655L218.652 215.816C219.836 217.436 221.547 219.469 221.46 221.53C222.5 221.553 223.579 222.185 223.984 223.123C224.172 223.557 224.235 224.071 224.194 224.603C225.139 224.677 226.171 225.297 226.749 225.901C227.707 226.903 227.782 228.318 227.095 229.488C225.596 232.038 222.322 232.966 219.558 233.173L219.46 233.181C216.605 233.378 212.491 233.325 210.534 230.877C208.646 228.515 210.733 226.604 212.873 225.566C212.315 225.057 212.027 224.328 212.298 223.56C212.775 222.208 214.456 221.686 215.406 220.747C216.565 219.602 217.33 218.031 217.025 216.389M218.576 218.375C218.261 219.743 217.488 220.993 216.411 221.984C215.999 222.363 215.548 222.701 215.069 222.991L215.012 223.024C214.587 223.262 213.543 223.709 213.623 224.244C213.706 224.793 215.407 225.654 215.871 225.654C215.976 225.654 216.036 225.819 215.928 225.867C215.088 226.238 214.354 226.397 213.532 226.005C212.983 226.565 212.45 227.145 211.921 227.719C210.987 228.736 211.307 229.81 212.411 230.567C214.184 231.783 216.881 231.754 218.95 231.665C221.034 231.576 223.26 231.112 224.888 229.725L224.958 229.664C225.843 228.878 226.651 227.546 225.296 226.789C224.766 226.492 224.193 226.51 223.689 226.365C223.218 227.289 222.454 228.028 221.521 228.171C220.767 228.286 220.248 227.339 220.934 226.886L221.088 226.79C221.949 226.241 222.684 225.395 222.664 224.293C222.651 223.529 221.582 222.563 220.886 223.281L220.854 223.316C220.272 223.972 219.246 223.145 219.629 222.418L219.647 222.385M82.7115 180.35C82.7088 180.186 82.94 180.124 83.0208 180.266C84.373 182.644 85.0798 185.558 85.8002 188.178C86.5546 190.922 87.1636 193.693 87.7107 196.485C88.8189 202.139 89.4094 207.761 89.4494 213.523C89.455 214.346 88.1138 214.565 87.9826 213.722C87.1116 208.116 86.2771 202.505 85.3995 196.902C84.9579 194.083 84.444 191.276 83.9522 188.466M96.098 184.491C95.9984 184.163 96.4759 184.054 96.598 184.353C99.3117 191.011 100.231 198.555 98.4884 205.579C98.2218 206.653 96.6473 206.187 96.8484 205.127M131.101 178.576C131.088 178.33 131.406 178.292 131.526 178.46C132.812 180.271 133.346 182.696 135.602 183.632C136.728 184.099 137.995 184.018 138.99 184.807C139.656 185.334 140.166 186.168 139.667 186.967C139.506 187.225 139.055 187.354 138.836 187.074C138.517 186.665 138.348 186.175 137.915 185.869C137.304 185.437 136.479 185.41 135.778 185.207C134.872 184.944 134.073 184.484 133.418 183.801M152.583 148.376C152.715 148.309 152.842 148.352 152.927 148.467C153.048 148.63 153.033 148.788 152.885 148.9C153.083 149.305 153.317 150.318 153.35 150.465C153.486 151.063 153.63 151.658 153.781 152.251C154.085 153.449 154.351 154.656 154.655 155.854C154.978 157.124 155.362 158.381 155.79 159.619C155.817 159.699 155.847 159.781 155.879 159.864L155.928 159.99L155.94 159.971C156.027 159.834 156.208 159.929 156.186 160.075C156.167 160.207 156.14 160.338 156.117 160.471L156.162 160.589C156.442 161.341 156.633 162.134 156.12 162.798C155.928 163.046 155.717 163.193 155.454 163.237C155.031 164.628 154.502 165.993 153.935 167.303L153.769 167.686C152.934 169.599 152.045 171.486 150.717 173.114C149.267 174.892 147.272 176.106 146.009 178.054C145.422 178.96 145.013 179.913 144.681 180.936L144.556 181.324C144.321 182.048 144.049 182.75 143.37 183.174C143.153 183.31 142.828 183.266 142.653 183.082C141.26 181.609 142.719 178.859 143.559 177.433C144.726 175.45 146.416 174.182 148.109 172.686C149.933 171.073 151.096 168.916 152.221 166.791C152.911 165.489 153.576 164.159 154.277 162.852C153.545 162.205 153.311 160.921 153.063 160.028L153.04 159.948C152.63 158.518 152.304 157.051 152.099 155.578C151.901 154.162 151.818 152.765 151.87 151.341L151.886 150.978M155.304 155.118C155.143 154.897 155.41 154.646 155.632 154.692C156.981 154.971 158.301 155.787 159.511 156.447L159.641 156.517C160.607 157.038 161.58 157.676 162.087 158.688C162.639 159.788 162.594 161.055 162.519 162.25L162.511 162.362C162.419 163.795 162.404 165.285 162.101 166.692C161.946 167.413 161.293 167.615 160.734 167.445C160.07 169.541 158.205 171.085 156.842 172.739C155.104 174.848 155.431 177.694 155.613 180.234C155.686 181.262 154.407 181.554 153.748 181.006L152.229 179.745C151.976 179.534 151.723 179.324 151.471 179.112C151.256 178.93 151.042 178.748 150.83 178.562L150.513 178.283C150.372 178.157 149.753 177.465 149.572 177.437C149.133 177.367 148.09 178.523 147.733 178.886L147.688 178.931C147.016 179.589 146.409 180.297 145.844 181.048C145.74 181.186 145.537 181.072 145.611 180.912C146.118 179.828 146.707 178.791 147.406 177.821L147.547 177.628C148.013 177.001 148.637 175.895 149.458 175.71C150.461 175.484 151.462 176.489 152.192 177.047L152.238 177.082C152.585 177.342 152.928 177.607 153.271 177.873C153.235 175.983 153.474 174.072 154.451 172.443C155.139 171.294 156.171 170.443 157.054 169.456C158.037 168.356 158.55 167.005 159.44 165.859C159.555 165.712 159.713 165.633 159.884 165.608C159.918 164.687 160.054 163.757 160.159 162.847L160.189 162.574C160.295 161.585 160.545 160.376 160.061 159.449C159.603 158.574 158.552 157.956 157.774 157.363L157.139 156.87M111.519 144.656C111.113 144.891 110.733 145.183 110.389 145.548C109.304 146.697 108.529 148.128 107.775 149.504C107.368 150.245 106.977 150.995 106.567 151.734C106.389 152.056 106.206 152.374 106.021 152.692C105.935 152.838 105.681 153.129 105.555 153.308C105.695 153.504 105.84 153.698 105.988 153.889C106.044 153.962 109.933 158.196 111.289 159.853C113.365 162.392 115.221 165.073 116.807 167.943C118.361 170.754 119.544 173.729 120.983 176.594C121.703 178.028 122.508 179.453 123.533 180.694C123.573 180.742 123.614 180.788 123.655 180.836C124.046 179.779 125.049 178.648 125.542 177.998L125.588 177.937C126.705 176.432 127.884 174.972 129.09 173.538C130.19 172.228 131.319 170.946 132.475 169.685L132.91 169.213C133.716 168.344 134.739 167.043 135.918 166.421C135.792 166.196 135.646 165.974 135.477 165.754C134.373 164.311 132.811 163.264 131.27 162.319L130.27 161.711C126.503 159.417 122.795 157.016 119.524 154.035C117.794 152.458 116.088 150.805 114.633 148.966L114.119 148.315M117.805 143.52C116.04 143.668 114.135 143.633 112.505 144.207C113.954 145.577 115.332 147.055 116.747 148.447C116.873 147.506 117.131 146.576 117.349 145.657" fill="black"/>
<path fill-rule="evenodd" clip-rule="evenodd" d="M171.827 107.015C171.352 102.833 171.967 94.0916 172.008 93.5605C172.269 90.203 170.698 76.9449 167.729 78.1665C162.748 74.2174 156.114 73.3453 149.91 72.9288C137.024 72.0634 123.316 74.05 113.366 82.735C108.446 87.2453 103.655 93.8053 104.04 100.636C99.5693 107.11 93.2665 115.991 98.8369 123.56C100.73 125.978 103.74 126.879 106.118 128.71C110.903 132.575 113.904 138.122 118.734 141.964C131.53 153.48 153.257 155.885 165.829 142.787C175.551 133.301 173.979 119.109 172.269 107.015C171.119 98.8848 172.755 115.174 171.827 107.015Z" fill="#FFDBB4"/>
<path fill-rule="evenodd" clip-rule="evenodd" d="M132.696 55.1934C136.143 54.4969 139.681 54.0635 143.201 54.194L143.472 54.2045C146.12 54.3105 149.473 54.545 151.783 56.0871C151.916 55.9535 152.13 55.885 152.324 55.9776C155.069 57.2899 158.088 58.2386 160.978 59.1814C163.855 60.1196 166.84 60.7389 169.856 60.9885C170.99 61.0825 171.961 62.3094 171.243 63.4098C171.072 63.6721 170.905 63.9369 170.739 64.2025C171.017 64.1735 171.294 64.1437 171.571 64.1156C172.484 64.0236 173.395 64.9989 173.341 65.8886C173.307 66.4483 173.247 67.0012 173.158 67.5476C173.505 67.5403 173.851 67.5925 174.185 67.7338C175.875 68.4486 175.757 70.4649 175.631 71.9989C175.456 74.1277 174.661 76.3825 173.184 77.9758C174.287 79.1222 175.067 80.4913 175.532 82.1173C175.87 83.3046 176.058 84.5694 175.965 85.8053L175.935 86.1754C175.821 87.5167 175.593 89.0016 174.629 89.9665C174.135 90.464 173.525 90.6453 172.945 90.5878C173.296 93.6789 173.521 96.7876 173.733 99.8853L173.832 101.366C174.305 108.525 174.66 115.731 174.567 122.902C174.481 129.604 173.159 136.109 169.055 141.55C165.317 146.505 159.95 150.158 153.879 151.546C150.607 152.296 147.267 152.349 143.956 151.871C142.35 151.639 140.735 151.283 139.211 150.722C137.525 150.098 136.313 149.181 135.178 147.805C134.641 147.153 134.899 145.765 135.968 145.895C137.585 146.091 139.06 146.328 140.61 146.807L140.832 146.877C142.375 147.372 143.973 147.741 145.587 147.898C148.892 148.219 152.247 147.896 155.414 146.892C160.568 145.256 165.008 141.61 167.854 137.029C171.232 131.598 171.613 125.434 171.565 119.19C171.512 112.338 171.29 105.483 170.927 98.638L170.865 97.4974C170.673 93.9752 170.487 90.4507 170.324 86.9263C170.273 85.8208 170.196 84.7064 170.057 83.6031C168.783 82.8558 167.642 81.8254 166.898 80.5541C165.403 81.1732 163.831 81.6198 162.385 81.9758C159.035 82.801 155.557 83.0013 152.147 82.4846C151.228 82.8651 150.29 83.1996 149.337 83.4875C149.08 83.6018 148.822 83.7141 148.565 83.8242C146.269 84.8081 143.94 85.6417 141.516 86.252L140.921 86.4007C139.645 86.7156 138.26 87.0257 136.902 87.1231C136.679 87.2093 136.438 87.2823 136.176 87.3464C134.939 87.6471 133.657 87.7422 132.39 87.6361C131.155 87.5322 130.263 86.2829 130.943 85.1133C131.44 84.2598 131.941 83.4086 132.447 82.5595C130.687 83.2936 128.871 83.9038 127.038 84.4212C125.188 84.943 123.312 85.383 121.433 85.7876C120.428 86.0021 119.419 86.1923 118.417 86.4067C117.7 86.5593 116.598 86.6389 116.013 87.1121C115.366 87.6317 115.183 88.8433 114.938 89.5906C114.615 90.5613 114.313 91.5364 114.037 92.5225C113.487 94.4903 113.037 96.4869 112.688 98.5034C112.339 100.522 112.105 102.561 111.975 104.606C111.845 106.649 111.902 108.705 111.693 110.739C111.58 111.818 110.423 112.373 109.569 111.619C109.469 111.531 109.368 111.441 109.267 111.351L109.118 111.215C108.387 110.551 107.679 109.848 107.094 109.057C106.988 108.911 106.886 108.758 106.791 108.603C106.776 108.603 106.763 108.599 106.747 108.588L106.585 108.466C104.8 107.135 101.817 105.399 100.076 107.611C99.5209 108.315 99.2369 109.212 99.0011 110.077L98.5875 111.626C98.3199 112.637 98.0681 113.654 97.9208 114.688C97.5874 117.005 97.7552 119.676 99.3472 121.534C99.983 122.277 100.859 122.807 101.837 122.947C102.383 123.022 102.921 122.929 103.462 122.86C104.012 122.792 104.542 122.902 105.092 122.849C105.966 122.763 106.348 123.811 106.021 124.47C105.844 124.824 105.637 125.129 105.401 125.388C105.59 125.551 105.772 125.728 105.946 125.914C106.463 126.08 106.926 126.436 107.273 126.907C107.553 127.287 107.699 127.7 107.723 128.136C107.754 128.244 107.78 128.355 107.805 128.468L108.278 129.237C108.383 129.406 108.486 129.573 108.591 129.737C109.796 131.638 111.134 133.248 112.796 134.765C114.397 136.224 116.134 137.531 117.638 139.096L117.815 139.282C119.217 140.761 120.694 142.552 120.146 144.703C120.004 145.256 119.234 145.654 118.731 145.28C117.112 144.078 116.298 142.172 114.925 140.712C113.511 139.209 111.946 137.858 110.529 136.359C109.189 134.944 108.131 133.341 107.335 131.576C107.016 131.928 106.553 132.178 105.911 132.275C104.807 132.441 103.778 131.793 103.297 130.836C102.987 130.973 102.672 131.096 102.354 131.194C100.68 131.707 99.6275 129.843 100.259 128.465C100.597 127.727 101.018 127.086 101.542 126.546C99.9055 126.321 98.2409 125.474 97.1658 124.417C94.4682 121.761 94.0973 117.77 94.7044 114.222C95.0267 112.34 95.5829 110.436 96.305 108.67C96.4306 108.362 96.5655 108.053 96.7132 107.748C96.6315 107.746 96.5476 107.71 96.4946 107.642C96.0067 106.974 95.4131 106.428 95.0508 105.68C94.7174 104.995 94.3468 104.301 94.0838 103.587C93.5432 102.125 93.2783 100.476 93.1016 98.9301C92.7374 95.7661 92.8784 92.622 93.3621 89.4779C94.1854 84.1227 96.1741 78.998 99.1039 74.5011C98.9444 74.4172 98.7915 74.3158 98.649 74.196L98.5787 74.1345L98.4643 74.0311C97.6283 73.2733 97.7005 71.8532 98.4643 71.0857L98.7056 70.8435C99.0111 70.5396 99.2745 70.2988 99.768 69.9678C99.8408 69.9189 99.9152 69.873 99.9905 69.8301C99.7322 69.352 99.6426 68.7931 99.8225 68.1764C100.449 66.0282 103.536 66.1042 105.492 67.041C107.656 65.1066 110.056 63.4273 112.657 62.0675C118.852 58.8305 125.857 56.5731 132.696 55.1934ZM100.674 111.774C101.831 111.396 103.367 112.19 104.407 112.667C105.725 113.273 106.847 114.169 107.933 115.115C108.474 115.588 108.571 116.362 108.436 117.023C108.423 117.089 108.41 117.158 108.394 117.227C108.251 117.932 107.465 118.487 106.769 118.467C105.314 118.427 104.621 117.169 103.798 116.103C103.701 116.276 103.579 116.435 103.429 116.554L103.328 116.634C102.986 116.895 102.609 117.103 102.157 117.083C101.837 117.067 101.531 116.986 101.248 116.837C100.541 116.464 100.23 115.548 100.422 114.803C100.541 114.335 100.815 113.967 101.173 113.713L101.039 113.622C100.754 113.423 100.494 113.213 100.291 112.904L100.246 112.831H100.263C100.042 112.451 100.186 111.933 100.674 111.774Z" fill="black"/>
<path fill-rule="evenodd" clip-rule="evenodd" d="M149.906 134.194C148.419 133.588 147.092 132.577 146.122 131.285C145.784 130.835 145.697 130.361 145.768 129.927C145.847 129.44 146.136 128.997 146.53 128.701C146.925 128.403 147.419 128.257 147.897 128.332C148.312 128.396 148.725 128.624 149.052 129.095L149.12 129.189C149.697 129.969 150.449 130.609 151.305 131.021C152.13 131.419 153.054 131.604 154.009 131.496C155.828 131.291 157.082 130.307 158.415 128.972C158.58 128.803 158.746 128.629 158.912 128.453C159.017 128.293 159.162 128.19 159.324 128.136C159.503 128.076 159.706 128.079 159.892 128.144C160.072 128.207 160.232 128.325 160.34 128.483C160.442 128.633 160.5 128.818 160.481 129.031C160.359 130.415 159.635 131.65 158.607 132.62C157.464 133.697 155.951 134.442 154.525 134.704C152.955 134.991 151.355 134.785 149.906 134.194ZM155.266 112.845C156.937 113.86 159.482 116.226 157.685 118.742C155.569 120.961 152.524 118.417 151.023 117.267C149.631 116.375 148.067 118.668 149.358 119.709C160.204 127.734 164.606 113.11 156.111 111.651C155.176 111.491 154.828 112.531 155.266 112.845ZM135.83 103.509C136.015 101.22 139.504 100.7 139.851 102.966C140.162 104.995 139.796 106.86 138.881 108.687C138.007 110.433 135.81 109.619 135.644 108.029C135.422 105.898 135.715 104.934 135.83 103.509ZM162.393 102.496C162.879 101.859 163.581 101.424 164.423 101.67C167.052 102.438 166.277 106.168 165.354 107.984C164.852 108.971 163.23 109.221 162.497 108.352C161.303 106.936 160.731 104.109 162.249 102.714C162.291 102.642 162.336 102.569 162.393 102.496ZM138.844 93.4899L139.26 93.4172C140.545 93.1952 142.142 92.9818 143.051 94.0141C143.533 94.5616 143.699 95.5791 143.051 96.1031C141.911 97.0251 140.651 96.6678 139.285 96.7459C138.16 96.8104 137.078 96.9966 135.994 97.3064C133.615 97.9858 131.677 99.2262 129.645 100.588C129.378 100.767 129.106 100.426 129.234 100.177C130.406 97.8813 132.679 95.9955 134.956 94.8459C136.171 94.2324 137.5 93.7234 138.844 93.4899ZM159.996 92.4615L160.314 92.5265C163.773 93.2492 168.268 94.6929 169.906 98.089C169.968 98.5692 169.902 98.6721 169.849 98.7393L169.831 98.7617C169.787 98.8191 169.751 98.8983 169.543 98.9636C169.485 98.9499 169.427 98.9353 169.368 98.9198C168.617 98.7232 168.023 98.4522 167.448 98.1711L166.824 97.864C166.101 97.5094 165.371 97.1678 164.597 96.9155C162.946 96.3774 161.248 95.9983 159.524 95.7959C159.15 95.752 158.79 95.626 158.506 95.4099C158.237 95.2048 158.031 94.9209 157.937 94.5435C157.815 94.055 157.85 93.6852 158.112 93.2446C158.31 92.9137 158.592 92.6843 158.916 92.5526C159.246 92.4183 159.622 92.3867 159.996 92.4615Z" fill="black"/>
</svg>
