<svg width="400" height="330" viewBox="0 0 400 330" fill="none" xmlns="http://www.w3.org/2000/svg">
<rect x="286.335" y="197.505" width="49.2977" height="60.6715" fill="black"/>
<path fill-rule="evenodd" clip-rule="evenodd" d="M271.957 138.162C277.271 134.118 290.612 132.299 296.283 136.193C301.885 140.103 302.496 146.427 305.106 152.244C307.569 151.083 311.637 152.745 312.351 155.029C313.236 156.107 313.276 159.133 313.887 160.581C340.461 164.809 344.495 185.514 347.694 209.021C351.925 232.874 361.531 256.675 357.361 281.22C357.904 282.006 358.332 282.77 358.729 283.677C359.678 285.291 358.455 287.575 356.541 287.487C354.063 287.27 351.609 286.973 349.12 286.88C342.218 286.64 335.31 286.669 328.406 286.757L327.464 286.769C292.669 287.202 257.876 288.055 223.079 288.281C221.816 288.283 221.198 287.151 221.367 286.035C221.706 283.788 222.021 281.54 222.35 279.291C214.12 281.464 205.37 282.011 197.163 279.52C196.589 278.935 198.501 279.252 198.804 279.163C191.251 274.005 193.507 263.139 194.176 255.312C198.336 228.494 199.803 198.821 215.877 175.937C222.831 166.598 233.026 159.203 244.741 157.54L245.066 157.495C248.492 157.039 252.309 156.892 255.304 155.029C258.673 152.342 260.108 147.376 263.652 147.33C264.822 147.314 266.414 148.794 268.127 149.798C268.255 147.589 269.446 145.724 269.709 144.011L269.731 143.864C270.005 141.867 269.629 140.07 271.957 138.162ZM329.066 209.729C321.598 204.544 302.307 207.15 301.865 207.44C300.893 208.079 300.474 208.136 299.948 208.966C299.429 209.035 298.91 209.106 298.392 209.18C297.352 209.519 298.123 210.797 299.324 210.341C298.601 213.455 300.728 215.67 301.574 218.749C301.849 219.748 301.584 221.546 301.574 222.568C301.656 223.87 303.097 225.408 302.857 226.715C302.003 231.359 297.371 235.89 299.324 240.395C300.618 242.939 304.509 244.236 307.096 245.101C312.456 247.157 321.796 245.024 324.91 240.395C326.571 237.926 328.496 231.698 329.486 229.766L329.706 226.702C330.247 219.084 330.729 210.883 329.066 209.729Z" fill="#FFDBB4"/>
<path fill-rule="evenodd" clip-rule="evenodd" d="M263.376 147.344L265.513 148.654L277.925 154.786C280.331 155.46 281.534 156.267 281.534 157.207V166.786C281.534 168.067 283.793 170.972 288.309 175.5L292.481 171.343L292.388 170.799C291.991 168.454 291.792 166.885 291.792 166.093C291.792 165.241 295.874 162.006 304.038 156.388L307.61 153.028L307.229 151.87C309.431 151.974 311.819 153.33 312.351 155.029C313.236 156.107 313.276 159.133 313.887 160.581C340.461 164.809 344.495 185.514 347.694 209.021C351.925 232.874 361.531 256.675 357.361 281.22C357.904 282.006 358.332 282.77 358.729 283.677C359.678 285.291 358.455 287.576 356.541 287.487C354.063 287.27 351.609 286.973 349.12 286.88C342.218 286.64 335.31 286.669 328.406 286.757L327.464 286.769C292.669 287.202 257.876 288.055 223.079 288.281C221.816 288.283 221.198 287.151 221.367 286.035C221.706 283.788 222.021 281.54 222.35 279.291C214.12 281.464 205.37 282.011 197.163 279.52C196.589 278.935 198.501 279.252 198.804 279.163C191.251 274.005 193.507 263.139 194.176 255.312C198.336 228.494 199.803 198.821 215.877 175.937C222.831 166.598 233.026 159.203 244.741 157.54L245.066 157.495L245.394 157.453C248.733 157.028 252.404 156.833 255.304 155.029C258.584 152.413 260.031 147.637 263.376 147.344ZM293.117 203.563C291.9 203.563 289.406 205.452 285.637 209.231L285.305 209.384C280.749 211.499 277.731 213.334 276.25 214.889L276.197 214.945C274.702 216.548 271.74 220.812 267.312 227.737L260.899 231.527H258.473L256.746 244.049L260.899 252.991L270.308 249.824L285.637 245.785L294.434 236.866L299.396 235.202C298.794 236.94 298.576 238.669 299.324 240.395C300.618 242.939 304.509 244.236 307.096 245.101C312.456 247.157 321.796 245.024 324.91 240.395C326.571 237.926 328.496 231.698 329.486 229.766L329.77 225.785C330.282 218.439 330.662 210.837 329.066 209.729C321.598 204.544 302.307 207.15 301.865 207.44C300.893 208.079 300.474 208.136 299.948 208.966L299.676 209.002L301.207 206.927L300.665 206.638C296.797 204.588 294.281 203.563 293.117 203.563ZM299.324 210.341C298.632 213.323 300.551 215.48 301.459 218.36L299.14 213.922L299.14 210.399C299.2 210.384 299.261 210.365 299.324 210.341Z" fill="white"/>
<path fill-rule="evenodd" clip-rule="evenodd" d="M262.351 146.881C262.866 146.424 263.629 146.998 263.302 147.614C262.565 148.999 261.81 150.312 260.822 151.537C260.223 152.279 259.581 152.981 258.931 153.676C260.6 155.119 262.031 156.91 263.383 158.589C265.111 160.737 266.745 162.975 268.686 164.94C270.599 166.878 272.715 168.232 275.273 169.136L275.79 169.315C278.36 170.217 281.107 171.435 282.555 173.866C282.841 174.346 282.266 174.939 281.782 174.639C279.265 173.082 276.307 172.768 273.567 171.739C270.921 170.745 268.613 169.215 266.575 167.262C264.54 165.312 262.831 163.094 261.048 160.923C259.286 158.776 257.388 156.942 255.303 155.126C252.085 157.289 248.413 158.23 244.679 159.155L244.271 159.255C240.532 160.181 236.813 161.255 233.305 162.866C230.213 164.286 227.171 165.982 224.652 168.293C221.978 170.746 219.897 173.878 217.992 176.942C213.73 183.796 210.735 191.304 208.097 198.904C205.354 206.809 203.06 214.872 201.208 223.031C200.266 227.182 199.501 231.361 198.872 235.57C198.569 237.597 198.3 239.629 198.064 241.665C197.812 243.839 197.754 246.075 197.087 248.166C196.801 249.062 196.125 249.433 195.449 249.402L195.312 251.118C195.13 253.407 194.96 255.697 194.902 257.999C194.807 261.829 194.85 265.647 195.126 269.468L195.165 269.989C195.382 272.778 195.866 275.911 197.964 277.953C200.137 280.068 203.478 280.733 206.407 280.771C213.229 280.86 219.795 277.639 225.831 274.813C232.048 271.902 238.095 268.672 243.997 265.169C247.002 263.384 249.975 261.541 252.911 259.643C254.351 258.712 255.781 257.765 257.201 256.803C258.014 256.251 258.784 255.647 259.612 255.158C259.207 254.781 259.026 254.187 259.365 253.669C256.972 251.593 255.977 247.889 255.86 244.892C255.766 242.473 256.122 240.06 256.404 237.664C256.545 236.455 256.721 235.249 256.903 234.046C256.974 233.571 257.029 233.062 257.113 232.56C250.652 236.109 244.01 239.269 237.192 242.076C233.698 243.516 230.158 244.809 226.57 245.995L225.842 246.234C222.442 247.347 218.961 248.397 215.446 249.033C215.258 249.067 215.105 248.79 215.306 248.701C218.731 247.191 222.276 245.917 225.752 244.526L226.324 244.293C226.258 244.289 226.19 244.28 226.119 244.263C224.08 243.772 222.057 243.014 220.057 242.375C218.201 241.783 216.115 241.411 214.381 240.517C214.247 240.448 214.322 240.263 214.452 240.254C216.402 240.119 218.519 240.687 220.43 241.021L221.149 241.147C222.352 241.359 223.582 241.587 224.779 241.884C224.822 241.483 225.046 241.081 225.365 240.844C228.873 238.248 228.517 233.003 228.892 229.136L229.171 226.265C229.66 221.24 230.178 216.216 230.964 211.229C231.006 210.963 231.419 211.039 231.42 211.29C231.461 217.473 230.994 223.626 230.76 229.799L230.724 230.811C230.594 234.62 230.493 238.575 228.093 241.506C228.428 241.31 228.882 241.31 229.154 241.633C229.488 242.03 229.681 242.476 229.675 242.914C231.844 242.005 234.003 241.073 236.152 240.122C243.061 237.063 249.825 233.639 256.41 229.935C257.118 229.537 257.792 229.85 258.142 230.376L258.193 230.368C258.202 230.367 258.21 230.366 258.219 230.366L258.269 230.364C258.271 230.364 258.273 230.364 258.275 230.364C259.202 229.855 260.464 230.218 261.26 230.96C261.283 230.983 261.303 231.007 261.324 231.03C262.331 230.579 263.272 229.969 264.125 229.196C265.871 227.614 267.35 225.658 268.64 223.697C271.015 220.084 273.032 216.067 276.239 213.094C278.846 210.678 282.077 209.174 285.467 208.229C285.453 208.131 285.491 208.025 285.559 207.955C285.733 207.777 285.857 207.715 286.082 207.823C286.1 207.832 286.111 207.844 286.118 207.857L286.449 207.292C286.63 206.985 286.815 206.677 286.879 206.596C287.264 206.111 287.66 205.631 288.063 205.16C288.744 204.364 289.521 203.577 290.421 203.025C292.391 201.816 294.461 202.5 296.486 203.161C297.71 203.56 298.93 203.973 300.151 204.378L300.277 204.419C301.188 204.712 302.254 204.968 302.661 205.932C302.822 206.314 302.847 206.71 302.772 207.094C311.423 204.896 321.031 205.906 329.472 208.487C329.796 208.586 330.12 208.852 330.188 209.202C331.155 214.159 331.586 219.243 331.148 224.284C330.771 228.636 329.806 232.901 327.988 236.886L327.884 237.111C326.175 240.803 323.467 245.355 319.331 246.512C316.834 247.211 314.072 246.799 311.525 246.671C309.049 246.546 306.519 246.528 304.067 246.139C301.883 245.793 299.97 244.815 298.62 243.04C297.456 241.509 296.843 239.659 296.341 237.818C296.111 237.891 295.882 237.969 295.658 238.057C294.709 238.427 293.905 239.025 293.178 239.728C291.644 241.214 290.453 243.018 288.847 244.435C287.394 245.718 285.738 246.716 283.961 247.483C280.279 249.073 276.33 249.708 272.436 250.551L272.164 250.61C269.233 251.253 266.24 252.042 263.653 253.568C263.602 254.017 263.398 254.439 263.069 254.716C263.526 255.144 263.719 255.823 263.318 256.459C262.198 258.236 260.268 259.247 258.536 260.383L258.423 260.457C256.719 261.586 255 262.693 253.267 263.777C249.744 265.982 246.148 268.065 242.5 270.056C236.634 273.259 230.641 276.28 224.541 279.021C224.907 280.821 224.773 282.678 225.048 284.49L225.09 284.749C225.208 285.421 225.049 285.984 224.586 286.424L224.537 286.469L224.537 286.463L224.494 286.503L224.479 286.515L224.484 286.511C224.431 286.56 224.376 286.605 224.319 286.644L224.248 286.69C223.801 286.962 223.226 286.958 222.769 286.719L222.717 286.69L222.629 286.64C222.025 286.293 221.609 285.432 221.859 284.749C222.475 283.069 222.708 281.276 223.277 279.585L222.825 279.787L222.231 280.046C215.799 282.825 208.654 285.166 201.646 283.271C198.55 282.434 195.655 280.662 194.106 277.775C192.582 274.933 192.366 271.634 192.285 268.474C192.185 264.573 192.394 260.613 192.909 256.745C193.255 254.149 193.673 251.504 194.317 248.935C193.986 248.643 193.742 248.224 193.677 247.704C193.373 245.25 193.906 242.699 194.232 240.258C194.55 237.875 194.902 235.496 195.3 233.125C196.103 228.336 197.036 223.557 198.122 218.824C200.056 210.401 202.609 202.128 205.684 194.052L205.953 193.349C208.793 185.967 212.082 178.743 216.662 172.258C218.853 169.156 221.169 166.343 224.265 164.108C227.165 162.013 230.436 160.505 233.812 159.352C237.192 158.198 240.665 157.425 244.2 156.944C247.79 156.456 251.58 156.157 254.929 154.685C254.505 153.926 254.869 152.901 255.582 152.43C257.981 150.846 260.2 148.785 262.351 146.881ZM339.162 215.775C339.262 215.623 339.501 215.719 339.457 215.9C338.29 220.678 337.194 225.466 336.479 230.335C335.187 239.124 335.425 248.027 335.531 256.881L335.536 257.339C335.59 262.108 335.665 266.877 335.823 271.644C335.903 274.053 336.061 276.486 335.975 278.897C335.928 280.204 335.579 281.441 335.456 282.733C335.348 283.863 335.444 285.01 335.498 286.141C335.534 286.894 334.423 286.861 334.348 286.141L334.251 285.21C334.126 284.031 333.971 282.86 333.584 281.732C333.119 280.375 332.896 279.042 332.735 277.617C332.488 275.434 332.378 273.229 332.283 271.031L332.218 269.51C331.82 260.322 331.834 251.091 332.478 241.913L332.525 241.258C333.163 232.582 334.27 223.209 339.162 215.775ZM314.286 161.096C313.981 160.971 314.088 160.51 314.425 160.591L315.039 160.737C319.537 161.814 323.953 162.98 328.152 164.984C332.353 166.989 335.91 169.982 338.736 173.662C344.23 180.816 346.513 189.51 348.315 198.196C350.318 207.848 352.141 217.535 354.162 227.183L354.537 228.98C356.406 237.967 358.171 246.959 359.472 256.052L359.565 256.711C360.877 266.062 361.666 275.736 360.235 285.111C359.951 286.966 356.863 286.504 356.984 284.672C357.333 279.374 357.582 274.104 357.341 268.795C357.099 263.485 356.601 258.197 355.858 252.933C355.233 248.503 354.301 244.129 353.476 239.734L353.347 239.04C352.656 235.302 351.944 231.568 351.234 227.833L350.173 222.242C348.581 213.87 346.959 205.491 345.126 197.171L345.017 196.682C343.224 188.678 340.579 180.294 335.198 173.938C329.738 167.487 321.921 164.239 314.286 161.096ZM294.444 245.993C294.576 245.7 295.035 245.732 295.176 245.993C295.73 247.013 295.791 248.316 295.896 249.467L295.907 249.586C296.04 250.992 296.158 252.402 296.23 253.812C296.366 256.488 296.432 259.161 296.424 261.841C296.415 264.587 296.36 267.33 296.211 270.072L296.171 270.806C296.036 273.189 295.809 275.847 294.676 277.93C294.265 278.688 293.144 278.465 292.906 277.699C292.124 275.191 292.526 272.218 292.726 269.65L292.882 267.646C293.036 265.641 293.183 263.636 293.299 261.629C293.459 258.884 293.591 256.136 293.718 253.389C293.759 252.497 293.803 251.605 293.851 250.713L293.923 249.375C293.985 248.256 293.979 247.027 294.444 245.993ZM206.581 249.547L206.927 249.213C207.989 248.174 209.331 246.575 210.901 246.674C211.527 246.714 211.926 247.233 211.796 247.848C211.519 249.164 210.175 249.847 209.209 250.651C208.15 251.53 207.151 252.471 206.155 253.42C205.271 254.262 204.421 255.128 203.592 256.021L203.281 256.357C202.984 256.681 200.866 258.595 201.095 259.092L201.108 259.114C201.171 259.209 201.065 259.34 200.96 259.307C200.045 259.018 200.102 258.235 200.448 257.441C201.112 255.916 202.276 254.505 203.291 253.203C204.305 251.904 205.401 250.694 206.581 249.547ZM297.758 211.304C297.051 209.634 294.446 209.669 292.967 209.768C289.243 210.02 285.213 210.962 281.9 212.701C278.464 214.505 276.15 217.395 274.079 220.59L273.983 220.74C271.964 223.876 270.021 227.587 266.86 229.743C265.251 230.841 263.371 231.844 261.418 232.278C261.284 232.514 261.067 232.701 260.782 232.768L260.65 232.799C260.094 232.921 259.229 233.057 258.483 232.976C258.488 233.341 258.484 233.703 258.493 234.049C258.52 235.039 258.531 236.034 258.531 237.026C258.531 239.103 258.42 241.184 258.506 243.261C258.583 245.099 258.843 247.018 259.725 248.66C260.373 249.865 261.227 250.663 262.259 251.424C264.796 249.878 267.665 248.936 270.576 248.228C274.098 247.372 277.704 246.8 281.145 245.639C282.801 245.079 284.394 244.348 285.836 243.354C287.368 242.299 288.537 240.871 289.741 239.474L289.929 239.257C291.157 237.85 292.497 236.503 294.232 235.74C295.727 235.082 297.697 234.965 299.004 233.948C299.687 233.416 299.745 232.643 299.816 231.852C298.979 231.972 298.093 231.78 297.259 231.683L296.827 231.632C296.038 231.538 295.268 231.435 294.491 231.235C294.347 231.198 294.347 230.98 294.491 230.943C295.409 230.706 296.318 230.605 297.259 230.495L297.48 230.468C298.332 230.356 299.226 230.188 300.061 230.375C300.211 229.805 300.427 229.261 300.731 228.716C301.157 227.951 301.963 227.083 302.072 226.19C302.105 225.923 302.042 225.608 301.916 225.372L301.873 225.291C301.82 225.196 301.757 225.101 301.666 225.042C301.656 225.053 301.634 225.067 301.587 225.082C300.945 225.284 300.384 224.969 300.087 224.485C298.824 224.642 297.445 224.589 296.261 224.641L295.063 224.699C293.784 224.758 292.446 224.783 291.243 224.525C291.075 224.489 291.025 224.21 291.193 224.138C292.671 223.506 294.464 223.304 296.047 223.062C296.931 222.926 297.821 222.823 298.708 222.703C299.298 222.624 299.925 222.492 300.536 222.461C302.07 220.553 301.243 217.543 299.109 216.722C298.332 217.063 297.633 216.865 296.784 216.792C295.936 216.719 295.086 216.67 294.235 216.674C292.529 216.681 290.722 217.129 289.033 216.936C288.758 216.905 288.503 216.54 288.776 216.317C290.069 215.262 291.922 214.918 293.563 214.694L293.903 214.648C294.453 214.576 295.122 214.471 295.816 214.408C295.973 214.102 296.255 213.871 296.678 213.814C296.804 213.796 296.93 213.786 297.056 213.776L297.054 213.763C298.086 213.714 298.041 211.972 297.758 211.304ZM227.134 243.883C227.115 243.911 227.095 243.937 227.074 243.963L227.041 244.001L227.211 243.932L227.134 243.883ZM315.76 207.571C311.418 207.105 307.069 207.203 302.714 207.329C302.366 208.467 301.154 209.438 299.979 209.474C300.899 210.874 300.994 212.768 300.349 214.252C301.719 214.797 302.899 215.776 303.615 217.17C304.609 219.103 304.479 221.253 303.497 223.04C304.335 223.798 304.829 225.029 304.78 226.19C304.724 227.484 303.953 228.589 303.311 229.661C302.618 230.819 302.595 231.84 302.382 233.137C302.071 235.037 300.789 236.189 299.14 236.908L299.227 237.253C299.653 238.907 300.182 240.652 301.397 241.861C302.96 243.418 305.385 243.403 307.451 243.502L307.551 243.507C309.442 243.601 311.332 243.712 313.223 243.819L314.641 243.898C316.818 244.018 318.908 244.032 320.686 242.594C323.587 240.246 325.576 236.361 326.835 232.921C329.477 225.702 329.509 217.779 328.296 210.26C324.228 208.95 320.008 208.027 315.76 207.571ZM279.65 219.549L279.682 219.551C280.576 219.653 281.19 220.377 281.409 221.235C281.727 222.482 281.571 223.61 282.335 224.736C283.122 225.894 283.605 226.821 283.719 228.252C283.766 228.84 283.745 229.428 283.876 230.004L283.971 230.407C284.072 230.838 284.155 231.252 284.104 231.715C284.059 232.136 283.853 232.464 283.43 232.599C282.052 233.04 280.987 232.025 280.631 230.741C280.324 229.632 280.735 228.311 280.301 227.27C280.06 226.692 279.617 226.21 279.366 225.628C279.118 225.053 278.993 224.451 278.953 223.825C278.878 222.641 279.926 221.218 279.341 220.145C279.217 219.916 279.358 219.542 279.65 219.549ZM261.34 207.329C262.274 207.139 263.333 206.705 264.253 207.066C264.727 207.252 264.96 207.829 264.561 208.229C263.866 208.925 262.858 208.963 261.923 209.127L261.841 209.142C260.735 209.347 259.628 209.54 258.519 209.724C256.433 210.069 254.341 210.375 252.243 210.634C250.088 210.901 247.926 211.138 245.762 211.317L244.924 211.385C243.096 211.532 241.193 211.642 239.4 211.362C239.139 211.321 239.181 210.942 239.4 210.875C241.365 210.281 243.521 210.122 245.552 209.87C247.712 209.602 249.869 209.319 252.02 208.984C254.167 208.648 256.311 208.289 258.448 207.891C259.414 207.712 260.378 207.524 261.34 207.329ZM295.021 205.42C294.202 205.131 293.301 204.701 292.413 204.845C290.883 205.093 289.52 206.583 288.309 207.564L288.917 207.446C292.03 206.848 296.152 206.204 298.765 208.182C298.772 208.171 298.777 208.159 298.784 208.148C298.995 207.828 299.24 207.578 299.506 207.304C299.532 207.28 299.556 207.255 299.581 207.23L299.725 207.077L299.395 206.963C298.69 206.714 297.855 206.392 297.723 206.345L297.714 206.342C296.815 206.038 295.915 205.737 295.021 205.42ZM269.446 140.215C269.318 138.568 271.882 138.582 272.009 140.215C272.286 143.78 271.483 147.311 269.756 150.436C269.743 150.459 269.729 150.479 269.716 150.501C270.796 151.063 271.889 151.602 273.007 152.084C274.436 152.701 275.892 153.262 277.374 153.739C278.715 154.17 280.367 154.34 281.494 155.237C283.871 157.129 282.978 161.054 282.52 163.599L282.449 164C282.221 165.31 282.057 166.653 282.609 167.91C283.199 169.252 284.392 170.248 285.456 171.208L285.671 171.403C286.613 172.261 287.691 173.304 288.382 174.468C289.013 173.163 289.874 172.098 290.783 170.898C291.432 170.041 290.97 169.759 290.504 168.923C290.055 168.118 289.836 167.259 289.977 166.341C290.236 164.645 291.592 163.419 292.942 162.499C294.537 161.412 296.316 160.607 297.965 159.596C301.352 157.519 304.65 155.144 307.622 152.507C307.704 152.434 307.846 152.529 307.781 152.629C305.433 156.198 302.681 159.281 299.297 161.899C297.926 162.96 296.485 163.841 295.034 164.766L294.617 165.033C294.035 165.411 293.308 165.915 293.045 166.557C292.78 167.202 293.345 167.69 293.649 168.225C294.615 169.923 294.149 171.508 293.004 172.948L292.95 173.015C291.812 174.416 290.95 175.719 290.538 177.51C289.651 181.356 290.886 185.362 292.178 188.973L292.229 189.115C292.928 191.062 293.671 192.994 294.278 194.971L294.445 195.518C294.996 197.337 295.446 199.132 294.829 201.002C294.619 201.638 293.751 201.789 293.39 201.19C292.118 199.078 291.801 196.537 291.004 194.216C290.226 191.954 289.334 189.732 288.584 187.46C287.617 184.535 286.97 181.387 287.321 178.319C287.311 178.301 287.299 178.284 287.291 178.265L287.045 177.727C286.374 176.271 285.726 174.999 284.506 173.838C283.233 172.627 281.851 171.555 280.85 170.089C278.675 166.904 280.02 163.362 280.283 159.88L280.313 159.453C280.361 158.73 280.387 157.748 279.914 157.247C279.383 156.684 278.136 156.54 277.431 156.291C275.609 155.646 273.813 154.895 272.102 153.993C270.474 153.135 268.896 152.187 267.428 151.076L266.683 150.516C265.509 149.63 264.291 148.663 263.504 147.458C263.413 147.319 263.567 147.095 263.732 147.161C265.046 147.694 266.247 148.542 267.476 149.28C267.495 149.235 267.517 149.189 267.542 149.144C269.064 146.392 269.689 143.344 269.446 140.215ZM311.421 159.065C311.945 157.63 314.331 157.741 314.235 159.446C314.162 160.755 313.606 161.938 313.097 163.127L313.043 163.254C312.518 164.493 311.911 165.657 311.185 166.792C309.798 168.963 308.174 170.978 306.438 172.879C304.865 174.603 302.8 175.657 300.421 175.482C299.418 175.408 298.406 175.153 297.528 174.652C296.484 174.058 295.351 172.272 294.02 172.705C293.891 172.746 293.771 172.558 293.882 172.469C295.419 171.232 297.163 173.15 298.635 173.612C300.852 174.308 303.127 173.538 304.554 171.747C306.044 169.877 307.415 167.782 308.668 165.746C309.304 164.712 309.884 163.639 310.385 162.533C310.891 161.416 311.005 160.203 311.421 159.065ZM307.847 150.235C307.783 150.037 308.029 149.848 308.203 149.961C309.213 150.618 310.088 151.487 311.019 152.247C312.053 153.092 313.094 153.919 314.151 154.733C315.692 155.92 313.905 158.106 312.548 156.809C310.692 155.035 308.658 152.715 307.847 150.235ZM302.303 143.29C302.713 141.709 305.139 142.361 304.786 143.923L304.774 143.971C304.105 146.552 305.058 149.18 307.095 150.853L307.17 150.914C308.458 151.944 306.633 153.745 305.357 152.725C302.573 150.498 301.414 146.714 302.303 143.29Z" fill="black"/>
<path fill-rule="evenodd" clip-rule="evenodd" d="M328.253 130.13C327.402 128.869 325.351 119.717 324.042 118.309C324.14 112.902 325.633 94.1832 321.37 85.7684C322.267 84.8603 324.65 77.0387 324.042 74.0818C326.05 67.8894 313.149 58.0543 308.24 55.3967C285.421 43.1422 252.356 56.669 241.978 79.3703C235.742 93.0418 235.628 108.349 234.922 123.059C234.839 126.208 234.55 129.382 234.553 132.527C235.004 135.29 237.192 138.105 235.534 140.403C233.701 141.672 229.998 144.764 231.647 146.517C232.613 147.323 234.157 146.855 235.205 147.63C235.739 147.929 236.072 148.585 236.696 148.685C242.399 148.468 246.423 148.449 252.143 148.218C254.648 148.135 258.461 149.196 261.335 147.084C271.375 152.677 267.176 144.563 269.206 138.786C275.388 140.88 287.704 147.556 294.294 147.771C299.649 148.434 304.657 145.311 309.922 146.022C316.462 148.455 324.127 148.996 330.118 144.879C331.614 143.8 333.277 145.05 335.161 143.885C338.824 142.131 330.102 132.076 328.253 130.13Z" fill="#FFDBB4"/>
<path fill-rule="evenodd" clip-rule="evenodd" d="M241.978 79.3703C252.356 56.669 285.421 43.1422 308.24 55.3967C313.149 58.0543 326.05 67.8894 324.042 74.0818C324.501 76.3171 323.252 81.3325 322.227 84.0396C317.469 87.5612 303.577 86.8302 280.55 81.8469L279.666 81.6545L271.803 86.3209L268.573 98.4764C266.404 100.625 264.652 103.249 263.316 106.347C263.316 106.347 260.065 102.771 255.246 103.227C252.112 104.563 249.804 106.019 248.323 107.594C246.871 109.138 246.842 112.599 248.236 117.977L248.323 118.309L255.246 120.468H258.458L267.284 131.271L268.573 142.383C268.283 147.248 269.379 151.565 261.335 147.084C258.461 149.196 254.648 148.135 252.143 148.218C246.423 148.449 242.399 148.468 236.696 148.685C236.072 148.585 235.739 147.929 235.205 147.63C234.157 146.855 232.613 147.323 231.647 146.517C229.998 144.764 233.701 141.672 235.534 140.403C237.192 138.105 235.004 135.29 234.553 132.527C234.55 129.382 234.839 126.208 234.922 123.059L234.985 121.734C235.64 107.432 235.93 92.6317 241.978 79.3703ZM322.118 123.386L324.128 115.761L324.083 116.908C324.064 117.441 324.049 117.911 324.042 118.309C325.351 119.717 327.402 128.869 328.253 130.13L328.438 130.327C330.614 132.672 338.714 142.184 335.161 143.885C333.277 145.05 331.614 143.8 330.118 144.879C324.127 148.996 316.462 148.455 309.922 146.022C309.155 145.918 308.393 145.896 307.636 145.932L307.323 144.952L314.481 138.786L322.118 123.386Z" fill="#FFEA9F"/>
<path fill-rule="evenodd" clip-rule="evenodd" d="M320.776 85.0503C320.695 84.5832 321.337 84.2349 321.586 84.7082C323.392 88.1465 324.115 92.1284 324.754 95.9262C325.4 99.764 325.827 103.618 325.851 107.514C325.869 110.51 325.597 113.542 325.087 116.541L325.149 116.754C325.264 117.146 325.379 117.538 325.496 117.929L325.672 118.516C326.013 119.643 326.336 120.775 326.686 121.899C327.416 124.246 328.185 126.598 329.128 128.869C330.047 131.084 331.165 133.221 332.494 135.218C333.775 137.143 335.808 138.771 336.711 140.909C337.025 141.654 336.56 142.639 335.691 142.52C335.635 142.588 335.549 142.638 335.432 142.648C334.757 142.707 334.125 142.651 333.452 142.588C333.076 142.552 333.077 142.038 333.452 142.003C333.738 141.976 334.016 141.952 334.295 141.936C332.37 140.794 330.997 138.563 329.899 136.737C328.488 134.391 327.422 131.828 326.553 129.236C325.661 126.575 325.029 123.858 324.522 121.099C324.464 120.782 324.408 120.464 324.355 120.146C323.713 122.877 322.887 125.558 321.908 128.134L321.771 128.493C319.515 134.352 316.458 140.267 311.374 144.14C311.144 144.316 310.908 144.483 310.67 144.646L310.96 144.812C311.247 144.976 311.531 145.134 311.808 145.264C312.836 145.744 313.951 146.11 315.054 146.369C317.332 146.905 319.725 146.751 322.049 146.826C322.812 146.85 323.245 147.995 322.466 148.367C319.899 149.591 317.126 149.332 314.476 148.47C313.164 148.043 311.934 147.446 310.796 146.667C310.325 146.345 309.778 145.947 309.317 145.488C304.233 148.337 297.914 148.656 292.255 147.637C289.314 147.107 286.465 146.14 283.958 144.486C281.546 142.895 279.827 140.881 278.6 138.271C278.491 138.04 278.794 137.752 278.979 137.978C282.834 142.667 289.468 144.623 295.305 144.996C298.419 145.194 301.604 145.029 304.598 144.096C307.438 143.211 309.875 141.588 311.91 139.429C316.034 135.053 318.506 129.101 320.28 123.437C322.211 117.274 323.131 110.79 323.32 104.341C323.416 101.074 323.295 97.7788 322.783 94.5475C322.275 91.3429 321.331 88.2414 320.776 85.0503ZM262.979 57.2897C263.252 57.1507 263.444 57.5124 263.212 57.6903C258.405 61.3825 254.1 66.0641 250.616 71.0191C244.19 80.1579 240.069 90.7333 238.171 101.722C237.051 108.212 236.758 114.799 236.87 121.375C236.915 123.988 237.064 126.592 237.229 129.197L237.416 132.085C237.503 133.43 237.576 134.764 237.52 136.116L237.504 136.428C237.415 138.001 237.57 139.587 237.176 141.122C236.974 141.909 235.866 142.033 235.464 141.346C235.386 141.211 235.312 141.073 235.241 140.932C234.3 142.469 233.082 143.842 231.731 145.069C232.377 144.931 233.029 144.843 233.699 144.923C234.76 145.051 235.712 145.461 236.386 146.181C237.055 145.879 237.742 145.671 238.533 145.667C239.115 145.664 239.552 146.353 239.22 146.866C238.557 147.888 237.632 148.461 236.581 149.028C235.836 149.429 234.947 149.086 234.672 148.292L234.656 148.244C234.346 147.239 232.7 147.401 231.923 147.557L231.695 147.604C230.249 147.905 228.837 148.291 227.364 147.893C226.413 147.636 226.165 146.204 227.081 145.728C229.975 144.227 232.404 142.209 234.9 140.184C234.349 138.83 234.036 137.318 233.675 135.942C233.167 134.005 233.019 131.92 232.835 129.93C232.487 126.147 232.354 122.323 232.391 118.524C232.518 105.696 234.708 92.8271 240.304 81.2102C242.756 76.1213 245.976 71.4124 249.783 67.2444C253.567 63.1009 257.987 59.8289 262.979 57.2897ZM258.499 120.116C258.35 119.91 258.64 119.637 258.843 119.771C263.243 122.665 266.296 127.06 268.266 131.888C270.216 136.668 271.414 142.523 269.491 147.507C269.184 148.301 267.718 148.596 267.568 147.507C266.898 142.646 266.794 137.777 265.319 133.051C263.858 128.366 261.357 124.075 258.499 120.116ZM255.087 135.898C255.111 135.812 255.251 135.827 255.245 135.92C255.135 137.634 255.06 139.369 254.845 141.074C254.741 141.902 254.602 142.726 254.484 143.552C254.364 144.4 254.382 145.256 253.89 145.98C253.238 146.94 251.505 146.67 251.563 145.349C251.603 144.438 252.021 143.853 252.413 143.053C252.664 142.54 252.883 142.01 253.094 141.478L253.408 140.679C254.031 139.096 254.628 137.539 255.087 135.898ZM247.209 131.357C247.235 131.222 247.453 131.255 247.446 131.389C247.329 133.815 247.055 136.215 246.628 138.605C246.432 139.695 246.205 140.779 245.964 141.86L245.86 142.323C245.603 143.461 245.437 144.799 244.86 145.815C244.284 146.832 242.916 146.094 243.094 145.069C243.301 143.874 244.033 142.671 244.459 141.522C244.852 140.462 245.196 139.383 245.517 138.299C246.193 136.017 246.748 133.692 247.209 131.357ZM261.88 138.093L261.931 138.041C262.132 137.823 262.43 137.968 262.526 138.198C262.917 139.14 262.721 140.252 262.693 141.253L262.688 141.471C262.667 142.484 262.682 143.434 262.223 144.37C261.666 145.506 260.197 144.8 260.084 143.789C259.96 142.686 260.481 141.606 260.817 140.573C261.031 139.917 261.186 139.234 261.511 138.638C261.233 138.686 260.956 138.782 260.702 138.851C260.588 138.882 260.545 138.715 260.654 138.676C261.074 138.527 261.548 138.415 261.88 138.093ZM320.453 141.438C320.318 141.288 320.486 141.087 320.66 141.169C322.752 142.147 324.709 142.784 327.018 142.993C328.018 143.083 328.025 144.657 327.018 144.566C324.609 144.348 322.083 143.266 320.453 141.438ZM246.839 108.371C248.681 104.221 254.509 100.54 258.417 104.399C258.49 104.471 258.415 104.629 258.309 104.585C255.878 103.576 252.903 104.859 251.221 106.694C249.886 108.15 249.084 110.019 248.925 111.989C248.766 113.961 249.236 116.019 250.544 117.544C251.23 118.344 252.156 119.102 253.246 119.198C254.347 119.295 255.264 118.519 256.304 118.308C257.089 118.149 257.681 118.642 257.757 119.416C257.927 121.125 256.228 122.272 254.756 122.551C253.172 122.85 251.555 122.523 250.19 121.663C245.781 118.887 244.83 112.898 246.839 108.371ZM288.202 67.6952C289.003 66.9284 290.365 67.6907 290.07 68.7845C289.441 71.1124 288.105 73.0799 286.625 74.9474C285.201 76.7441 283.676 78.4707 282.04 80.0776C280.416 81.674 278.651 83.1512 276.796 84.4707L276.237 84.867C274.923 85.7951 273.53 86.7338 272.059 87.4023C271.703 90.4681 271.008 93.4931 269.956 96.3892C268.943 99.1779 267.654 101.873 266.093 104.395L265.869 104.756C264.433 107.06 262.708 109.634 260.272 110.897C260.199 110.935 260.126 110.958 260.054 110.972C260.599 111.336 261.059 111.793 261.333 112.451C261.633 113.171 261.006 113.85 260.405 114.088C259.134 114.59 257.895 113.739 256.753 112.831C256.704 112.94 256.659 113.05 256.62 113.161C256.364 113.886 256.289 114.627 255.63 115.108C255.317 115.337 254.932 115.132 254.735 114.873C254.089 114.023 254.758 112.866 255.325 112.171C255.404 112.075 255.485 111.984 255.569 111.896C255.329 111.72 255.095 111.563 254.868 111.443C253.534 110.735 251.557 110.61 250.789 112.176C250.73 112.296 250.545 112.234 250.545 112.11C250.547 110.186 252.514 109.141 254.222 108.999C255.469 108.896 256.676 109.334 257.799 109.844L258.008 109.94C258.426 110.135 258.857 110.318 259.269 110.523C259.202 110.346 259.203 110.138 259.308 109.931C260.599 107.406 262.817 105.352 264.416 103.013C266.002 100.692 267.363 98.2087 268.45 95.6155C269.505 93.0985 270.331 90.5025 270.909 87.8547C270.719 87.8941 270.504 87.7243 270.518 87.5253C270.55 87.0438 270.785 86.6101 271.198 86.4253C271.653 83.9347 271.885 81.402 271.872 78.8489C271.871 78.6509 272.157 78.658 272.174 78.8489C272.375 81.1189 272.391 83.4111 272.222 85.6899C273.297 84.6998 274.43 83.7585 275.464 82.7422C277.021 81.2129 278.527 79.6428 279.98 78.0143C281.462 76.353 282.863 74.6305 284.145 72.808L284.815 71.8522C285.846 70.387 286.905 68.9371 288.202 67.6952ZM286.18 51.3385C295.022 50.7858 304.464 51.874 312.405 56.0304C316.767 58.3129 320.138 61.7628 322.547 66.056C323.985 68.6197 325.076 71.4586 325.489 74.3773C325.914 77.3762 325.415 80.0503 323.503 82.4341C322.744 83.3807 321.465 82.3233 321.652 81.3547C322.797 75.4287 320.94 69.5737 317.648 64.6677C312.87 57.5485 304.526 54.386 296.402 52.9753C292.411 52.2825 288.363 51.9929 284.313 52.1339C281.226 52.2414 278.059 52.5295 275.129 53.5698C275.006 53.6136 274.957 53.4209 275.076 53.3755C278.57 52.0388 282.472 51.5704 286.18 51.3385ZM299.293 64.7384C299.748 64.4495 300.305 64.746 300.461 65.2148C301.013 66.8675 299.856 69.0511 299.083 70.4814C298.208 72.0999 297.083 73.6133 295.92 75.0347C293.595 77.8777 290.54 80.2499 287.186 81.7409C286.981 81.8323 286.742 81.584 286.93 81.4085C289.525 78.9887 291.877 76.3945 293.913 73.4842C294.914 72.0541 295.749 70.5455 296.546 68.9958C297.259 67.6089 297.93 65.6038 299.293 64.7384ZM314.162 66.6854C314.453 65.6682 316.109 65.8414 316.041 66.9401C315.864 69.7786 314.527 72.6278 313.074 75.0333C311.578 77.5103 309.683 79.7177 307.512 81.6241C307.405 81.7182 307.258 81.5734 307.355 81.4673C309.229 79.4131 310.742 77.0731 311.863 74.5267C312.982 71.9838 313.405 69.3306 314.162 66.6854ZM305.928 66.2258C306.245 65.3414 307.761 65.407 307.668 66.4619C307.413 69.3616 305.714 72.4006 304.14 74.7956C302.47 77.3367 300.338 79.5753 297.956 81.4555C297.867 81.5258 297.741 81.4092 297.828 81.327C299.967 79.3079 301.703 76.9755 303.076 74.3739C303.778 73.0464 304.366 71.6641 304.83 70.2362C305.26 68.9152 305.462 67.5279 305.928 66.2258Z" fill="black"/>
<path fill-rule="evenodd" clip-rule="evenodd" d="M301.316 130.578C299.869 129.988 298.577 129.004 297.633 127.747C297.305 127.31 297.22 126.848 297.289 126.426C297.366 125.952 297.647 125.521 298.03 125.233C298.415 124.943 298.896 124.801 299.36 124.873C299.764 124.937 300.166 125.158 300.485 125.616L300.551 125.708C301.112 126.467 301.844 127.089 302.677 127.491C303.48 127.877 304.378 128.058 305.308 127.953C307.078 127.753 308.299 126.796 309.596 125.497C309.756 125.333 309.917 125.163 310.079 124.992C310.181 124.836 310.323 124.736 310.48 124.683C310.655 124.625 310.852 124.628 311.033 124.691C311.208 124.752 311.364 124.867 311.468 125.021C311.568 125.167 311.624 125.347 311.606 125.554C311.487 126.901 310.783 128.103 309.782 129.046C308.671 130.094 307.197 130.819 305.81 131.074C304.282 131.354 302.725 131.153 301.316 130.578ZM306.531 109.804C308.157 110.792 310.634 113.094 308.885 115.542C306.827 117.701 303.863 115.226 302.402 114.107C301.048 113.239 299.526 115.47 300.783 116.483C311.336 124.292 315.619 110.062 307.353 108.643C306.443 108.486 306.105 109.498 306.531 109.804ZM287.619 100.72C287.799 98.4922 291.194 97.9862 291.532 100.191C291.835 102.166 291.478 103.98 290.588 105.759C289.738 107.457 287.6 106.665 287.438 105.118C287.222 103.044 287.508 102.106 287.619 100.72ZM313.466 99.7339C313.939 99.1142 314.623 98.6913 315.442 98.9303C318 99.6775 317.246 103.308 316.347 105.075C315.859 106.034 314.281 106.278 313.568 105.433C312.405 104.055 311.849 101.303 313.327 99.9462C313.367 99.8761 313.411 99.8053 313.466 99.7339ZM290.552 90.9707L290.956 90.9C292.207 90.6839 293.761 90.4763 294.646 91.4808C295.115 92.0135 295.276 93.0036 294.646 93.5135C293.537 94.4107 292.31 94.063 290.981 94.139C289.886 94.2018 288.833 94.3829 287.778 94.6844C285.464 95.3455 283.578 96.5525 281.601 97.8778C281.341 98.0516 281.077 97.7201 281.2 97.4776C282.342 95.2437 284.553 93.4088 286.768 92.2902C287.95 91.6932 289.244 91.1979 290.552 90.9707ZM311.133 89.97L311.443 90.0333C314.809 90.7365 319.183 92.1413 320.777 95.4458C320.838 95.9131 320.773 96.0133 320.721 96.0787L320.704 96.1005C320.661 96.1563 320.626 96.2334 320.424 96.297C320.368 96.2836 320.311 96.2694 320.253 96.2544C319.523 96.063 318.945 95.7993 318.385 95.5258L317.778 95.227C317.074 94.8819 316.364 94.5495 315.611 94.3041C314.005 93.7804 312.352 93.4115 310.674 93.2145C310.311 93.1719 309.96 93.0492 309.684 92.839C309.422 92.6394 309.222 92.3631 309.13 91.9959C309.012 91.5206 309.046 91.1608 309.301 90.732C309.493 90.41 309.767 90.1869 310.083 90.0587C310.404 89.928 310.77 89.8972 311.133 89.97Z" fill="black"/>
<path fill-rule="evenodd" clip-rule="evenodd" d="M198.327 256.46C197.46 251.562 196.664 246.652 195.941 241.73C195.598 239.394 195.263 237.055 194.963 234.713C194.752 233.072 194.431 231.195 195.548 229.98C197.12 228.269 198.548 226.804 198.741 224.354C198.922 222.048 198.142 219.534 197.654 217.296C196.631 212.603 195.357 207.967 193.95 203.375C192.52 198.71 190.953 194.089 189.363 189.477C187.876 185.164 186.447 180.813 184.51 176.676C180.835 168.824 174.618 163.009 166.935 159.127C165.024 158.161 161.126 154.714 159.13 153.942C157.294 153.233 157.301 155.305 155.494 154.524C154.05 153.9 152.706 153.068 151.897 151.675C151.019 150.162 148.818 148.046 148.483 146.284C147.772 142.551 148.542 139.374 145.876 136.564C143.509 134.069 140.328 132.36 137.036 131.442C129.796 129.424 120.139 130.835 115.77 137.559C113.683 140.771 112.954 144.652 110.139 147.273C107.68 149.561 108.23 151.126 105.046 152.305C104.866 152.372 99.9772 151.324 99.7968 151.391C96.3133 150.646 92.9838 152.732 89.7878 153.942C85.0231 155.746 80.4869 158.094 76.2251 160.885C67.6316 166.512 60.2714 173.819 54.2035 182.088C48.0854 190.425 43.3384 199.769 39.9584 209.535C39.1376 211.908 38.4003 214.309 37.7499 216.733C37.3859 218.09 36.9969 219.497 37.4401 220.887C37.8027 222.023 38.6091 222.869 39.5561 223.551C40.8397 224.476 43.4146 225.076 43.3645 226.936C43.3261 228.349 42.8463 229.837 42.6121 231.234C42.3333 232.898 42.1043 234.571 41.8752 236.242C40.8333 243.847 40.0223 251.495 39.6637 259.166C39.3106 266.718 39.0177 274.424 39.5418 281.974C39.5765 282.472 39.725 282.929 39.9646 283.315C39.741 283.4 39.7238 283.817 40.0021 283.876C40.1971 283.918 40.3917 283.959 40.5868 284C40.9919 284.306 41.4972 284.494 42.0786 284.513C42.4728 284.525 42.8668 284.543 43.2605 284.563C47.4155 285.431 51.5698 286.251 55.7791 286.872C60.8957 287.626 66.0274 288.242 71.175 288.742C81.7525 289.77 92.2467 289.429 102.838 288.875C113.413 288.322 123.982 288.192 134.568 288.468C145.164 288.743 155.755 289.204 166.353 289.392C178.193 289.602 190.014 289.279 201.82 288.339C203.439 288.21 204.44 286.923 204.121 285.316C202.208 275.69 200.04 266.128 198.327 256.46Z" fill="#694D3D"/>
<path fill-rule="evenodd" clip-rule="evenodd" d="M89.7879 153.942L90.0191 153.853C93.1444 152.633 96.3973 150.664 99.7969 151.391C99.9172 151.347 102.129 151.797 103.644 152.083L102.206 153.583L99.6682 154.071C108.424 168.514 118.78 175.735 130.735 175.735C142.691 175.735 151.763 168.514 157.951 154.071L158.796 153.838C158.9 153.862 159.011 153.896 159.13 153.942C161.126 154.714 165.024 158.161 166.935 159.126C174.618 163.009 180.836 168.824 184.51 176.676C186.382 180.675 187.78 184.875 189.214 189.045L189.363 189.477C190.953 194.089 192.521 198.71 193.95 203.375C195.296 207.767 196.52 212.2 197.519 216.684L197.654 217.296C198.142 219.534 198.922 222.048 198.741 224.354C198.672 225.227 198.447 225.975 198.114 226.653L180.796 232.881L189.047 289.119C181.489 289.443 173.925 289.527 166.353 289.392C155.755 289.204 145.164 288.743 134.568 288.467C124.303 288.201 114.054 288.314 103.8 288.826L101.195 288.959C91.1609 289.46 81.2055 289.716 71.1751 288.742L70.4916 288.675V288.675L70.4915 280.448L74.0149 234.641L56.1591 231.282L38.6311 222.774C38.1015 222.245 37.6765 221.627 37.4402 220.886C37.0297 219.6 37.3331 218.298 37.6693 217.034L37.75 216.733C38.4003 214.309 39.1376 211.907 39.9585 209.535C43.3385 199.769 48.0855 190.425 54.2036 182.088C60.2715 173.819 67.6317 166.512 76.2252 160.885C80.487 158.094 85.0232 155.746 89.7879 153.942Z" fill="white"/>
<path fill-rule="evenodd" clip-rule="evenodd" d="M96.4932 151.155C97.5881 151.107 98.7045 151.284 99.7968 151.391C99.892 151.401 99.9281 151.547 99.8209 151.57C97.8661 151.978 95.9327 152.536 94.0127 153.103L93.1907 153.346C91.0257 153.986 88.9242 154.647 86.8283 155.5C82.6511 157.202 78.6839 159.498 75.0326 162.137C60.9727 172.296 50.7967 187.678 44.3751 203.603C42.6311 207.928 41.1535 212.361 39.9566 216.868C39.6655 217.964 39.3917 219.065 39.1321 220.17C39.0559 220.493 38.7237 221.323 38.9058 221.654C39.0668 221.947 39.6928 222.128 39.9837 222.28L40.9656 222.789C42.8808 223.775 46.0712 225.397 46.3911 225.555L46.8901 225.8C55.0512 229.799 63.7713 233.19 72.9552 233.424L73.0271 232.641C73.4366 228.307 73.9739 223.951 75.1467 219.751C75.2098 219.525 75.4972 219.601 75.5234 219.802C76.1768 224.774 75.968 229.785 75.74 234.78C75.3364 243.628 74.8003 252.47 74.3239 261.314C74.0854 265.738 73.7771 270.159 73.4988 274.581C73.22 279.011 73.1298 283.548 72.4932 287.942C72.3514 288.922 71.2035 289.454 70.3343 289.351C69.3724 289.237 68.6325 288.39 68.628 287.419C68.6164 284.86 68.9382 282.27 69.1171 279.716C69.287 277.29 69.4693 274.866 69.6561 272.441C70.339 263.592 71.1245 254.753 71.8511 245.907C72.1085 242.77 72.3867 239.636 72.673 236.501C62.9441 236.188 53.8551 232.587 45.1843 228.379C45.0588 231.227 44.7557 234.069 44.4622 236.905C43.6431 244.82 42.9209 252.731 42.3803 260.67C42.1074 264.68 41.9087 268.695 41.7356 272.71C41.6505 274.683 41.5812 276.657 41.5281 278.631C41.5103 279.289 41.4942 279.947 41.48 280.605L41.4504 282.113C41.4262 283.069 41.329 283.954 40.5247 284.649C39.7077 285.355 38.6042 285.393 37.7956 284.649C36.7132 283.653 36.9046 282.296 36.9367 280.958C36.9634 279.83 36.9955 278.701 37.0327 277.573C37.1074 275.317 37.2028 273.062 37.3188 270.807C37.7248 262.925 38.5361 255.074 39.5963 247.255L40.0102 244.237C40.7831 238.626 41.6316 232.887 43.3594 227.482C42.6867 227.148 42.0159 226.811 41.3477 226.473C40.1624 225.873 38.9368 225.31 37.7847 224.648C36.8706 224.123 36.0823 223.403 35.8278 222.34C35.544 221.155 35.978 219.86 36.2663 218.704L36.2913 218.603C36.574 217.439 36.8784 216.281 37.1995 215.128C38.502 210.451 40.1124 205.865 41.9971 201.391C45.7709 192.434 50.6419 183.924 56.5918 176.231C61.9476 169.305 68.2745 163.024 75.6898 158.314C79.315 156.011 83.1783 154.12 87.264 152.783C89.1737 152.158 91.2515 151.615 93.251 151.391C94.3295 151.271 95.4095 151.202 96.4932 151.155ZM115.892 136.961C117.193 135.565 119.778 137.01 119.154 138.859C117.684 143.209 115.344 147.177 111.692 150.035C108.26 152.723 104.166 154.468 99.7578 154.095C99.7238 154.092 99.6943 154.084 99.6682 154.071L100.048 154.586C103.031 158.618 106.177 162.595 109.97 165.89C117.696 172.605 128.217 176.227 138.376 173.651C146.368 171.624 153.41 165.307 155.481 157.257C155.184 157.39 154.831 157.436 154.444 157.352C152.787 156.992 151.146 155.251 150.078 154.002C148.922 152.651 148.019 151.192 147.357 149.543C146.146 146.526 145.758 142.64 147.411 139.717C147.615 139.357 148.086 139.559 148.126 139.911L148.189 140.46C148.508 143.199 148.905 145.849 150.197 148.347C150.83 149.569 151.588 150.762 152.511 151.785C153.005 152.333 153.54 152.856 154.118 153.315C154.682 153.762 155.363 154.086 155.868 154.599L155.961 154.697L155.963 154.68C156.091 153.595 156.852 153.117 157.596 153.147C158.317 153.176 159.163 153.493 159.491 153.645L159.522 153.66C164.549 156.071 169.179 159.215 173.536 162.703C182.547 169.915 189.298 179.344 192.569 190.447C194.175 195.897 195.096 201.512 196.068 207.101L196.667 210.525C197.575 215.685 198.589 220.946 200.638 225.745C201.168 226.987 200.759 228.151 199.459 228.64C197.837 229.249 196.208 229.84 194.577 230.423C195.378 233.857 195.866 237.41 196.466 240.862C197.742 248.198 199.305 255.488 200.645 262.814C201.331 266.56 201.949 270.319 202.633 274.066C202.963 275.87 203.307 277.671 203.642 279.475C203.822 280.447 203.985 281.423 204.157 282.396L204.187 282.558C204.286 283.072 204.409 283.603 204.268 284.117C204.107 284.703 203.649 285.118 203.24 285.538C202.904 285.884 202.417 285.886 202.005 285.697L201.869 285.635C201.133 285.291 200.556 284.947 200.295 284.117C200.13 283.592 200.07 283 199.962 282.458C199.755 281.42 199.558 280.381 199.373 279.338C199.002 277.253 198.639 275.166 198.285 273.077L197.955 271.121C196.82 264.381 195.743 257.6 195.198 250.788C194.956 247.766 194.7 244.747 194.442 241.727L194.248 239.462C194.002 236.595 193.702 233.656 193.66 230.75L192.684 231.097L187.925 232.778C186.744 233.195 185.242 234.049 183.972 233.894C183.35 233.818 182.876 233.622 182.51 233.267C182.948 239.448 183.542 245.619 184.332 251.759C185.052 257.346 185.849 262.925 186.791 268.478C187.258 271.228 187.737 273.976 188.258 276.716C188.518 278.086 188.787 279.454 189.064 280.821C189.202 281.503 189.366 282.186 189.474 282.874C189.597 283.661 189.38 284.146 188.94 284.793C188.578 285.325 187.855 285.599 187.269 285.231C186.493 284.745 186.088 284.323 185.859 283.436C185.652 282.631 185.526 281.79 185.365 280.975C185.069 279.469 184.782 277.962 184.505 276.452C183.927 273.296 183.394 270.131 182.918 266.957C181.24 255.776 180.175 244.502 179.637 233.209C179.372 227.637 179.29 222.061 179.337 216.483C179.361 213.624 179.454 210.757 179.657 207.905C179.862 205.019 180.288 202.19 180.668 199.331C180.682 199.23 180.824 199.224 180.83 199.331C181.01 202.536 181.292 205.738 181.431 208.951C181.563 212.018 181.621 215.089 181.726 218.157C181.864 222.189 182.055 226.224 182.309 230.256C182.768 229.754 183.459 229.465 184.151 229.578C185.153 229.368 186.232 228.842 187.188 228.523L190.79 227.32C192.684 226.688 194.578 226.06 196.478 225.452C194.779 219.739 193.615 213.941 192.621 208.058L192.178 205.413C191.301 200.205 190.355 194.995 188.765 189.952C187.095 184.651 184.594 179.722 181.278 175.258C178.008 170.859 174.031 166.986 169.935 163.362C166.429 160.261 162.678 157.461 159.102 154.444C159.14 154.644 159.148 154.864 159.115 155.106C158.354 160.668 155.451 165.847 151.406 169.699C143.278 177.438 131.247 179.044 120.845 175.415C110.782 171.904 101.886 163.591 98.7423 153.303C98.6885 153.127 98.9245 153.057 99.0192 153.186C99.1935 153.425 99.3688 153.664 99.5442 153.903C99.5324 153.808 99.5817 153.705 99.6988 153.659C103.366 152.244 106.968 150.237 109.717 147.398C111.056 146.014 112.226 144.446 113.149 142.755C113.591 141.945 113.988 141.106 114.305 140.239L114.386 140.015C114.77 138.929 115.091 137.822 115.892 136.961Z" fill="black"/>
<path fill-rule="evenodd" clip-rule="evenodd" d="M166.453 86.9668C164.509 78.7582 160.259 71.1192 153.453 64.9455C132.975 44.6687 95.3681 55.6746 95.5385 86.2302C94.804 89.799 94.5058 93.4686 94.749 97.1082C94.8495 98.6612 95.5206 100.828 94.619 102.226C92.5853 104.841 91.4034 106.768 92.0956 110.246C92.6738 113.283 94.7374 115.434 97.5223 116.578C99.1925 117.058 100.777 118.104 101.396 119.697C105.114 126.514 107.868 132.184 113.729 136.83C115.241 138.026 130.752 145.199 135.863 145.199C150.826 145.199 169.684 139.771 169.997 123.033C170.051 119.356 169.407 115.637 169.002 111.99C168.019 103.666 168.366 95.0409 166.453 86.9668Z" fill="#694D3D"/>
<path fill-rule="evenodd" clip-rule="evenodd" d="M166.117 82.8611C166.122 82.7595 166.267 82.7367 166.295 82.837C166.851 84.8131 167.166 86.8262 167.601 88.8331C168.02 90.7662 168.416 92.7049 168.745 94.655C169.366 98.3354 169.889 102.025 170.376 105.725L170.497 106.65C171.343 113.16 172.74 119.941 171.518 126.489C170.476 132.076 166.98 136.579 162.476 139.881C158.211 143.007 153.039 145.013 147.905 146.153C142.394 147.378 135.861 147.743 131.378 143.696C129.582 142.075 132.029 138.859 133.977 140.322C138.549 143.755 144.366 142.743 149.526 141.377L149.682 141.335C154.211 140.127 158.77 138.296 162.365 135.207C166.34 131.792 168.305 127.052 168.532 121.853C168.659 118.932 168.388 116.014 168.094 113.111L168.062 112.788C167.725 109.468 167.372 106.149 167.046 102.827C166.749 99.7976 166.492 96.7508 166.356 93.7082L166.293 92.1735C166.161 89.0795 165.984 85.9402 166.117 82.8611ZM112.489 57.1527C119.93 53.273 128.481 51.8844 136.762 53.1865C144.723 54.4382 152.029 58.5523 157.49 64.4514C160.156 67.3316 162.522 70.6631 164.035 74.3027C164.786 76.1108 165.374 77.997 165.687 79.9342C165.848 80.9301 166.007 81.962 166.037 82.9717C166.065 83.9065 165.791 84.7832 165.823 85.7335C165.828 85.8822 165.601 85.9108 165.566 85.7684C165.308 84.7088 164.684 83.9076 164.293 82.9011C164.001 82.1496 163.67 81.4159 163.332 80.6845L163.042 80.0577C162.201 78.2361 161.195 76.4893 160.199 74.7487C158.195 71.2431 155.624 68.0572 152.613 65.369C147.326 60.6491 140.544 57.6024 133.466 57.0538C126.119 56.4841 118.667 58.2379 112.392 62.1231C106.118 66.008 101.374 72.0471 98.9111 79.0005C97.6684 82.5093 96.982 86.1653 96.8224 89.8826C96.7416 91.7643 96.817 93.6617 96.9487 95.5397L97.0141 96.4353C97.0908 97.5092 97.1433 98.5791 96.9831 99.6271C98.1147 99.2736 99.301 99.1271 100.492 99.302C102.261 99.5619 103.317 100.288 104.111 101.871C104.152 101.954 104.069 102.036 103.987 101.995C102.958 101.481 101.294 101.752 100.204 102.021C99.0705 102.302 98.0492 102.79 97.0858 103.45C95.3034 104.669 93.9062 106.559 93.5634 108.728C93.2319 110.822 94.0905 112.943 95.5328 114.445C96.2752 115.218 97.1627 115.886 98.1562 116.303C99.362 116.809 100.556 116.793 101.622 117.628C102.282 118.144 102.122 119.027 101.675 119.6C103.926 122.072 105.922 124.776 108.172 127.257C109.215 128.407 110.25 129.559 111.25 130.746L111.623 131.193C112.621 132.399 114.209 133.674 114.665 135.191C114.949 136.135 113.939 137.369 112.919 136.939C111.354 136.279 110.237 134.562 109.18 133.245L109.111 133.16C108.002 131.795 107.018 130.355 106.117 128.845L105.821 128.348C104.194 125.606 102.58 122.763 101.542 119.751C101.474 119.822 101.401 119.886 101.325 119.941C99.8297 121.005 97.6561 120.187 96.1629 119.495C94.7533 118.843 93.4609 117.861 92.4536 116.677C90.2629 114.104 89.253 110.771 89.9847 107.43C90.6044 104.601 92.5625 101.849 95.1296 100.418C93.9447 99.0515 93.454 97.2099 93.1275 95.4093C92.7107 93.1109 92.6276 90.7555 92.7408 88.4248C92.9666 83.7826 94.1595 79.2066 96.0035 74.9557C99.3027 67.3496 105.135 60.9873 112.489 57.1527ZM96.8281 107.908C98.3899 107.615 99.8453 107.544 101.352 108.206C102.986 108.925 104.135 110.111 105.204 111.5C106.421 113.08 103.303 114.807 102.518 112.709L102.494 112.644C102.284 112.023 101.907 111.422 101.429 110.87C101.286 111.09 101.094 111.283 100.869 111.394C100.597 111.528 100.18 111.435 100.115 111.087C100.042 110.7 100.123 110.231 100.346 109.903L100.376 109.858C99.2925 108.985 97.9892 108.347 96.8281 108.142C96.7121 108.121 96.7134 107.93 96.8281 107.908Z" fill="black"/>
<path fill-rule="evenodd" clip-rule="evenodd" d="M145.867 130.578C144.419 129.988 143.128 129.004 142.184 127.747C141.856 127.31 141.771 126.848 141.84 126.426C141.917 125.952 142.198 125.521 142.581 125.233C142.966 124.943 143.447 124.801 143.911 124.873C144.315 124.937 144.717 125.158 145.036 125.616L145.102 125.708C145.663 126.467 146.395 127.089 147.228 127.491C148.031 127.877 148.929 128.058 149.859 127.953C151.629 127.753 152.849 126.796 154.146 125.497C154.307 125.333 154.468 125.163 154.63 124.992C154.732 124.836 154.873 124.736 155.031 124.683C155.205 124.625 155.403 124.628 155.584 124.691C155.758 124.752 155.914 124.867 156.019 125.021C156.119 125.167 156.175 125.347 156.157 125.554C156.038 126.901 155.333 128.103 154.333 129.046C153.221 130.094 151.748 130.819 150.361 131.074C148.833 131.354 147.276 131.153 145.867 130.578ZM151.082 109.804C152.708 110.792 155.185 113.094 153.436 115.542C151.377 117.701 148.414 115.226 146.953 114.107C145.599 113.239 144.077 115.47 145.334 116.483C155.887 124.292 160.17 110.062 151.904 108.643C150.994 108.486 150.656 109.498 151.082 109.804ZM132.17 100.72C132.35 98.4922 135.745 97.9862 136.083 100.191C136.385 102.166 136.029 103.98 135.139 105.759C134.289 107.457 132.151 106.665 131.989 105.118C131.772 103.044 132.058 102.106 132.17 100.72ZM158.017 99.7339C158.49 99.1142 159.174 98.6913 159.992 98.9303C162.551 99.6775 161.797 103.308 160.898 105.075C160.41 106.034 158.832 106.278 158.119 105.433C156.956 104.055 156.4 101.303 157.877 99.9462C157.917 99.8761 157.962 99.8053 158.017 99.7339ZM135.103 90.9707L135.507 90.9C136.758 90.6839 138.312 90.4763 139.197 91.4808C139.666 92.0135 139.827 93.0036 139.197 93.5135C138.088 94.4107 136.861 94.063 135.532 94.139C134.437 94.2018 133.384 94.3829 132.329 94.6844C130.015 95.3455 128.129 96.5525 126.152 97.8778C125.892 98.0516 125.627 97.7201 125.751 97.4776C126.892 95.2437 129.104 93.4088 131.319 92.2902C132.501 91.6932 133.795 91.1979 135.103 90.9707ZM155.684 89.97L155.994 90.0333C159.36 90.7365 163.734 92.1413 165.328 95.4458C165.388 95.9131 165.324 96.0133 165.272 96.0787L165.255 96.1005C165.212 96.1563 165.177 96.2334 164.975 96.297C164.918 96.2836 164.862 96.2694 164.804 96.2544C164.074 96.063 163.495 95.7993 162.936 95.5258L162.329 95.227C161.625 94.8819 160.915 94.5495 160.162 94.3041C158.555 93.7804 156.903 93.4115 155.225 93.2145C154.862 93.1719 154.511 93.0492 154.235 92.839C153.973 92.6394 153.772 92.3631 153.681 91.9959C153.563 91.5206 153.597 91.1608 153.852 90.732C154.044 90.41 154.318 90.1869 154.634 90.0587C154.955 89.928 155.321 89.8972 155.684 89.97Z" fill="black"/>
<path fill-rule="evenodd" clip-rule="evenodd" d="M155.642 133.888C153.637 132.103 151.39 128.514 148.509 131.354C147.797 132.156 147.509 133.955 146.419 134.308C144.973 134.777 143.539 133.247 143.046 132.072C141.029 125.545 149.367 123.755 154.118 124.81C156.438 125.762 158.147 129.596 158.251 131.597C158.317 132.942 157.179 134.919 155.642 133.888M170.767 123.828C170.747 123.741 170.72 123.663 170.687 123.592C169.8 123.257 169.099 123.598 168.665 124.236C168.679 124.395 168.727 124.556 168.757 124.713C168.422 125.417 168.12 126.289 167.667 126.898C167.577 126.905 167.485 126.895 167.395 126.869C159.88 127.654 163.549 119.795 155.926 117.843C150.033 116.871 139.383 117.984 136.603 124.114C134.411 133.905 123.263 127.082 119.603 121.99C115.698 117.356 113.172 111.694 110.738 106.199C110.223 105.036 108.618 105.867 108.792 106.983C106.542 111.495 106.617 116.915 106.059 121.857C105.111 131.719 104.187 145.548 113.355 151.569C125.3 165.063 155.128 169.824 168.905 157.426C173.674 147.179 173.086 134.677 170.767 123.828" fill="black"/>
</svg>
