<svg width="21" height="16" viewBox="0 0 21 16" fill="none" xmlns="http://www.w3.org/2000/svg">
<path d="M9.65376 6.31988V8.39061H7.63759C7.53976 8.39061 7.45864 8.46622 7.45864 8.56134V9.58573C7.45864 9.67841 7.53976 9.75646 7.63759 9.75646H9.65376V11.8272C9.65376 11.9223 9.73011 12.0004 9.82078 12.0004H10.8229C10.916 12.0004 10.9899 11.9223 10.9899 11.8272V9.75646H13.0061C13.1039 9.75646 13.185 9.67841 13.185 9.58573V8.56134C13.185 8.46622 13.1039 8.39061 13.0061 8.39061H10.9899V6.31988C10.9899 6.22476 10.916 6.14671 10.8229 6.14671H9.82078C9.73011 6.14671 9.65376 6.22476 9.65376 6.31988ZM19.1023 2.79061H10.5366L7.7378 0.0540247C7.70219 0.0199461 7.65535 0.000793764 7.60657 0.000366211H1.54135C1.11903 0.000366211 0.777832 0.349147 0.777832 0.780854V15.2199C0.777832 15.6516 1.11903 16.0004 1.54135 16.0004H19.1023C19.5247 16.0004 19.8659 15.6516 19.8659 15.2199V3.5711C19.8659 3.13939 19.5247 2.79061 19.1023 2.79061ZM18.1479 14.2443H2.49575V1.75646H6.99337L9.84703 4.54671H18.1479V14.2443Z" fill="#381FD2"/>
</svg>
