<svg width="16" height="18" viewBox="0 0 16 18" fill="none" xmlns="http://www.w3.org/2000/svg">
<path d="M14.2753 4.51242L9.95209 0.189206C9.83156 0.0686698 9.66883 0.000366211 9.49807 0.000366211H0.964146C0.608566 0.000366211 0.321289 0.287643 0.321289 0.643223V17.3575C0.321289 17.7131 0.608566 18.0004 0.964146 18.0004H13.8213C14.1769 18.0004 14.4641 17.7131 14.4641 17.3575V4.96845C14.4641 4.79769 14.3958 4.63296 14.2753 4.51242ZM12.9816 5.26376H9.20075V1.48296L12.9816 5.26376ZM13.0177 16.5539H1.76772V1.44679H7.83468V5.78608C7.83468 6.00986 7.92358 6.22447 8.08181 6.3827C8.24004 6.54094 8.45466 6.62983 8.67843 6.62983H13.0177V16.5539ZM8.03557 8.19679C8.03557 8.1084 7.96325 8.03608 7.87486 8.03608H6.91057C6.82218 8.03608 6.74986 8.1084 6.74986 8.19679V10.3664H4.58022C4.49182 10.3664 4.4195 10.4388 4.4195 10.5272V11.4914C4.4195 11.5798 4.49182 11.6522 4.58022 11.6522H6.74986V13.8218C6.74986 13.9102 6.82218 13.9825 6.91057 13.9825H7.87486C7.96325 13.9825 8.03557 13.9102 8.03557 13.8218V11.6522H10.2052C10.2936 11.6522 10.3659 11.5798 10.3659 11.4914V10.5272C10.3659 10.4388 10.2936 10.3664 10.2052 10.3664H8.03557V8.19679Z" fill="#381FD2"/>
</svg>
