<svg width="26" height="18" viewBox="0 0 26 18" fill="none" xmlns="http://www.w3.org/2000/svg">
<path d="M4.6919 8.01921C3.64102 8.28365 2.72287 8.92272 2.10996 9.81637C1.49704 10.71 1.23154 11.7967 1.36335 12.8723C1.49515 13.9479 2.01519 14.9383 2.82575 15.6576C3.63631 16.3768 4.6816 16.7752 5.76523 16.7781H17.9875C18.7719 16.7776 19.5474 16.6109 20.2629 16.2891C20.9783 15.9672 21.6174 15.4975 22.1383 14.9109C22.6591 14.3242 23.0497 13.6339 23.2845 12.8854C23.5193 12.1368 23.593 11.3471 23.5005 10.568C23.4081 9.78902 23.1518 9.0384 22.7483 8.36559C22.3449 7.69278 21.8036 7.11304 21.1599 6.66453C20.5163 6.21602 19.785 5.9089 19.0141 5.76339C18.2432 5.61789 17.4503 5.63729 16.6875 5.82032L15.2097 6.22255" stroke="#381FD2" stroke-width="2" stroke-linecap="round" stroke-linejoin="round"/>
<path d="M16.6876 5.82039C16.3078 4.31658 15.3705 3.01344 14.0655 2.17512C12.7606 1.33681 11.1857 1.02605 9.6601 1.30584C8.13452 1.58563 6.77241 2.43504 5.84988 3.68188C4.92735 4.92872 4.51344 6.47969 4.69204 8.02039C4.69204 8.02039 4.86204 9.00039 5.20981 9.55595" stroke="#381FD2" stroke-width="2" stroke-linecap="round" stroke-linejoin="round"/>
<path fill-rule="evenodd" clip-rule="evenodd" d="M11.9351 7.00037C12.1472 7.00037 12.3507 7.08465 12.5007 7.23468C12.6508 7.38471 12.7351 7.58819 12.7351 7.80037V10.2004H15.1351C15.3472 10.2004 15.5507 10.2847 15.7007 10.4347C15.8508 10.5847 15.9351 10.7882 15.9351 11.0004C15.9351 11.2125 15.8508 11.416 15.7007 11.5661C15.5507 11.7161 15.3472 11.8004 15.1351 11.8004H12.7351V14.2004C12.7351 14.4125 12.6508 14.616 12.5007 14.7661C12.3507 14.9161 12.1472 15.0004 11.9351 15.0004C11.7229 15.0004 11.5194 14.9161 11.3694 14.7661C11.2193 14.616 11.1351 14.4125 11.1351 14.2004V11.8004H8.73506C8.52289 11.8004 8.3194 11.7161 8.16937 11.5661C8.01934 11.416 7.93506 11.2125 7.93506 11.0004C7.93506 10.7882 8.01934 10.5847 8.16937 10.4347C8.3194 10.2847 8.52289 10.2004 8.73506 10.2004H11.1351V7.80037C11.1351 7.58819 11.2193 7.38471 11.3694 7.23468C11.5194 7.08465 11.7229 7.00037 11.9351 7.00037Z" fill="#381FD2"/>
</svg>
