<svg width="16" height="18" viewBox="0 0 16 18" fill="none" xmlns="http://www.w3.org/2000/svg">
<path fill-rule="evenodd" clip-rule="evenodd" d="M7.80029 17.0004C8.06547 17.0004 8.3198 16.895 8.50732 16.7075C8.69483 16.52 8.80017 16.2657 8.80017 16.0005V4.41577L13.0917 8.70929C13.1847 8.80226 13.295 8.876 13.4165 8.92632C13.538 8.97663 13.6681 9.00252 13.7996 9.00252C13.9311 9.00252 14.0613 8.97663 14.1827 8.92632C14.3042 8.876 14.4146 8.80226 14.5075 8.70929C14.6005 8.61633 14.6742 8.50596 14.7246 8.3845C14.7749 8.26303 14.8008 8.13284 14.8008 8.00137C14.8008 7.8699 14.7749 7.73971 14.7246 7.61825C14.6742 7.49678 14.6005 7.38642 14.5075 7.29345L8.50821 1.29412C8.41533 1.201 8.30499 1.12713 8.18351 1.07672C8.06203 1.02631 7.93181 1.00037 7.80029 1.00037C7.66877 1.00037 7.53854 1.02631 7.41706 1.07672C7.29559 1.12713 7.18525 1.201 7.09237 1.29412L1.09304 7.29345C0.905283 7.4812 0.799805 7.73585 0.799805 8.00137C0.799805 8.26689 0.905283 8.52154 1.09304 8.70929C1.28079 8.89705 1.53543 9.00252 1.80096 9.00252C2.06648 9.00252 2.32113 8.89705 2.50888 8.70929L6.8004 4.41577V16.0005C6.8004 16.2657 6.90574 16.52 7.09326 16.7075C7.28077 16.895 7.5351 17.0004 7.80029 17.0004Z" fill="#1D1A2D"/>
</svg>
