<svg width="26" height="18" viewBox="0 0 26 18" fill="none" xmlns="http://www.w3.org/2000/svg">
<path d="M5.0315 8.01921C3.98062 8.28365 3.06247 8.92272 2.44956 9.81637C1.83664 10.71 1.57114 11.7967 1.70295 12.8723C1.83475 13.9479 2.35479 14.9383 3.16535 15.6576C3.97591 16.3768 5.0212 16.7752 6.10483 16.7781H18.3271C19.1115 16.7776 19.887 16.6109 20.6025 16.2891C21.3179 15.9672 21.957 15.4975 22.4779 14.9109C22.9987 14.3242 23.3893 13.6339 23.6241 12.8854C23.8589 12.1368 23.9326 11.3471 23.8401 10.568C23.7477 9.78902 23.4914 9.0384 23.0879 8.36559C22.6845 7.69278 22.1432 7.11304 21.4995 6.66453C20.8559 6.21602 20.1246 5.9089 19.3537 5.76339C18.5828 5.61789 17.7899 5.63729 17.0271 5.82032L15.5493 6.22255" stroke="#381FD2" stroke-width="2" stroke-linecap="round" stroke-linejoin="round"/>
<path d="M17.0272 5.82039C16.6474 4.31658 15.7101 3.01344 14.4051 2.17512C13.1002 1.33681 11.5253 1.02605 9.9997 1.30584C8.47412 1.58563 7.11201 2.43504 6.18948 3.68188C5.26695 4.92872 4.85303 6.47969 5.03163 8.02039C5.03163 8.02039 5.20163 9.00039 5.54941 9.55595" stroke="#381FD2" stroke-width="2" stroke-linecap="round" stroke-linejoin="round"/>
</svg>
