<svg width="25" height="20" viewBox="0 0 25 20" fill="none" xmlns="http://www.w3.org/2000/svg">
<path d="M21.1636 0.000366211H6.71913C5.49357 0.000366211 4.49691 0.997033 4.49691 2.22259V4.44481H3.3858C2.16024 4.44481 1.16357 5.44148 1.16357 6.66703V17.7781C1.16357 19.0037 2.16024 20.0004 3.3858 20.0004H10.0525C11.278 20.0004 12.2747 19.0037 12.2747 17.7781H21.1636C22.3891 17.7781 23.3858 16.7815 23.3858 15.5559V2.22259C23.3858 0.997033 22.3891 0.000366211 21.1636 0.000366211ZM10.0491 17.7781H3.3858V6.66703H10.0525L10.0491 17.7781ZM21.1602 15.5559H12.2747V6.66703C12.2747 5.44148 11.278 4.44481 10.0525 4.44481H6.71913V2.22259H21.1636L21.1602 15.5559Z" fill="#381FD2"/>
</svg>
