<svg width="15" height="20" viewBox="0 0 15 20" fill="none" xmlns="http://www.w3.org/2000/svg">
<path d="M10.4836 8.74699C10.7787 8.51321 11.0596 8.26521 11.3253 8.00033L11.4462 7.8741C11.6978 7.61366 11.9369 7.34255 12.1582 7.05721L12.2133 6.99055C12.44 6.69277 12.6453 6.37899 12.8373 6.0581L12.9511 5.86255C13.1333 5.53899 13.3022 5.20744 13.448 4.86433C13.4658 4.82255 13.4791 4.77988 13.4969 4.7381C13.6276 4.41721 13.7404 4.08833 13.8373 3.75233C13.856 3.6901 13.8764 3.62788 13.8933 3.56477C13.9884 3.20744 14.0613 2.8421 14.1164 2.47233C14.128 2.39499 14.1351 2.31677 14.1449 2.23855C14.1902 1.85455 14.2222 1.4661 14.2222 1.07321V0.666992H12.4444V1.07321C12.4444 1.23677 12.4169 1.3941 12.4071 1.55588H1.79733C1.78844 1.39499 1.77778 1.23588 1.77778 1.07321V0.666992H0V1.07321C0 5.40744 2.90578 9.26699 7.06844 10.4679L7.09333 10.4759C9.65422 11.2074 11.5876 13.2723 12.2213 15.7781H2.00089L2.71111 14.0003H9.47289C8.98337 13.2939 8.36042 12.6899 7.63911 12.2225H4.08356C4.47911 11.8457 4.93333 11.5345 5.40889 11.2537C4.75955 11.0264 4.13903 10.7239 3.56 10.3523C1.37778 12.0554 0 14.6928 0 17.5692V19.3337H1.77778V17.5692L1.77867 17.5559H12.4436L12.4444 17.5692V19.3337H14.2222V17.5692C14.2222 14.1648 12.3031 11.0777 9.384 9.50699C9.71398 9.30974 10.0322 9.09337 10.3369 8.85899C10.3858 8.82166 10.4347 8.7861 10.4836 8.74699ZM9.42578 7.32121C8.80116 7.82242 8.10441 8.22639 7.35911 8.51944C7.27733 8.55144 7.19467 8.57988 7.112 8.6101C6.06431 8.23928 5.10595 7.65306 4.29867 6.88921H9.89156C9.73956 7.03233 9.59644 7.18521 9.432 7.31588L9.42578 7.32121ZM12.1058 3.33366C12.1013 3.34788 12.0996 3.36299 12.0951 3.37721L12.056 3.51144C11.9319 3.89321 11.7794 4.26521 11.6 4.62433C11.5147 4.79321 11.4107 4.94877 11.3147 5.11144H2.888C2.55931 4.55217 2.29936 3.95525 2.11378 3.33366H12.1058Z" fill="#381FD2"/>
</svg>
