<svg width="14" height="8" viewBox="0 0 14 8" fill="none" xmlns="http://www.w3.org/2000/svg">
<path d="M6.06189 7.63573L0.933154 1.7734C0.327886 1.08365 0.8198 0.000366604 1.7384 0.000366604H11.9959C12.2015 0.000190342 12.4027 0.059276 12.5756 0.170548C12.7485 0.28182 12.8856 0.440562 12.9706 0.627763C13.0555 0.814965 13.0847 1.02269 13.0547 1.22606C13.0246 1.42944 12.9366 1.61984 12.8011 1.77447L7.67238 7.63466C7.572 7.74952 7.44822 7.84158 7.30933 7.90466C7.17045 7.96773 7.01967 8.00037 6.86714 8.00037C6.7146 8.00037 6.56382 7.96773 6.42494 7.90466C6.28605 7.84158 6.16227 7.74952 6.06189 7.63466V7.63573Z" fill="#1D1A2D"/>
</svg>
