<svg width="23" height="20" viewBox="0 0 23 20" fill="none" xmlns="http://www.w3.org/2000/svg">
<path d="M4.32421 18.8834C4.22158 19.4677 4.7979 19.9242 5.30579 19.6637L11.0821 16.6953L16.8571 19.6637C17.365 19.9242 17.9413 19.4677 17.8387 18.8848L16.7466 12.6611L21.3808 8.24529C21.815 7.83213 21.5913 7.07687 21.0097 6.99529L14.565 6.0795L11.6913 0.386082C11.6366 0.270672 11.5502 0.173165 11.4423 0.104887C11.3343 0.0366102 11.2092 0.000366211 11.0815 0.000366211C10.9537 0.000366211 10.8286 0.0366102 10.7206 0.104887C10.6127 0.173165 10.5263 0.270672 10.4716 0.386082L7.5979 6.08082L1.15316 6.99661C0.572897 7.07819 0.347897 7.83345 0.780791 8.24661L5.41632 12.6624L4.32421 18.8861V18.8834ZM10.7782 15.2427L5.92816 17.7348L6.84132 12.5282C6.86271 12.4083 6.85434 12.2851 6.81694 12.1692C6.77955 12.0533 6.71427 11.9484 6.62684 11.8637L2.80316 8.21898L8.13474 7.46108C8.24514 7.44441 8.34985 7.40123 8.43991 7.33523C8.52997 7.26923 8.60269 7.18239 8.65184 7.08213L11.0795 2.26898L13.5097 7.08213C13.5589 7.18239 13.6316 7.26923 13.7217 7.33523C13.8117 7.40123 13.9164 7.44441 14.0268 7.46108L19.3584 8.21766L15.5347 11.8624C15.4471 11.9473 15.3817 12.0524 15.3443 12.1685C15.3069 12.2846 15.2986 12.4081 15.3203 12.5282L16.2334 17.7348L11.3834 15.2427C11.2896 15.1943 11.1857 15.1691 11.0801 15.1691C10.9746 15.1691 10.8719 15.1943 10.7782 15.2427Z" fill="#381FD2"/>
</svg>
