<svg width="16" height="20" viewBox="0 0 16 20" fill="none" xmlns="http://www.w3.org/2000/svg">
<path d="M14.7455 5.76242L10.4223 1.43921C10.3018 1.31867 10.139 1.25037 9.96829 1.25037H1.43436C1.07878 1.25037 0.791504 1.53764 0.791504 1.89322V18.6075C0.791504 18.9631 1.07878 19.2504 1.43436 19.2504H14.2915C14.6471 19.2504 14.9344 18.9631 14.9344 18.6075V6.21845C14.9344 6.04769 14.8661 5.88296 14.7455 5.76242ZM13.4518 6.51376H9.67097V2.73296L13.4518 6.51376ZM13.4879 17.8039H2.23793V2.69679H8.3049V7.03608C8.3049 7.25986 8.39379 7.47447 8.55203 7.6327C8.71026 7.79094 8.92487 7.87983 9.14865 7.87983H13.4879V17.8039Z" fill="#1D1A2D"/>
</svg>
