<svg width="16" height="16" viewBox="0 0 16 16" fill="none" xmlns="http://www.w3.org/2000/svg">
<path d="M8 0.000366211C10.1217 0.000366211 12.1566 0.843221 13.6569 2.34351C15.1571 3.8438 16 5.87863 16 8.00037C16 10.1221 15.1571 12.1569 13.6569 13.6572C12.1566 15.1575 10.1217 16.0004 8 16.0004C5.87827 16.0004 3.84344 15.1575 2.34315 13.6572C0.842855 12.1569 0 10.1221 0 8.00037C0 5.87863 0.842855 3.8438 2.34315 2.34351C3.84344 0.843221 5.87827 0.000366211 8 0.000366211ZM8 3.42894C7.8549 3.42881 7.71138 3.45895 7.57858 3.51743C7.44579 3.57591 7.32666 3.66144 7.22879 3.76856C7.13092 3.87568 7.05646 4.00203 7.01018 4.13955C6.9639 4.27707 6.94681 4.42273 6.96 4.56722L7.37714 9.14551C7.39332 9.29943 7.46591 9.44192 7.58093 9.54548C7.69594 9.64904 7.84523 9.70635 8 9.70635C8.15477 9.70635 8.30406 9.64904 8.41908 9.54548C8.53409 9.44192 8.60668 9.29943 8.62286 9.14551L9.03886 4.56722C9.05204 4.42282 9.03498 4.27726 8.98877 4.13982C8.94256 4.00238 8.8682 3.87608 8.77046 3.76898C8.67271 3.66188 8.55371 3.57632 8.42106 3.51778C8.2884 3.45923 8.145 3.42897 8 3.42894ZM8 12.5718C8.24248 12.5718 8.47504 12.4755 8.6465 12.304C8.81796 12.1325 8.91429 11.9 8.91429 11.6575C8.91429 11.415 8.81796 11.1825 8.6465 11.011C8.47504 10.8396 8.24248 10.7432 8 10.7432C7.75752 10.7432 7.52496 10.8396 7.3535 11.011C7.18204 11.1825 7.08571 11.415 7.08571 11.6575C7.08571 11.9 7.18204 12.1325 7.3535 12.304C7.52496 12.4755 7.75752 12.5718 8 12.5718Z" fill="#E84F4A"/>
</svg>
