<svg width="22" height="4" viewBox="0 0 22 4" fill="none" xmlns="http://www.w3.org/2000/svg">
<path d="M3.10498 3.00037C3.65727 3.00037 4.10498 2.55265 4.10498 2.00037C4.10498 1.44808 3.65727 1.00037 3.10498 1.00037C2.5527 1.00037 2.10498 1.44808 2.10498 2.00037C2.10498 2.55265 2.5527 3.00037 3.10498 3.00037Z" stroke="#381FD2" stroke-width="2"/>
<path d="M11.105 3.00037C11.6573 3.00037 12.105 2.55265 12.105 2.00037C12.105 1.44808 11.6573 1.00037 11.105 1.00037C10.5527 1.00037 10.105 1.44808 10.105 2.00037C10.105 2.55265 10.5527 3.00037 11.105 3.00037Z" stroke="#381FD2" stroke-width="2"/>
<path d="M19.105 3.00037C19.6573 3.00037 20.105 2.55265 20.105 2.00037C20.105 1.44808 19.6573 1.00037 19.105 1.00037C18.5527 1.00037 18.105 1.44808 18.105 2.00037C18.105 2.55265 18.5527 3.00037 19.105 3.00037Z" stroke="#381FD2" stroke-width="2"/>
</svg>
