<svg width="6" height="20" viewBox="0 0 6 20" fill="none" xmlns="http://www.w3.org/2000/svg">
<path d="M1.60181 2.00037C1.60181 2.55265 2.04952 3.00037 2.60181 3.00037C3.15409 3.00037 3.60181 2.55265 3.60181 2.00037C3.60181 1.44808 3.15409 1.00037 2.60181 1.00037C2.04952 1.00037 1.60181 1.44808 1.60181 2.00037Z" stroke="#381FD2" stroke-width="2"/>
<path d="M1.60181 10.0004C1.60181 10.5527 2.04952 11.0004 2.60181 11.0004C3.15409 11.0004 3.60181 10.5527 3.60181 10.0004C3.60181 9.44808 3.15409 9.00037 2.60181 9.00037C2.04952 9.00037 1.60181 9.44808 1.60181 10.0004Z" stroke="#381FD2" stroke-width="2"/>
<path d="M1.60181 18.0004C1.60181 18.5527 2.04952 19.0004 2.60181 19.0004C3.15409 19.0004 3.60181 18.5527 3.60181 18.0004C3.60181 17.4481 3.15409 17.0004 2.60181 17.0004C2.04952 17.0004 1.60181 17.4481 1.60181 18.0004Z" stroke="#381FD2" stroke-width="2"/>
</svg>
