<svg width="24" height="24" viewBox="0 0 24 24" fill="none" xmlns="http://www.w3.org/2000/svg">
<path d="M12.1662 0.0837489C5.46421 -0.00677193 -0.00713814 5.46458 0.0833827 12.1666C0.172758 18.5941 5.40635 23.8277 11.8339 23.9171C18.537 24.0087 24.0072 18.5374 23.9156 11.8354C23.8273 5.40672 18.5937 0.173124 12.1662 0.0837489ZM19.409 18.8324C19.3862 18.8571 19.3582 18.8765 19.3271 18.8891C19.2959 18.9018 19.2624 18.9075 19.2288 18.9057C19.1953 18.904 19.1625 18.8948 19.1328 18.879C19.1032 18.8632 19.0774 18.841 19.0572 18.8141C18.5448 18.1436 17.9172 17.5696 17.2038 17.1188C15.7452 16.1827 13.897 15.6671 12 15.6671C10.1031 15.6671 8.25489 16.1827 6.79625 17.1188C6.08289 17.5694 5.45533 18.1433 4.94286 18.8135C4.92273 18.8405 4.89692 18.8626 4.86727 18.8784C4.83761 18.8943 4.80484 18.9034 4.77127 18.9051C4.7377 18.9069 4.70416 18.9012 4.67302 18.8886C4.64188 18.8759 4.61391 18.8565 4.59109 18.8319C2.90997 17.0171 1.95768 14.6457 1.91672 12.1723C1.82333 6.59724 6.39807 1.93083 11.9754 1.91708C17.5528 1.90333 22.0834 6.43224 22.0834 12.0004C22.0853 14.5335 21.1301 16.9738 19.409 18.8324Z" fill="#381FD2"/>
<path d="M12 5.58374C10.8703 5.58374 9.84874 6.00713 9.12286 6.77655C8.39697 7.54598 8.03432 8.60989 8.11625 9.75171C8.28239 12.0004 10.0246 13.8337 12 13.8337C13.9755 13.8337 15.7143 12.0004 15.8838 9.75228C15.9686 8.62134 15.6088 7.56718 14.8709 6.78343C14.1422 6.00999 13.1224 5.58374 12 5.58374Z" fill="#381FD2"/>
</svg>
