<svg width="48" height="38" viewBox="0 0 48 38" fill="none" xmlns="http://www.w3.org/2000/svg">
<path opacity="0.2" d="M4.61219 5.68137C7.88586 2.13237 12.8395 0.333374 19.3332 0.333374H21.6665V6.91104L19.7905 7.28671C16.5939 7.92604 14.3702 9.18371 13.1802 11.0294C12.5593 12.0237 12.2071 13.1621 12.1582 14.3334H19.3332C19.952 14.3334 20.5455 14.5792 20.9831 15.0168C21.4207 15.4544 21.6665 16.0479 21.6665 16.6667V33C21.6665 35.5737 19.5735 37.6667 16.9999 37.6667H2.99986C2.38102 37.6667 1.78753 37.4209 1.34994 36.9833C0.91236 36.5457 0.666527 35.9522 0.666527 35.3334V23.6667L0.673527 16.8557C0.652527 16.5967 0.209194 10.46 4.61219 5.68137ZM42.6665 37.6667H28.6665C28.0477 37.6667 27.4542 37.4209 27.0166 36.9833C26.579 36.5457 26.3332 35.9522 26.3332 35.3334V23.6667L26.3402 16.8557C26.3192 16.5967 25.8759 10.46 30.2789 5.68137C33.5525 2.13237 38.5062 0.333374 44.9999 0.333374H47.3332V6.91104L45.4572 7.28671C42.2605 7.92604 40.0369 9.18371 38.8469 11.0294C38.2259 12.0237 37.8738 13.1621 37.8249 14.3334H44.9999C45.6187 14.3334 46.2122 14.5792 46.6498 15.0168C47.0874 15.4544 47.3332 16.0479 47.3332 16.6667V33C47.3332 35.5737 45.2402 37.6667 42.6665 37.6667Z" fill="#5740E2"/>
</svg>
