<svg width="21" height="20" viewBox="0 0 21 20" fill="none" xmlns="http://www.w3.org/2000/svg">
<path d="M9.81238 0.476562C4.56096 0.476562 0.288574 4.74894 0.288574 10.0004C0.288574 15.2518 4.56096 19.5242 9.81238 19.5242C15.0638 19.5242 19.3362 15.2518 19.3362 10.0004C19.3362 4.74894 15.0638 0.476562 9.81238 0.476562ZM9.81238 17.6194C5.61143 17.6194 2.19334 14.2013 2.19334 10.0004C2.19334 5.79942 5.61143 2.38132 9.81238 2.38132C14.0133 2.38132 17.4314 5.79942 17.4314 10.0004C17.4314 14.2013 14.0133 17.6194 9.81238 17.6194Z" fill="#381FD2"/>
<path d="M10.7649 5.2384H8.86011V10.3946L11.9963 13.5308L13.343 12.1841L10.7649 9.60602V5.2384Z" fill="#381FD2"/>
</svg>
