<svg width="16" height="16" viewBox="0 0 16 16" fill="none" xmlns="http://www.w3.org/2000/svg">
<path d="M15.9519 14.8503L10.758 9.65632C11.564 8.61433 11.9999 7.34033 11.9999 6.00034C11.9999 4.39635 11.374 2.89235 10.242 1.75836C9.10996 0.624363 7.60197 0.000366211 5.99997 0.000366211C4.39798 0.000366211 2.88999 0.626363 1.75799 1.75836C0.623997 2.89035 0 4.39635 0 6.00034C0 7.60233 0.625997 9.11033 1.75799 10.2423C2.88999 11.3763 4.39598 12.0003 5.99997 12.0003C7.33997 12.0003 8.61196 11.5643 9.65396 10.7603L14.8479 15.9523C14.8632 15.9675 14.8812 15.9796 14.9012 15.9879C14.9211 15.9961 14.9424 16.0004 14.9639 16.0004C14.9855 16.0004 15.0068 15.9961 15.0267 15.9879C15.0466 15.9796 15.0647 15.9675 15.0799 15.9523L15.9519 15.0823C15.9672 15.0671 15.9793 15.049 15.9875 15.0291C15.9958 15.0092 16 14.9878 16 14.9663C16 14.9448 15.9958 14.9234 15.9875 14.9035C15.9793 14.8836 15.9672 14.8655 15.9519 14.8503ZM9.16796 9.16833C8.31996 10.0143 7.19597 10.4803 5.99997 10.4803C4.80398 10.4803 3.67998 10.0143 2.83199 9.16833C1.98599 8.32033 1.51999 7.19634 1.51999 6.00034C1.51999 4.80435 1.98599 3.67835 2.83199 2.83235C3.67998 1.98636 4.80398 1.52036 5.99997 1.52036C7.19597 1.52036 8.32196 1.98436 9.16796 2.83235C10.014 3.68035 10.48 4.80435 10.48 6.00034C10.48 7.19634 10.014 8.32233 9.16796 9.16833Z" fill="#4B4B4E"/>
</svg>
