<svg width="23" height="22" viewBox="0 0 23 22" fill="none" xmlns="http://www.w3.org/2000/svg">
<path d="M19.7094 11.5868V10.4063L21.1909 9.10997C21.4639 8.86927 21.6432 8.53978 21.6968 8.17973C21.7505 7.81968 21.6751 7.45225 21.4841 7.14238L19.6631 4.05596C19.5278 3.8216 19.3332 3.62693 19.0989 3.4915C18.8646 3.35607 18.5988 3.28463 18.3282 3.28436C18.1605 3.28307 17.9937 3.30913 17.8344 3.36152L15.9594 3.99423C15.6357 3.77911 15.298 3.58579 14.9486 3.41553L14.5551 1.47108C14.4845 1.11584 14.2912 0.796732 14.0091 0.569619C13.727 0.342506 13.374 0.22186 13.0118 0.228799H9.40073C9.03862 0.22186 8.6856 0.342506 8.40347 0.569619C8.12134 0.796732 7.92808 1.11584 7.85752 1.47108L7.464 3.41553C7.1121 3.58574 6.77185 3.77907 6.44548 3.99423L4.60906 3.33065C4.44803 3.28869 4.28127 3.27306 4.11524 3.28436C3.84462 3.28463 3.57882 3.35607 3.34453 3.4915C3.11023 3.62693 2.91567 3.8216 2.78036 4.05596L0.959372 7.14238C0.77927 7.45179 0.712344 7.81418 0.770058 8.16751C0.827772 8.52083 1.00654 8.8431 1.27573 9.07911L2.73406 10.414V11.5945L1.27573 12.8908C0.998931 13.1285 0.815279 13.4565 0.757365 13.8167C0.699451 14.1769 0.77102 14.546 0.959372 14.8584L2.78036 17.9449C2.91567 18.1792 3.11023 18.3739 3.34453 18.5093C3.57882 18.6447 3.84462 18.7162 4.11524 18.7165C4.28295 18.7177 4.44974 18.6917 4.60906 18.6393L6.48406 18.0066C6.80778 18.2217 7.14546 18.415 7.49487 18.5853L7.88839 20.5297C7.95895 20.885 8.1522 21.2041 8.43433 21.4312C8.71646 21.6583 9.06948 21.779 9.4316 21.772H13.0736C13.4357 21.779 13.7887 21.6583 14.0708 21.4312C14.353 21.2041 14.5462 20.885 14.6168 20.5297L15.0103 18.5853C15.3622 18.4151 15.7025 18.2217 16.0288 18.0066L17.8961 18.6393C18.0554 18.6917 18.2222 18.7177 18.3899 18.7165C18.6606 18.7162 18.9263 18.6447 19.1606 18.5093C19.3949 18.3739 19.5895 18.1792 19.7248 17.9449L21.4841 14.8584C21.6642 14.549 21.7311 14.1866 21.6734 13.8333C21.6157 13.48 21.4369 13.1577 21.1677 12.9217L19.7094 11.5868ZM18.3282 17.1732L15.6816 16.2782C15.062 16.803 14.354 17.2132 13.5905 17.4896L13.0427 20.2597H9.40073L8.85289 17.5205C8.0955 17.2362 7.39125 16.8267 6.76956 16.309L4.11524 17.1732L2.29425 14.0868L4.39301 12.235C4.25034 11.4363 4.25034 10.6186 4.39301 9.81985L2.29425 7.91399L4.11524 4.82757L6.76184 5.72263C7.38139 5.19785 8.08947 4.78764 8.85289 4.51121L9.40073 1.74115H13.0427L13.5905 4.48034C14.3479 4.76462 15.0522 5.17413 15.6739 5.69176L18.3282 4.82757L20.1492 7.91399L18.0504 9.76584C18.1931 10.5646 18.1931 11.3822 18.0504 12.181L20.1492 14.0868L18.3282 17.1732Z" fill="#1D1A2D"/>
<path d="M11.2219 15.63C10.3063 15.63 9.41117 15.3585 8.64983 14.8498C7.88849 14.341 7.2951 13.618 6.9447 12.772C6.59429 11.9261 6.50261 10.9952 6.68124 10.0972C6.85988 9.1991 7.30081 8.37418 7.94827 7.72672C8.59574 7.07925 9.42066 6.63832 10.3187 6.45969C11.2168 6.28105 12.1476 6.37273 12.9936 6.72314C13.8396 7.07355 14.5626 7.66694 15.0713 8.42827C15.58 9.18961 15.8515 10.0847 15.8515 11.0004C15.8577 11.6101 15.7422 12.2149 15.5117 12.7793C15.2813 13.3438 14.9405 13.8567 14.5094 14.2878C14.0782 14.7189 13.5654 15.0597 13.0009 15.2902C12.4364 15.5207 11.8316 15.6362 11.2219 15.63ZM11.2219 7.91394C10.814 7.90444 10.4084 7.97778 10.0296 8.12952C9.65089 8.28126 9.30685 8.50826 9.01833 8.79677C8.72981 9.08529 8.50282 9.42933 8.35108 9.80809C8.19933 10.1868 8.12599 10.5924 8.1355 11.0004C8.12599 11.4083 8.19933 11.8139 8.35108 12.1926C8.50282 12.5714 8.72981 12.9154 9.01833 13.2039C9.30685 13.4925 9.65089 13.7195 10.0296 13.8712C10.4084 14.0229 10.814 14.0963 11.2219 14.0868C11.6298 14.0963 12.0354 14.0229 12.4142 13.8712C12.7929 13.7195 13.137 13.4925 13.4255 13.2039C13.714 12.9154 13.941 12.5714 14.0928 12.1926C14.2445 11.8139 14.3178 11.4083 14.3083 11.0004C14.3178 10.5924 14.2445 10.1868 14.0928 9.80809C13.941 9.42933 13.714 9.08529 13.4255 8.79677C13.137 8.50826 12.7929 8.28126 12.4142 8.12952C12.0354 7.97778 11.6298 7.90444 11.2219 7.91394Z" fill="#1D1A2D"/>
</svg>
