<svg width="25" height="22" viewBox="0 0 25 22" fill="none" xmlns="http://www.w3.org/2000/svg">
<path d="M16.6263 18.7524L15.9863 13.6284C15.8956 12.9026 15.5429 12.2349 14.9945 11.751C14.4461 11.267 13.7397 11.0001 13.0083 11.0004H10.8043C10.0732 11.0006 9.36739 11.2677 8.81939 11.7516C8.2714 12.2356 7.91896 12.9029 7.82831 13.6284L7.18731 18.7524C7.15213 19.0339 7.17725 19.3197 7.26099 19.5907C7.34473 19.8618 7.48518 20.1119 7.67302 20.3245C7.86085 20.5372 8.09177 20.7074 8.35044 20.8239C8.60911 20.9404 8.88961 21.0006 9.17331 21.0004H14.6413C14.9249 21.0004 15.2053 20.9402 15.4639 20.8236C15.7224 20.707 15.9532 20.5368 16.1409 20.3242C16.3287 20.1116 16.469 19.8615 16.5527 19.5905C16.6364 19.3195 16.6615 19.0338 16.6263 18.7524V18.7524Z" stroke="#381FD2" stroke-width="1.5" stroke-linecap="round" stroke-linejoin="round"/>
<path d="M11.9072 7.00037C13.5641 7.00037 14.9072 5.65722 14.9072 4.00037C14.9072 2.34351 13.5641 1.00037 11.9072 1.00037C10.2504 1.00037 8.90723 2.34351 8.90723 4.00037C8.90723 5.65722 10.2504 7.00037 11.9072 7.00037Z" stroke="#381FD2" stroke-width="1.5"/>
<path d="M3.90723 10.0004C5.0118 10.0004 5.90723 9.10494 5.90723 8.00037C5.90723 6.8958 5.0118 6.00037 3.90723 6.00037C2.80266 6.00037 1.90723 6.8958 1.90723 8.00037C1.90723 9.10494 2.80266 10.0004 3.90723 10.0004Z" stroke="#381FD2" stroke-width="1.5"/>
<path d="M19.9072 10.0004C21.0118 10.0004 21.9072 9.10494 21.9072 8.00037C21.9072 6.8958 21.0118 6.00037 19.9072 6.00037C18.8027 6.00037 17.9072 6.8958 17.9072 8.00037C17.9072 9.10494 18.8027 10.0004 19.9072 10.0004Z" stroke="#381FD2" stroke-width="1.5"/>
<path d="M19.9073 13.0004H20.2133C20.6868 13.0003 21.1449 13.1682 21.5061 13.4742C21.8674 13.7802 22.1084 14.2044 22.1863 14.6714L22.5193 16.6714C22.5671 16.9579 22.5519 17.2514 22.4747 17.5315C22.3976 17.8116 22.2604 18.0715 22.0726 18.2931C21.8848 18.5148 21.651 18.6929 21.3874 18.815C21.1238 18.9372 20.8368 19.0004 20.5463 19.0004H16.9073M3.90731 13.0004H3.60131C3.12787 13.0003 2.66977 13.1682 2.30849 13.4742C1.94721 13.7802 1.70619 14.2044 1.62831 14.6714L1.29531 16.6714C1.24752 16.9579 1.26273 17.2514 1.33988 17.5315C1.41703 17.8116 1.55426 18.0715 1.74204 18.2931C1.92982 18.5148 2.16363 18.6929 2.42721 18.815C2.69079 18.9372 2.97781 19.0004 3.26831 19.0004H6.90731L3.90731 13.0004Z" stroke="#381FD2" stroke-width="1.5" stroke-linecap="round" stroke-linejoin="round"/>
</svg>
