<svg width="19" height="20" viewBox="0 0 19 20" fill="none" xmlns="http://www.w3.org/2000/svg">
<path d="M2.41964 17.9016C2.41964 18.4254 2.62776 18.9279 2.9982 19.2983C3.36864 19.6688 3.87107 19.8769 4.39495 19.8769H14.2715C14.7954 19.8769 15.2978 19.6688 15.6683 19.2983C16.0387 18.9279 16.2468 18.4254 16.2468 17.9016V6.04971H18.2221V4.0744H14.2715V2.09909C14.2715 1.5752 14.0634 1.07278 13.6929 0.702334C13.3225 0.331891 12.8201 0.123779 12.2962 0.123779H6.37026C5.84638 0.123779 5.34395 0.331891 4.97351 0.702334C4.60307 1.07278 4.39495 1.5752 4.39495 2.09909V4.0744H0.444336V6.04971H2.41964V17.9016ZM6.37026 2.09909H12.2962V4.0744H6.37026V2.09909ZM5.38261 6.04971H14.2715V17.9016H4.39495V6.04971H5.38261Z" fill="#381FD2"/>
<path d="M6.37036 8.02502H8.34567V15.9263H6.37036V8.02502ZM10.321 8.02502H12.2963V15.9263H10.321V8.02502Z" fill="#381FD2"/>
</svg>
