<svg width="16" height="16" viewBox="0 0 16 16" fill="none" xmlns="http://www.w3.org/2000/svg">
<path fill-rule="evenodd" clip-rule="evenodd" d="M7.80029 0.000366211C8.06547 0.000366211 8.3198 0.105711 8.50732 0.293227C8.69483 0.480742 8.80017 0.735068 8.80017 1.00025V12.585L13.0917 8.29144C13.1847 8.19847 13.295 8.12473 13.4165 8.07442C13.538 8.02411 13.6681 7.99821 13.7996 7.99821C13.9311 7.99821 14.0613 8.02411 14.1827 8.07442C14.3042 8.12473 14.4146 8.19847 14.5075 8.29144C14.6005 8.38441 14.6742 8.49477 14.7246 8.61624C14.7749 8.7377 14.8008 8.86789 14.8008 8.99936C14.8008 9.13083 14.7749 9.26102 14.7246 9.38249C14.6742 9.50395 14.6005 9.61432 14.5075 9.70728L8.50821 15.7066C8.41533 15.7997 8.30499 15.8736 8.18351 15.924C8.06203 15.9744 7.93181 16.0004 7.80029 16.0004C7.66877 16.0004 7.53854 15.9744 7.41706 15.924C7.29559 15.8736 7.18525 15.7997 7.09237 15.7066L1.09304 9.70728C1.00007 9.61432 0.926325 9.50395 0.876013 9.38249C0.8257 9.26102 0.799805 9.13083 0.799805 8.99936C0.799805 8.86789 0.8257 8.7377 0.876013 8.61624C0.926325 8.49477 1.00007 8.38441 1.09304 8.29144C1.28079 8.10369 1.53543 7.99821 1.80096 7.99821C1.93243 7.99821 2.06262 8.02411 2.18408 8.07442C2.30555 8.12473 2.41591 8.19847 2.50888 8.29144L6.8004 12.585V1.00025C6.8004 0.735068 6.90574 0.480742 7.09326 0.293227C7.28077 0.105711 7.5351 0.000366211 7.80029 0.000366211Z" fill="#1D1A2D"/>
</svg>
